<?xml version="1.0" encoding="UTF-8" standalone="no"?>
<!DOCTYPE svg PUBLIC "-//W3C//DTD SVG 1.1//EN"
 "http://www.w3.org/Graphics/SVG/1.1/DTD/svg11.dtd">
<!-- Generated by graphviz version 2.43.0 (0)
 -->
<!-- Title: rtvamp::pluginsdk::PluginExt&lt; Self, NOutputs &gt; Pages: 1 -->
<svg width="163pt" height="173pt"
 viewBox="0.00 0.00 163.00 173.00" xmlns="http://www.w3.org/2000/svg" xmlns:xlink="http://www.w3.org/1999/xlink">
<g id="graph0" class="graph" transform="scale(1 1) rotate(0) translate(4 169)">
<title>rtvamp::pluginsdk::PluginExt&lt; Self, NOutputs &gt;</title>
<!-- Node1 -->
<g id="node1" class="node">
<title>Node1</title>
<g id="a_node1"><a xlink:title="Extended plugin base class with automatic parameter / program handling.">
<polygon fill="#bfbfbf" stroke="black" points="0,-0.5 0,-30.5 155,-30.5 155,-0.5 0,-0.5"/>
<text text-anchor="start" x="8" y="-18.5" font-family="Helvetica,sans-Serif" font-size="10.00">rtvamp::pluginsdk::</text>
<text text-anchor="middle" x="77.5" y="-7.5" font-family="Helvetica,sans-Serif" font-size="10.00">PluginExt&lt; Self, NOutputs &gt;</text>
</a>
</g>
</g>
<!-- Node2 -->
<g id="node2" class="node">
<title>Node2</title>
<g id="a_node2"><a xlink:href="classrtvamp_1_1pluginsdk_1_1Plugin.html" target="_top" xlink:title="Base class to implement feature extraction plugins.">
<polygon fill="none" stroke="black" points="20,-67.5 20,-97.5 135,-97.5 135,-67.5 20,-67.5"/>
<text text-anchor="start" x="28" y="-85.5" font-family="Helvetica,sans-Serif" font-size="10.00">rtvamp::pluginsdk::</text>
<text text-anchor="middle" x="77.5" y="-74.5" font-family="Helvetica,sans-Serif" font-size="10.00">Plugin&lt; NOutputs &gt;</text>
</a>
</g>
</g>
<!-- Node2&#45;&gt;Node1 -->
<g id="edge1" class="edge">
<title>Node2&#45;&gt;Node1</title>
<path fill="none" stroke="midnightblue" d="M77.5,-57.11C77.5,-48.15 77.5,-38.32 77.5,-30.58"/>
<polygon fill="midnightblue" stroke="midnightblue" points="74,-57.4 77.5,-67.4 81,-57.4 74,-57.4"/>
</g>
<!-- Node3 -->
<g id="node3" class="node">
<title>Node3</title>
<g id="a_node3"><a xlink:href="classrtvamp_1_1pluginsdk_1_1PluginBase.html" target="_top" xlink:title="Non&#45;templated plugin base class with type definitions.">
<polygon fill="none" stroke="black" points="22,-134.5 22,-164.5 133,-164.5 133,-134.5 22,-134.5"/>
<text text-anchor="start" x="30" y="-152.5" font-family="Helvetica,sans-Serif" font-size="10.00">rtvamp::pluginsdk::</text>
<text text-anchor="middle" x="77.5" y="-141.5" font-family="Helvetica,sans-Serif" font-size="10.00">PluginBase</text>
</a>
</g>
</g>
<!-- Node3&#45;&gt;Node2 -->
<g id="edge2" class="edge">
<title>Node3&#45;&gt;Node2</title>
<path fill="none" stroke="midnightblue" d="M77.5,-124.11C77.5,-115.15 77.5,-105.32 77.5,-97.58"/>
<polygon fill="midnightblue" stroke="midnightblue" points="74,-124.4 77.5,-134.4 81,-124.4 74,-124.4"/>
</g>
</g>
</svg>
