<?xml version="1.0" encoding="UTF-8" standalone="no"?>
<!DOCTYPE svg PUBLIC "-//W3C//DTD SVG 1.1//EN"
 "http://www.w3.org/Graphics/SVG/1.1/DTD/svg11.dtd">
<!-- Generated by graphviz version 2.43.0 (0)
 -->
<!-- Title: rtvamp::pluginsdk::PluginExt&lt; Self, NOutputs &gt; Pages: 1 -->
<svg width="163pt" height="170pt"
 viewBox="0.00 0.00 163.00 170.00" xmlns="http://www.w3.org/2000/svg" xmlns:xlink="http://www.w3.org/1999/xlink">
<g id="graph0" class="graph" transform="scale(1 1) rotate(0) translate(4 166)">
<title>rtvamp::pluginsdk::PluginExt&lt; Self, NOutputs &gt;</title>
<!-- Node1 -->
<g id="Node000001" class="node">
<title>Node1</title>
<g id="a_Node000001"><a xlink:title="Extended plugin base class with automatic parameter / program handling.">
<polygon fill="#999999" stroke="#666666" points="155,-30 0,-30 0,0 155,0 155,-30"/>
<text text-anchor="start" x="8" y="-18" font-family="Helvetica,sans-Serif" font-size="10.00">rtvamp::pluginsdk::</text>
<text text-anchor="middle" x="77.5" y="-7" font-family="Helvetica,sans-Serif" font-size="10.00">PluginExt&lt; Self, NOutputs &gt;</text>
</a>
</g>
</g>
<!-- Node2 -->
<g id="Node000002" class="node">
<title>Node2</title>
<g id="a_Node000002"><a xlink:href="classrtvamp_1_1pluginsdk_1_1Plugin.html" target="_top" xlink:title="Base class to implement feature extraction plugins.">
<polygon fill="white" stroke="#666666" points="135,-96 20,-96 20,-66 135,-66 135,-96"/>
<text text-anchor="start" x="28" y="-84" font-family="Helvetica,sans-Serif" font-size="10.00">rtvamp::pluginsdk::</text>
<text text-anchor="middle" x="77.5" y="-73" font-family="Helvetica,sans-Serif" font-size="10.00">Plugin&lt; NOutputs &gt;</text>
</a>
</g>
</g>
<!-- Node2&#45;&gt;Node1 -->
<g id="edge1_Node000001_Node000002" class="edge">
<title>Node2&#45;&gt;Node1</title>
<g id="a_edge1_Node000001_Node000002"><a xlink:title=" ">
<path fill="none" stroke="#63b8ff" d="M77.5,-55.54C77.5,-46.96 77.5,-37.61 77.5,-30.16"/>
<polygon fill="#63b8ff" stroke="#63b8ff" points="74,-55.8 77.5,-65.8 81,-55.8 74,-55.8"/>
</a>
</g>
</g>
<!-- Node3 -->
<g id="Node000003" class="node">
<title>Node3</title>
<g id="a_Node000003"><a xlink:href="classrtvamp_1_1pluginsdk_1_1PluginBase.html" target="_top" xlink:title="Non&#45;templated plugin base class with type definitions.">
<polygon fill="white" stroke="#666666" points="133,-162 22,-162 22,-132 133,-132 133,-162"/>
<text text-anchor="start" x="30" y="-150" font-family="Helvetica,sans-Serif" font-size="10.00">rtvamp::pluginsdk::</text>
<text text-anchor="middle" x="77.5" y="-139" font-family="Helvetica,sans-Serif" font-size="10.00">PluginBase</text>
</a>
</g>
</g>
<!-- Node3&#45;&gt;Node2 -->
<g id="edge2_Node000002_Node000003" class="edge">
<title>Node3&#45;&gt;Node2</title>
<g id="a_edge2_Node000002_Node000003"><a xlink:title=" ">
<path fill="none" stroke="#63b8ff" d="M77.5,-121.54C77.5,-112.96 77.5,-103.61 77.5,-96.16"/>
<polygon fill="#63b8ff" stroke="#63b8ff" points="74,-121.8 77.5,-131.8 81,-121.8 74,-121.8"/>
</a>
</g>
</g>
</g>
</svg>
