<?xml version="1.0" encoding="UTF-8" standalone="no"?>
<!DOCTYPE svg PUBLIC "-//W3C//DTD SVG 1.1//EN"
 "http://www.w3.org/Graphics/SVG/1.1/DTD/svg11.dtd">
<!-- Generated by graphviz version 2.43.0 (0)
 -->
<!-- Title: /home/runner/work/rt&#45;vamp&#45;plugin&#45;sdk/rt&#45;vamp&#45;plugin&#45;sdk/pluginsdk/include/rtvamp/pluginsdk/EntryPoint.hpp Pages: 1 -->
<svg width="616pt" height="184pt"
 viewBox="0.00 0.00 615.50 184.00" xmlns="http://www.w3.org/2000/svg" xmlns:xlink="http://www.w3.org/1999/xlink">
<g id="graph0" class="graph" transform="scale(1 1) rotate(0) translate(4 180)">
<title>/home/runner/work/rt&#45;vamp&#45;plugin&#45;sdk/rt&#45;vamp&#45;plugin&#45;sdk/pluginsdk/include/rtvamp/pluginsdk/EntryPoint.hpp</title>
<!-- Node1 -->
<g id="node1" class="node">
<title>Node1</title>
<g id="a_node1"><a xlink:title=" ">
<polygon fill="#bfbfbf" stroke="black" points="210.5,-123.5 210.5,-175.5 389.5,-175.5 389.5,-123.5 210.5,-123.5"/>
<text text-anchor="start" x="218.5" y="-163.5" font-family="Helvetica,sans-Serif" font-size="10.00">/home/runner/work/rt</text>
<text text-anchor="start" x="218.5" y="-152.5" font-family="Helvetica,sans-Serif" font-size="10.00">&#45;vamp&#45;plugin&#45;sdk/rt&#45;vamp</text>
<text text-anchor="start" x="218.5" y="-141.5" font-family="Helvetica,sans-Serif" font-size="10.00">&#45;plugin&#45;sdk/pluginsdk/include</text>
<text text-anchor="middle" x="300" y="-130.5" font-family="Helvetica,sans-Serif" font-size="10.00">/rtvamp/pluginsdk/EntryPoint.hpp</text>
</a>
</g>
</g>
<!-- Node2 -->
<g id="node2" class="node">
<title>Node2</title>
<g id="a_node2"><a xlink:title=" ">
<polygon fill="none" stroke="#bfbfbf" points="120,-62 120,-81 204,-81 204,-62 120,-62"/>
<text text-anchor="middle" x="162" y="-69" font-family="Helvetica,sans-Serif" font-size="10.00">vamp/vamp.h</text>
</a>
</g>
</g>
<!-- Node1&#45;&gt;Node2 -->
<g id="edge1" class="edge">
<title>Node1&#45;&gt;Node2</title>
<path fill="none" stroke="midnightblue" d="M254.43,-123.4C231.73,-110.9 205.19,-96.29 186.39,-85.93"/>
<polygon fill="midnightblue" stroke="midnightblue" points="188.02,-82.84 177.58,-81.08 184.65,-88.97 188.02,-82.84"/>
</g>
<!-- Node3 -->
<g id="node3" class="node">
<title>Node3</title>
<g id="a_node3"><a xlink:href="pluginsdk_2include_2rtvamp_2pluginsdk_2Plugin_8hpp.html" target="_top" xlink:title=" ">
<polygon fill="none" stroke="black" points="222,-62 222,-81 378,-81 378,-62 222,-62"/>
<text text-anchor="middle" x="300" y="-69" font-family="Helvetica,sans-Serif" font-size="10.00">rtvamp/pluginsdk/Plugin.hpp</text>
</a>
</g>
</g>
<!-- Node1&#45;&gt;Node3 -->
<g id="edge2" class="edge">
<title>Node1&#45;&gt;Node3</title>
<path fill="none" stroke="midnightblue" d="M300,-123.19C300,-112.76 300,-100.9 300,-91.27"/>
<polygon fill="midnightblue" stroke="midnightblue" points="303.5,-91.21 300,-81.21 296.5,-91.21 303.5,-91.21"/>
</g>
<!-- Node13 -->
<g id="node13" class="node">
<title>Node13</title>
<g id="a_node13"><a xlink:title=" ">
<polygon fill="none" stroke="#bfbfbf" points="396.5,-56.5 396.5,-86.5 529.5,-86.5 529.5,-56.5 396.5,-56.5"/>
<text text-anchor="start" x="404.5" y="-74.5" font-family="Helvetica,sans-Serif" font-size="10.00">rtvamp/pluginsdk/detail</text>
<text text-anchor="middle" x="463" y="-63.5" font-family="Helvetica,sans-Serif" font-size="10.00">/PluginAdapter.hpp</text>
</a>
</g>
</g>
<!-- Node1&#45;&gt;Node13 -->
<g id="edge12" class="edge">
<title>Node1&#45;&gt;Node13</title>
<path fill="none" stroke="midnightblue" d="M353.82,-123.4C376.5,-112.83 402.42,-100.74 423.31,-91"/>
<polygon fill="midnightblue" stroke="midnightblue" points="424.95,-94.1 432.53,-86.71 421.99,-87.76 424.95,-94.1"/>
</g>
<!-- Node4 -->
<g id="node4" class="node">
<title>Node4</title>
<g id="a_node4"><a xlink:title=" ">
<polygon fill="none" stroke="#bfbfbf" points="0,-0.5 0,-19.5 42,-19.5 42,-0.5 0,-0.5"/>
<text text-anchor="middle" x="21" y="-7.5" font-family="Helvetica,sans-Serif" font-size="10.00">array</text>
</a>
</g>
</g>
<!-- Node3&#45;&gt;Node4 -->
<g id="edge3" class="edge">
<title>Node3&#45;&gt;Node4</title>
<path fill="none" stroke="midnightblue" d="M251.04,-61.94C202.78,-53.19 126.76,-38.6 52.26,-20.14"/>
<polygon fill="midnightblue" stroke="midnightblue" points="52.79,-16.67 42.24,-17.63 51.09,-23.46 52.79,-16.67"/>
</g>
<!-- Node5 -->
<g id="node5" class="node">
<title>Node5</title>
<g id="a_node5"><a xlink:title=" ">
<polygon fill="none" stroke="#bfbfbf" points="60.5,-0.5 60.5,-19.5 119.5,-19.5 119.5,-0.5 60.5,-0.5"/>
<text text-anchor="middle" x="90" y="-7.5" font-family="Helvetica,sans-Serif" font-size="10.00">complex</text>
</a>
</g>
</g>
<!-- Node3&#45;&gt;Node5 -->
<g id="edge4" class="edge">
<title>Node3&#45;&gt;Node5</title>
<path fill="none" stroke="midnightblue" d="M269.91,-61.98C233.01,-51.52 170.33,-33.76 129.56,-22.21"/>
<polygon fill="midnightblue" stroke="midnightblue" points="130.27,-18.77 119.69,-19.41 128.36,-25.51 130.27,-18.77"/>
</g>
<!-- Node6 -->
<g id="node6" class="node">
<title>Node6</title>
<g id="a_node6"><a xlink:title=" ">
<polygon fill="none" stroke="#bfbfbf" points="138,-0.5 138,-19.5 188,-19.5 188,-0.5 138,-0.5"/>
<text text-anchor="middle" x="163" y="-7.5" font-family="Helvetica,sans-Serif" font-size="10.00">cstdint</text>
</a>
</g>
</g>
<!-- Node3&#45;&gt;Node6 -->
<g id="edge5" class="edge">
<title>Node3&#45;&gt;Node6</title>
<path fill="none" stroke="midnightblue" d="M280.37,-61.98C257.18,-51.9 218.38,-35.05 191.79,-23.5"/>
<polygon fill="midnightblue" stroke="midnightblue" points="193.16,-20.28 182.59,-19.51 190.37,-26.7 193.16,-20.28"/>
</g>
<!-- Node7 -->
<g id="node7" class="node">
<title>Node7</title>
<g id="a_node7"><a xlink:title=" ">
<polygon fill="none" stroke="#bfbfbf" points="206,-0.5 206,-19.5 262,-19.5 262,-0.5 206,-0.5"/>
<text text-anchor="middle" x="234" y="-7.5" font-family="Helvetica,sans-Serif" font-size="10.00">optional</text>
</a>
</g>
</g>
<!-- Node3&#45;&gt;Node7 -->
<g id="edge6" class="edge">
<title>Node3&#45;&gt;Node7</title>
<path fill="none" stroke="midnightblue" d="M290.54,-61.98C280.25,-52.7 263.58,-37.67 251.01,-26.33"/>
<polygon fill="midnightblue" stroke="midnightblue" points="253.21,-23.61 243.44,-19.51 248.52,-28.8 253.21,-23.61"/>
</g>
<!-- Node8 -->
<g id="node8" class="node">
<title>Node8</title>
<g id="a_node8"><a xlink:title=" ">
<polygon fill="none" stroke="#bfbfbf" points="280,-0.5 280,-19.5 320,-19.5 320,-0.5 280,-0.5"/>
<text text-anchor="middle" x="300" y="-7.5" font-family="Helvetica,sans-Serif" font-size="10.00">span</text>
</a>
</g>
</g>
<!-- Node3&#45;&gt;Node8 -->
<g id="edge7" class="edge">
<title>Node3&#45;&gt;Node8</title>
<path fill="none" stroke="midnightblue" d="M300,-61.98C300,-53.58 300,-40.48 300,-29.66"/>
<polygon fill="midnightblue" stroke="midnightblue" points="303.5,-29.51 300,-19.51 296.5,-29.51 303.5,-29.51"/>
</g>
<!-- Node9 -->
<g id="node9" class="node">
<title>Node9</title>
<g id="a_node9"><a xlink:title=" ">
<polygon fill="none" stroke="#bfbfbf" points="338,-0.5 338,-19.5 382,-19.5 382,-0.5 338,-0.5"/>
<text text-anchor="middle" x="360" y="-7.5" font-family="Helvetica,sans-Serif" font-size="10.00">string</text>
</a>
</g>
</g>
<!-- Node3&#45;&gt;Node9 -->
<g id="edge8" class="edge">
<title>Node3&#45;&gt;Node9</title>
<path fill="none" stroke="midnightblue" d="M308.6,-61.98C317.86,-52.78 332.82,-37.96 344.21,-26.66"/>
<polygon fill="midnightblue" stroke="midnightblue" points="346.78,-29.04 351.42,-19.51 341.85,-24.07 346.78,-29.04"/>
</g>
<!-- Node10 -->
<g id="node10" class="node">
<title>Node10</title>
<g id="a_node10"><a xlink:title=" ">
<polygon fill="none" stroke="#bfbfbf" points="400.5,-0.5 400.5,-19.5 473.5,-19.5 473.5,-0.5 400.5,-0.5"/>
<text text-anchor="middle" x="437" y="-7.5" font-family="Helvetica,sans-Serif" font-size="10.00">string_view</text>
</a>
</g>
</g>
<!-- Node3&#45;&gt;Node10 -->
<g id="edge9" class="edge">
<title>Node3&#45;&gt;Node10</title>
<path fill="none" stroke="midnightblue" d="M319.63,-61.98C342.82,-51.9 381.62,-35.05 408.21,-23.5"/>
<polygon fill="midnightblue" stroke="midnightblue" points="409.63,-26.7 417.41,-19.51 406.84,-20.28 409.63,-26.7"/>
</g>
<!-- Node11 -->
<g id="node11" class="node">
<title>Node11</title>
<g id="a_node11"><a xlink:title=" ">
<polygon fill="none" stroke="#bfbfbf" points="491.5,-0.5 491.5,-19.5 542.5,-19.5 542.5,-0.5 491.5,-0.5"/>
<text text-anchor="middle" x="517" y="-7.5" font-family="Helvetica,sans-Serif" font-size="10.00">variant</text>
</a>
</g>
</g>
<!-- Node3&#45;&gt;Node11 -->
<g id="edge10" class="edge">
<title>Node3&#45;&gt;Node11</title>
<path fill="none" stroke="midnightblue" d="M331.09,-61.98C370.93,-51.05 439.83,-32.16 481.63,-20.7"/>
<polygon fill="midnightblue" stroke="midnightblue" points="482.67,-24.04 491.39,-18.02 480.82,-17.29 482.67,-24.04"/>
</g>
<!-- Node12 -->
<g id="node12" class="node">
<title>Node12</title>
<g id="a_node12"><a xlink:title=" ">
<polygon fill="none" stroke="#bfbfbf" points="560.5,-0.5 560.5,-19.5 607.5,-19.5 607.5,-0.5 560.5,-0.5"/>
<text text-anchor="middle" x="584" y="-7.5" font-family="Helvetica,sans-Serif" font-size="10.00">vector</text>
</a>
</g>
</g>
<!-- Node3&#45;&gt;Node12 -->
<g id="edge11" class="edge">
<title>Node3&#45;&gt;Node12</title>
<path fill="none" stroke="midnightblue" d="M348.08,-62C396.78,-53.13 474.47,-38.3 550.11,-20.33"/>
<polygon fill="midnightblue" stroke="midnightblue" points="551.38,-23.62 560.29,-17.89 549.75,-16.81 551.38,-23.62"/>
</g>
</g>
</svg>
