<?xml version="1.0" encoding="UTF-8" standalone="no"?>
<!DOCTYPE svg PUBLIC "-//W3C//DTD SVG 1.1//EN"
 "http://www.w3.org/Graphics/SVG/1.1/DTD/svg11.dtd">
<!-- Generated by graphviz version 2.43.0 (0)
 -->
<!-- Title: /home/runner/work/rt&#45;vamp&#45;plugin&#45;sdk/rt&#45;vamp&#45;plugin&#45;sdk/pluginsdk/include/rtvamp/pluginsdk/EntryPoint.hpp Pages: 1 -->
<svg width="616pt" height="181pt"
 viewBox="0.00 0.00 615.50 181.00" xmlns="http://www.w3.org/2000/svg" xmlns:xlink="http://www.w3.org/1999/xlink">
<g id="graph0" class="graph" transform="scale(1 1) rotate(0) translate(4 177)">
<title>/home/runner/work/rt&#45;vamp&#45;plugin&#45;sdk/rt&#45;vamp&#45;plugin&#45;sdk/pluginsdk/include/rtvamp/pluginsdk/EntryPoint.hpp</title>
<!-- Node1 -->
<g id="Node000001" class="node">
<title>Node1</title>
<g id="a_Node000001"><a xlink:title=" ">
<polygon fill="#999999" stroke="#666666" points="389.5,-173 210.5,-173 210.5,-121 389.5,-121 389.5,-173"/>
<text text-anchor="start" x="218.5" y="-161" font-family="Helvetica,sans-Serif" font-size="10.00">/home/runner/work/rt</text>
<text text-anchor="start" x="218.5" y="-150" font-family="Helvetica,sans-Serif" font-size="10.00">&#45;vamp&#45;plugin&#45;sdk/rt&#45;vamp</text>
<text text-anchor="start" x="218.5" y="-139" font-family="Helvetica,sans-Serif" font-size="10.00">&#45;plugin&#45;sdk/pluginsdk/include</text>
<text text-anchor="middle" x="300" y="-128" font-family="Helvetica,sans-Serif" font-size="10.00">/rtvamp/pluginsdk/EntryPoint.hpp</text>
</a>
</g>
</g>
<!-- Node2 -->
<g id="Node000002" class="node">
<title>Node2</title>
<g id="a_Node000002"><a xlink:title=" ">
<polygon fill="#e0e0e0" stroke="#999999" points="204,-79.5 120,-79.5 120,-60.5 204,-60.5 204,-79.5"/>
<text text-anchor="middle" x="162" y="-67.5" font-family="Helvetica,sans-Serif" font-size="10.00">vamp/vamp.h</text>
</a>
</g>
</g>
<!-- Node1&#45;&gt;Node2 -->
<g id="edge1_Node000001_Node000002" class="edge">
<title>Node1&#45;&gt;Node2</title>
<g id="a_edge1_Node000001_Node000002"><a xlink:title=" ">
<path fill="none" stroke="#63b8ff" d="M253.66,-120.82C231.26,-108.64 205.27,-94.52 186.7,-84.42"/>
<polygon fill="#63b8ff" stroke="#63b8ff" points="188.18,-81.24 177.72,-79.54 184.84,-87.39 188.18,-81.24"/>
</a>
</g>
</g>
<!-- Node3 -->
<g id="Node000003" class="node">
<title>Node3</title>
<g id="a_Node000003"><a xlink:href="pluginsdk_2include_2rtvamp_2pluginsdk_2Plugin_8hpp.html" target="_top" xlink:title=" ">
<polygon fill="white" stroke="#666666" points="378,-79.5 222,-79.5 222,-60.5 378,-60.5 378,-79.5"/>
<text text-anchor="middle" x="300" y="-67.5" font-family="Helvetica,sans-Serif" font-size="10.00">rtvamp/pluginsdk/Plugin.hpp</text>
</a>
</g>
</g>
<!-- Node1&#45;&gt;Node3 -->
<g id="edge2_Node000001_Node000003" class="edge">
<title>Node1&#45;&gt;Node3</title>
<g id="a_edge2_Node000001_Node000003"><a xlink:title=" ">
<path fill="none" stroke="#63b8ff" d="M300,-120.61C300,-110.58 300,-99.25 300,-89.96"/>
<polygon fill="#63b8ff" stroke="#63b8ff" points="303.5,-89.85 300,-79.85 296.5,-89.85 303.5,-89.85"/>
</a>
</g>
</g>
<!-- Node13 -->
<g id="Node000013" class="node">
<title>Node13</title>
<g id="a_Node000013"><a xlink:title=" ">
<polygon fill="#e0e0e0" stroke="#999999" points="529.5,-85 396.5,-85 396.5,-55 529.5,-55 529.5,-85"/>
<text text-anchor="start" x="404.5" y="-73" font-family="Helvetica,sans-Serif" font-size="10.00">rtvamp/pluginsdk/detail</text>
<text text-anchor="middle" x="463" y="-62" font-family="Helvetica,sans-Serif" font-size="10.00">/PluginAdapter.hpp</text>
</a>
</g>
</g>
<!-- Node1&#45;&gt;Node13 -->
<g id="edge12_Node000001_Node000013" class="edge">
<title>Node1&#45;&gt;Node13</title>
<g id="a_edge12_Node000001_Node000013"><a xlink:title=" ">
<path fill="none" stroke="#63b8ff" d="M354.73,-120.82C377.19,-110.48 402.69,-98.75 423.31,-89.26"/>
<polygon fill="#63b8ff" stroke="#63b8ff" points="424.79,-92.44 432.41,-85.08 421.86,-86.08 424.79,-92.44"/>
</a>
</g>
</g>
<!-- Node4 -->
<g id="Node000004" class="node">
<title>Node4</title>
<g id="a_Node000004"><a xlink:title=" ">
<polygon fill="#e0e0e0" stroke="#999999" points="42,-19 0,-19 0,0 42,0 42,-19"/>
<text text-anchor="middle" x="21" y="-7" font-family="Helvetica,sans-Serif" font-size="10.00">array</text>
</a>
</g>
</g>
<!-- Node3&#45;&gt;Node4 -->
<g id="edge3_Node000003_Node000004" class="edge">
<title>Node3&#45;&gt;Node4</title>
<g id="a_edge3_Node000003_Node000004"><a xlink:title=" ">
<path fill="none" stroke="#63b8ff" d="M251.56,-60.43C203.36,-51.64 127.12,-37.05 52.32,-19.17"/>
<polygon fill="#63b8ff" stroke="#63b8ff" points="52.79,-15.69 42.25,-16.74 51.15,-22.49 52.79,-15.69"/>
</a>
</g>
</g>
<!-- Node5 -->
<g id="Node000005" class="node">
<title>Node5</title>
<g id="a_Node000005"><a xlink:title=" ">
<polygon fill="#e0e0e0" stroke="#999999" points="119.5,-19 60.5,-19 60.5,0 119.5,0 119.5,-19"/>
<text text-anchor="middle" x="90" y="-7" font-family="Helvetica,sans-Serif" font-size="10.00">complex</text>
</a>
</g>
</g>
<!-- Node3&#45;&gt;Node5 -->
<g id="edge4_Node000003_Node000005" class="edge">
<title>Node3&#45;&gt;Node5</title>
<g id="a_edge4_Node000003_Node000005"><a xlink:title=" ">
<path fill="none" stroke="#63b8ff" d="M269.46,-60.49C232.45,-50.18 169.99,-32.78 129.38,-21.47"/>
<polygon fill="#63b8ff" stroke="#63b8ff" points="130.13,-18.05 119.55,-18.73 128.25,-24.79 130.13,-18.05"/>
</a>
</g>
</g>
<!-- Node6 -->
<g id="Node000006" class="node">
<title>Node6</title>
<g id="a_Node000006"><a xlink:title=" ">
<polygon fill="#e0e0e0" stroke="#999999" points="188,-19 138,-19 138,0 188,0 188,-19"/>
<text text-anchor="middle" x="163" y="-7" font-family="Helvetica,sans-Serif" font-size="10.00">cstdint</text>
</a>
</g>
</g>
<!-- Node3&#45;&gt;Node6 -->
<g id="edge5_Node000003_Node000006" class="edge">
<title>Node3&#45;&gt;Node6</title>
<g id="a_edge5_Node000003_Node000006"><a xlink:title=" ">
<path fill="none" stroke="#63b8ff" d="M280.08,-60.49C257.05,-50.66 218.92,-34.38 192.46,-23.08"/>
<polygon fill="#63b8ff" stroke="#63b8ff" points="193.52,-19.72 182.95,-19.02 190.77,-26.16 193.52,-19.72"/>
</a>
</g>
</g>
<!-- Node7 -->
<g id="Node000007" class="node">
<title>Node7</title>
<g id="a_Node000007"><a xlink:title=" ">
<polygon fill="#e0e0e0" stroke="#999999" points="262,-19 206,-19 206,0 262,0 262,-19"/>
<text text-anchor="middle" x="234" y="-7" font-family="Helvetica,sans-Serif" font-size="10.00">optional</text>
</a>
</g>
</g>
<!-- Node3&#45;&gt;Node7 -->
<g id="edge6_Node000003_Node000007" class="edge">
<title>Node3&#45;&gt;Node7</title>
<g id="a_edge6_Node000003_Node000007"><a xlink:title=" ">
<path fill="none" stroke="#63b8ff" d="M290.26,-60.37C280.03,-51.3 263.71,-36.84 251.28,-25.82"/>
<polygon fill="#63b8ff" stroke="#63b8ff" points="253.58,-23.18 243.78,-19.17 248.94,-28.42 253.58,-23.18"/>
</a>
</g>
</g>
<!-- Node8 -->
<g id="Node000008" class="node">
<title>Node8</title>
<g id="a_Node000008"><a xlink:title=" ">
<polygon fill="#e0e0e0" stroke="#999999" points="320,-19 280,-19 280,0 320,0 320,-19"/>
<text text-anchor="middle" x="300" y="-7" font-family="Helvetica,sans-Serif" font-size="10.00">span</text>
</a>
</g>
</g>
<!-- Node3&#45;&gt;Node8 -->
<g id="edge7_Node000003_Node000008" class="edge">
<title>Node3&#45;&gt;Node8</title>
<g id="a_edge7_Node000003_Node000008"><a xlink:title=" ">
<path fill="none" stroke="#63b8ff" d="M300,-60.37C300,-52.25 300,-39.81 300,-29.39"/>
<polygon fill="#63b8ff" stroke="#63b8ff" points="303.5,-29.17 300,-19.17 296.5,-29.17 303.5,-29.17"/>
</a>
</g>
</g>
<!-- Node9 -->
<g id="Node000009" class="node">
<title>Node9</title>
<g id="a_Node000009"><a xlink:title=" ">
<polygon fill="#e0e0e0" stroke="#999999" points="382,-19 338,-19 338,0 382,0 382,-19"/>
<text text-anchor="middle" x="360" y="-7" font-family="Helvetica,sans-Serif" font-size="10.00">string</text>
</a>
</g>
</g>
<!-- Node3&#45;&gt;Node9 -->
<g id="edge8_Node000003_Node000009" class="edge">
<title>Node3&#45;&gt;Node9</title>
<g id="a_edge8_Node000003_Node000009"><a xlink:title=" ">
<path fill="none" stroke="#63b8ff" d="M308.85,-60.37C317.98,-51.47 332.42,-37.39 343.64,-26.45"/>
<polygon fill="#63b8ff" stroke="#63b8ff" points="346.39,-28.65 351.11,-19.17 341.51,-23.64 346.39,-28.65"/>
</a>
</g>
</g>
<!-- Node10 -->
<g id="Node000010" class="node">
<title>Node10</title>
<g id="a_Node000010"><a xlink:title=" ">
<polygon fill="#e0e0e0" stroke="#999999" points="473.5,-19 400.5,-19 400.5,0 473.5,0 473.5,-19"/>
<text text-anchor="middle" x="437" y="-7" font-family="Helvetica,sans-Serif" font-size="10.00">string_view</text>
</a>
</g>
</g>
<!-- Node3&#45;&gt;Node10 -->
<g id="edge9_Node000003_Node000010" class="edge">
<title>Node3&#45;&gt;Node10</title>
<g id="a_edge9_Node000003_Node000010"><a xlink:title=" ">
<path fill="none" stroke="#63b8ff" d="M319.92,-60.49C342.95,-50.66 381.08,-34.38 407.54,-23.08"/>
<polygon fill="#63b8ff" stroke="#63b8ff" points="409.23,-26.16 417.05,-19.02 406.48,-19.72 409.23,-26.16"/>
</a>
</g>
</g>
<!-- Node11 -->
<g id="Node000011" class="node">
<title>Node11</title>
<g id="a_Node000011"><a xlink:title=" ">
<polygon fill="#e0e0e0" stroke="#999999" points="542.5,-19 491.5,-19 491.5,0 542.5,0 542.5,-19"/>
<text text-anchor="middle" x="517" y="-7" font-family="Helvetica,sans-Serif" font-size="10.00">variant</text>
</a>
</g>
</g>
<!-- Node3&#45;&gt;Node11 -->
<g id="edge10_Node000003_Node000011" class="edge">
<title>Node3&#45;&gt;Node11</title>
<g id="a_edge10_Node000003_Node000011"><a xlink:title=" ">
<path fill="none" stroke="#63b8ff" d="M331.55,-60.49C371.41,-49.75 439.8,-31.31 481.46,-20.08"/>
<polygon fill="#63b8ff" stroke="#63b8ff" points="482.44,-23.44 491.18,-17.46 480.62,-16.68 482.44,-23.44"/>
</a>
</g>
</g>
<!-- Node12 -->
<g id="Node000012" class="node">
<title>Node12</title>
<g id="a_Node000012"><a xlink:title=" ">
<polygon fill="#e0e0e0" stroke="#999999" points="607.5,-19 560.5,-19 560.5,0 607.5,0 607.5,-19"/>
<text text-anchor="middle" x="584" y="-7" font-family="Helvetica,sans-Serif" font-size="10.00">vector</text>
</a>
</g>
</g>
<!-- Node3&#45;&gt;Node12 -->
<g id="edge11_Node000003_Node000012" class="edge">
<title>Node3&#45;&gt;Node12</title>
<g id="a_edge11_Node000003_Node000012"><a xlink:title=" ">
<path fill="none" stroke="#63b8ff" d="M347.57,-60.5C396.29,-51.58 474.44,-36.7 550.53,-19.24"/>
<polygon fill="#63b8ff" stroke="#63b8ff" points="551.32,-22.64 560.28,-16.98 549.74,-15.82 551.32,-22.64"/>
</a>
</g>
</g>
</g>
</svg>
