<?xml version="1.0" encoding="UTF-8" standalone="no"?>
<!DOCTYPE svg PUBLIC "-//W3C//DTD SVG 1.1//EN"
 "http://www.w3.org/Graphics/SVG/1.1/DTD/svg11.dtd">
<!-- Generated by graphviz version 2.43.0 (0)
 -->
<!-- Title: /home/runner/work/rt&#45;vamp&#45;plugin&#45;sdk/rt&#45;vamp&#45;plugin&#45;sdk/pluginsdk/include/rtvamp/pluginsdk/EntryPoint.hpp Pages: 1 -->
<svg width="694pt" height="181pt"
 viewBox="0.00 0.00 693.50 181.00" xmlns="http://www.w3.org/2000/svg" xmlns:xlink="http://www.w3.org/1999/xlink">
<g id="graph0" class="graph" transform="scale(1 1) rotate(0) translate(4 177)">
<title>/home/runner/work/rt&#45;vamp&#45;plugin&#45;sdk/rt&#45;vamp&#45;plugin&#45;sdk/pluginsdk/include/rtvamp/pluginsdk/EntryPoint.hpp</title>
<!-- Node1 -->
<g id="Node000001" class="node">
<title>Node1</title>
<g id="a_Node000001"><a xlink:title=" ">
<polygon fill="#999999" stroke="#666666" points="434.5,-173 255.5,-173 255.5,-121 434.5,-121 434.5,-173"/>
<text text-anchor="start" x="263.5" y="-161" font-family="Helvetica,sans-Serif" font-size="10.00">/home/runner/work/rt</text>
<text text-anchor="start" x="263.5" y="-150" font-family="Helvetica,sans-Serif" font-size="10.00">&#45;vamp&#45;plugin&#45;sdk/rt&#45;vamp</text>
<text text-anchor="start" x="263.5" y="-139" font-family="Helvetica,sans-Serif" font-size="10.00">&#45;plugin&#45;sdk/pluginsdk/include</text>
<text text-anchor="middle" x="345" y="-128" font-family="Helvetica,sans-Serif" font-size="10.00">/rtvamp/pluginsdk/EntryPoint.hpp</text>
</a>
</g>
</g>
<!-- Node2 -->
<g id="Node000002" class="node">
<title>Node2</title>
<g id="a_Node000002"><a xlink:title=" ">
<polygon fill="#e0e0e0" stroke="#999999" points="249,-79.5 165,-79.5 165,-60.5 249,-60.5 249,-79.5"/>
<text text-anchor="middle" x="207" y="-67.5" font-family="Helvetica,sans-Serif" font-size="10.00">vamp/vamp.h</text>
</a>
</g>
</g>
<!-- Node1&#45;&gt;Node2 -->
<g id="edge1_Node000001_Node000002" class="edge">
<title>Node1&#45;&gt;Node2</title>
<g id="a_edge1_Node000001_Node000002"><a xlink:title=" ">
<path fill="none" stroke="#63b8ff" d="M298.66,-120.82C276.26,-108.64 250.27,-94.52 231.7,-84.42"/>
<polygon fill="#63b8ff" stroke="#63b8ff" points="233.18,-81.24 222.72,-79.54 229.84,-87.39 233.18,-81.24"/>
</a>
</g>
</g>
<!-- Node3 -->
<g id="Node000003" class="node">
<title>Node3</title>
<g id="a_Node000003"><a xlink:href="pluginsdk_2include_2rtvamp_2pluginsdk_2Plugin_8hpp.html" target="_top" xlink:title=" ">
<polygon fill="white" stroke="#666666" points="423,-79.5 267,-79.5 267,-60.5 423,-60.5 423,-79.5"/>
<text text-anchor="middle" x="345" y="-67.5" font-family="Helvetica,sans-Serif" font-size="10.00">rtvamp/pluginsdk/Plugin.hpp</text>
</a>
</g>
</g>
<!-- Node1&#45;&gt;Node3 -->
<g id="edge2_Node000001_Node000003" class="edge">
<title>Node1&#45;&gt;Node3</title>
<g id="a_edge2_Node000001_Node000003"><a xlink:title=" ">
<path fill="none" stroke="#63b8ff" d="M345,-120.61C345,-110.58 345,-99.25 345,-89.96"/>
<polygon fill="#63b8ff" stroke="#63b8ff" points="348.5,-89.85 345,-79.85 341.5,-89.85 348.5,-89.85"/>
</a>
</g>
</g>
<!-- Node14 -->
<g id="Node000014" class="node">
<title>Node14</title>
<g id="a_Node000014"><a xlink:title=" ">
<polygon fill="#e0e0e0" stroke="#999999" points="574.5,-85 441.5,-85 441.5,-55 574.5,-55 574.5,-85"/>
<text text-anchor="start" x="449.5" y="-73" font-family="Helvetica,sans-Serif" font-size="10.00">rtvamp/pluginsdk/detail</text>
<text text-anchor="middle" x="508" y="-62" font-family="Helvetica,sans-Serif" font-size="10.00">/PluginAdapter.hpp</text>
</a>
</g>
</g>
<!-- Node1&#45;&gt;Node14 -->
<g id="edge13_Node000001_Node000014" class="edge">
<title>Node1&#45;&gt;Node14</title>
<g id="a_edge13_Node000001_Node000014"><a xlink:title=" ">
<path fill="none" stroke="#63b8ff" d="M399.73,-120.82C422.19,-110.48 447.69,-98.75 468.31,-89.26"/>
<polygon fill="#63b8ff" stroke="#63b8ff" points="469.79,-92.44 477.41,-85.08 466.86,-86.08 469.79,-92.44"/>
</a>
</g>
</g>
<!-- Node4 -->
<g id="Node000004" class="node">
<title>Node4</title>
<g id="a_Node000004"><a xlink:title=" ">
<polygon fill="#e0e0e0" stroke="#999999" points="42,-19 0,-19 0,0 42,0 42,-19"/>
<text text-anchor="middle" x="21" y="-7" font-family="Helvetica,sans-Serif" font-size="10.00">array</text>
</a>
</g>
</g>
<!-- Node3&#45;&gt;Node4 -->
<g id="edge3_Node000003_Node000004" class="edge">
<title>Node3&#45;&gt;Node4</title>
<g id="a_edge3_Node000003_Node000004"><a xlink:title=" ">
<path fill="none" stroke="#63b8ff" d="M292.87,-60.45C221.2,-48.65 96.79,-27.99 52.18,-18.95"/>
<polygon fill="#63b8ff" stroke="#63b8ff" points="52.74,-15.49 42.23,-16.82 51.28,-22.34 52.74,-15.49"/>
</a>
</g>
</g>
<!-- Node5 -->
<g id="Node000005" class="node">
<title>Node5</title>
<g id="a_Node000005"><a xlink:title=" ">
<polygon fill="#e0e0e0" stroke="#999999" points="119.5,-19 60.5,-19 60.5,0 119.5,0 119.5,-19"/>
<text text-anchor="middle" x="90" y="-7" font-family="Helvetica,sans-Serif" font-size="10.00">complex</text>
</a>
</g>
</g>
<!-- Node3&#45;&gt;Node5 -->
<g id="edge4_Node000003_Node000005" class="edge">
<title>Node3&#45;&gt;Node5</title>
<g id="a_edge4_Node000003_Node000005"><a xlink:title=" ">
<path fill="none" stroke="#63b8ff" d="M307.92,-60.49C260.33,-49.58 178.13,-30.72 129.43,-19.55"/>
<polygon fill="#63b8ff" stroke="#63b8ff" points="130.1,-16.11 119.57,-17.28 128.54,-22.93 130.1,-16.11"/>
</a>
</g>
</g>
<!-- Node6 -->
<g id="Node000006" class="node">
<title>Node6</title>
<g id="a_Node000006"><a xlink:title=" ">
<polygon fill="#e0e0e0" stroke="#999999" points="198,-19 138,-19 138,0 198,0 198,-19"/>
<text text-anchor="middle" x="168" y="-7" font-family="Helvetica,sans-Serif" font-size="10.00">concepts</text>
</a>
</g>
</g>
<!-- Node3&#45;&gt;Node6 -->
<g id="edge5_Node000003_Node000006" class="edge">
<title>Node3&#45;&gt;Node6</title>
<g id="a_edge5_Node000003_Node000006"><a xlink:title=" ">
<path fill="none" stroke="#63b8ff" d="M319.26,-60.49C288.72,-50.4 237.63,-33.51 203.38,-22.19"/>
<polygon fill="#63b8ff" stroke="#63b8ff" points="204.36,-18.83 193.77,-19.02 202.16,-25.48 204.36,-18.83"/>
</a>
</g>
</g>
<!-- Node7 -->
<g id="Node000007" class="node">
<title>Node7</title>
<g id="a_Node000007"><a xlink:title=" ">
<polygon fill="#e0e0e0" stroke="#999999" points="266,-19 216,-19 216,0 266,0 266,-19"/>
<text text-anchor="middle" x="241" y="-7" font-family="Helvetica,sans-Serif" font-size="10.00">cstdint</text>
</a>
</g>
</g>
<!-- Node3&#45;&gt;Node7 -->
<g id="edge6_Node000003_Node000007" class="edge">
<title>Node3&#45;&gt;Node7</title>
<g id="a_edge6_Node000003_Node000007"><a xlink:title=" ">
<path fill="none" stroke="#63b8ff" d="M329.65,-60.37C312.68,-50.82 285.1,-35.31 265.21,-24.12"/>
<polygon fill="#63b8ff" stroke="#63b8ff" points="266.84,-21.02 256.41,-19.17 263.41,-27.12 266.84,-21.02"/>
</a>
</g>
</g>
<!-- Node8 -->
<g id="Node000008" class="node">
<title>Node8</title>
<g id="a_Node000008"><a xlink:title=" ">
<polygon fill="#e0e0e0" stroke="#999999" points="340,-19 284,-19 284,0 340,0 340,-19"/>
<text text-anchor="middle" x="312" y="-7" font-family="Helvetica,sans-Serif" font-size="10.00">optional</text>
</a>
</g>
</g>
<!-- Node3&#45;&gt;Node8 -->
<g id="edge7_Node000003_Node000008" class="edge">
<title>Node3&#45;&gt;Node8</title>
<g id="a_edge7_Node000003_Node000008"><a xlink:title=" ">
<path fill="none" stroke="#63b8ff" d="M340.13,-60.37C335.35,-51.9 327.93,-38.74 321.91,-28.07"/>
<polygon fill="#63b8ff" stroke="#63b8ff" points="324.85,-26.16 316.89,-19.17 318.75,-29.6 324.85,-26.16"/>
</a>
</g>
</g>
<!-- Node9 -->
<g id="Node000009" class="node">
<title>Node9</title>
<g id="a_Node000009"><a xlink:title=" ">
<polygon fill="#e0e0e0" stroke="#999999" points="398,-19 358,-19 358,0 398,0 398,-19"/>
<text text-anchor="middle" x="378" y="-7" font-family="Helvetica,sans-Serif" font-size="10.00">span</text>
</a>
</g>
</g>
<!-- Node3&#45;&gt;Node9 -->
<g id="edge8_Node000003_Node000009" class="edge">
<title>Node3&#45;&gt;Node9</title>
<g id="a_edge8_Node000003_Node000009"><a xlink:title=" ">
<path fill="none" stroke="#63b8ff" d="M349.87,-60.37C354.65,-51.9 362.07,-38.74 368.09,-28.07"/>
<polygon fill="#63b8ff" stroke="#63b8ff" points="371.25,-29.6 373.11,-19.17 365.15,-26.16 371.25,-29.6"/>
</a>
</g>
</g>
<!-- Node10 -->
<g id="Node000010" class="node">
<title>Node10</title>
<g id="a_Node000010"><a xlink:title=" ">
<polygon fill="#e0e0e0" stroke="#999999" points="460,-19 416,-19 416,0 460,0 460,-19"/>
<text text-anchor="middle" x="438" y="-7" font-family="Helvetica,sans-Serif" font-size="10.00">string</text>
</a>
</g>
</g>
<!-- Node3&#45;&gt;Node10 -->
<g id="edge9_Node000003_Node000010" class="edge">
<title>Node3&#45;&gt;Node10</title>
<g id="a_edge9_Node000003_Node000010"><a xlink:title=" ">
<path fill="none" stroke="#63b8ff" d="M358.72,-60.37C373.7,-50.95 397.89,-35.73 415.62,-24.58"/>
<polygon fill="#63b8ff" stroke="#63b8ff" points="417.62,-27.45 424.22,-19.17 413.89,-21.53 417.62,-27.45"/>
</a>
</g>
</g>
<!-- Node11 -->
<g id="Node000011" class="node">
<title>Node11</title>
<g id="a_Node000011"><a xlink:title=" ">
<polygon fill="#e0e0e0" stroke="#999999" points="551.5,-19 478.5,-19 478.5,0 551.5,0 551.5,-19"/>
<text text-anchor="middle" x="515" y="-7" font-family="Helvetica,sans-Serif" font-size="10.00">string_view</text>
</a>
</g>
</g>
<!-- Node3&#45;&gt;Node11 -->
<g id="edge10_Node000003_Node000011" class="edge">
<title>Node3&#45;&gt;Node11</title>
<g id="a_edge10_Node000003_Node000011"><a xlink:title=" ">
<path fill="none" stroke="#63b8ff" d="M369.72,-60.49C398.93,-50.44 447.7,-33.66 480.59,-22.34"/>
<polygon fill="#63b8ff" stroke="#63b8ff" points="481.93,-25.58 490.25,-19.02 479.66,-18.96 481.93,-25.58"/>
</a>
</g>
</g>
<!-- Node12 -->
<g id="Node000012" class="node">
<title>Node12</title>
<g id="a_Node000012"><a xlink:title=" ">
<polygon fill="#e0e0e0" stroke="#999999" points="620.5,-19 569.5,-19 569.5,0 620.5,0 620.5,-19"/>
<text text-anchor="middle" x="595" y="-7" font-family="Helvetica,sans-Serif" font-size="10.00">variant</text>
</a>
</g>
</g>
<!-- Node3&#45;&gt;Node12 -->
<g id="edge11_Node000003_Node000012" class="edge">
<title>Node3&#45;&gt;Node12</title>
<g id="a_edge11_Node000003_Node000012"><a xlink:title=" ">
<path fill="none" stroke="#63b8ff" d="M382.9,-60.44C424.04,-51.1 491.95,-35.54 559.44,-19.35"/>
<polygon fill="#63b8ff" stroke="#63b8ff" points="560.49,-22.69 569.39,-16.95 558.85,-15.89 560.49,-22.69"/>
</a>
</g>
</g>
<!-- Node13 -->
<g id="Node000013" class="node">
<title>Node13</title>
<g id="a_Node000013"><a xlink:title=" ">
<polygon fill="#e0e0e0" stroke="#999999" points="685.5,-19 638.5,-19 638.5,0 685.5,0 685.5,-19"/>
<text text-anchor="middle" x="662" y="-7" font-family="Helvetica,sans-Serif" font-size="10.00">vector</text>
</a>
</g>
</g>
<!-- Node3&#45;&gt;Node13 -->
<g id="edge12_Node000003_Node000013" class="edge">
<title>Node3&#45;&gt;Node13</title>
<g id="a_edge12_Node000003_Node000013"><a xlink:title=" ">
<path fill="none" stroke="#63b8ff" d="M396.68,-60.48C462.21,-49.59 572.55,-30.94 628.5,-19.16"/>
<polygon fill="#63b8ff" stroke="#63b8ff" points="629.25,-22.57 638.29,-17.04 627.78,-15.73 629.25,-22.57"/>
</a>
</g>
</g>
</g>
</svg>
