<?xml version="1.0" encoding="UTF-8" standalone="no"?>
<!DOCTYPE svg PUBLIC "-//W3C//DTD SVG 1.1//EN"
 "http://www.w3.org/Graphics/SVG/1.1/DTD/svg11.dtd">
<!-- Generated by graphviz version 2.43.0 (0)
 -->
<!-- Title: /home/runner/work/rt&#45;vamp&#45;plugin&#45;sdk/rt&#45;vamp&#45;plugin&#45;sdk/hostsdk/include/rtvamp/hostsdk.hpp Pages: 1 -->
<svg width="722pt" height="229pt"
 viewBox="0.00 0.00 722.00 229.00" xmlns="http://www.w3.org/2000/svg" xmlns:xlink="http://www.w3.org/1999/xlink">
<g id="graph0" class="graph" transform="scale(1 1) rotate(0) translate(4 225)">
<title>/home/runner/work/rt&#45;vamp&#45;plugin&#45;sdk/rt&#45;vamp&#45;plugin&#45;sdk/hostsdk/include/rtvamp/hostsdk.hpp</title>
<!-- Node1 -->
<g id="node1" class="node">
<title>Node1</title>
<g id="a_node1"><a xlink:title=" ">
<polygon fill="#bfbfbf" stroke="black" points="280.5,-168.5 280.5,-220.5 431.5,-220.5 431.5,-168.5 280.5,-168.5"/>
<text text-anchor="start" x="288.5" y="-208.5" font-family="Helvetica,sans-Serif" font-size="10.00">/home/runner/work/rt</text>
<text text-anchor="start" x="288.5" y="-197.5" font-family="Helvetica,sans-Serif" font-size="10.00">&#45;vamp&#45;plugin&#45;sdk/rt&#45;vamp</text>
<text text-anchor="start" x="288.5" y="-186.5" font-family="Helvetica,sans-Serif" font-size="10.00">&#45;plugin&#45;sdk/hostsdk/include</text>
<text text-anchor="middle" x="356" y="-175.5" font-family="Helvetica,sans-Serif" font-size="10.00">/rtvamp/hostsdk.hpp</text>
</a>
</g>
</g>
<!-- Node2 -->
<g id="node2" class="node">
<title>Node2</title>
<g id="a_node2"><a xlink:title=" ">
<polygon fill="none" stroke="#bfbfbf" points="58,-0.5 58,-19.5 126,-19.5 126,-0.5 58,-0.5"/>
<text text-anchor="middle" x="92" y="-7.5" font-family="Helvetica,sans-Serif" font-size="10.00">filesystem</text>
</a>
</g>
</g>
<!-- Node1&#45;&gt;Node2 -->
<g id="edge1" class="edge">
<title>Node1&#45;&gt;Node2</title>
<path fill="none" stroke="midnightblue" d="M291.09,-168.41C244.65,-148.27 182.54,-116.66 137,-76 121.84,-62.47 109.16,-42.84 101.17,-28.7"/>
<polygon fill="midnightblue" stroke="midnightblue" points="104.05,-26.67 96.21,-19.54 97.89,-30 104.05,-26.67"/>
</g>
<!-- Node3 -->
<g id="node3" class="node">
<title>Node3</title>
<g id="a_node3"><a xlink:title=" ">
<polygon fill="none" stroke="#bfbfbf" points="656,-56.5 656,-75.5 714,-75.5 714,-56.5 656,-56.5"/>
<text text-anchor="middle" x="685" y="-63.5" font-family="Helvetica,sans-Serif" font-size="10.00">memory</text>
</a>
</g>
</g>
<!-- Node1&#45;&gt;Node3 -->
<g id="edge2" class="edge">
<title>Node1&#45;&gt;Node3</title>
<path fill="none" stroke="midnightblue" d="M431.65,-180.28C478.35,-170.49 538.73,-154.85 589,-132 618.26,-118.7 648.38,-96.7 666.89,-82.03"/>
<polygon fill="midnightblue" stroke="midnightblue" points="669.18,-84.67 674.77,-75.67 664.79,-79.23 669.18,-84.67"/>
</g>
<!-- Node4 -->
<g id="node4" class="node">
<title>Node4</title>
<g id="a_node4"><a xlink:title=" ">
<polygon fill="none" stroke="#bfbfbf" points="0,-0.5 0,-19.5 40,-19.5 40,-0.5 0,-0.5"/>
<text text-anchor="middle" x="20" y="-7.5" font-family="Helvetica,sans-Serif" font-size="10.00">span</text>
</a>
</g>
</g>
<!-- Node1&#45;&gt;Node4 -->
<g id="edge3" class="edge">
<title>Node1&#45;&gt;Node4</title>
<path fill="none" stroke="midnightblue" d="M280.32,-171.75C249.56,-161.57 214.23,-148.1 184,-132 126.02,-101.11 65.87,-51.38 37.2,-26.38"/>
<polygon fill="midnightblue" stroke="midnightblue" points="39.48,-23.73 29.67,-19.75 34.86,-28.98 39.48,-23.73"/>
</g>
<!-- Node5 -->
<g id="node5" class="node">
<title>Node5</title>
<g id="a_node5"><a xlink:title=" ">
<polygon fill="none" stroke="#bfbfbf" points="432.5,-0.5 432.5,-19.5 479.5,-19.5 479.5,-0.5 432.5,-0.5"/>
<text text-anchor="middle" x="456" y="-7.5" font-family="Helvetica,sans-Serif" font-size="10.00">vector</text>
</a>
</g>
</g>
<!-- Node1&#45;&gt;Node5 -->
<g id="edge4" class="edge">
<title>Node1&#45;&gt;Node5</title>
<path fill="none" stroke="midnightblue" d="M358.92,-168.28C361.54,-151.66 366.36,-129.77 375,-112 391.51,-78.04 421.23,-45.15 439.72,-26.56"/>
<polygon fill="midnightblue" stroke="midnightblue" points="442.21,-29.02 446.88,-19.5 437.3,-24.03 442.21,-29.02"/>
</g>
<!-- Node6 -->
<g id="node6" class="node">
<title>Node6</title>
<g id="a_node6"><a xlink:href="hostsdk_2include_2rtvamp_2hostsdk_2Plugin_8hpp.html" target="_top" xlink:title=" ">
<polygon fill="none" stroke="black" points="180.5,-56.5 180.5,-75.5 327.5,-75.5 327.5,-56.5 180.5,-56.5"/>
<text text-anchor="middle" x="254" y="-63.5" font-family="Helvetica,sans-Serif" font-size="10.00">rtvamp/hostsdk/Plugin.hpp</text>
</a>
</g>
</g>
<!-- Node1&#45;&gt;Node6 -->
<g id="edge5" class="edge">
<title>Node1&#45;&gt;Node6</title>
<path fill="none" stroke="midnightblue" d="M335.6,-168.2C315.27,-142.98 284.63,-104.98 267.26,-83.44"/>
<polygon fill="midnightblue" stroke="midnightblue" points="269.9,-81.14 260.89,-75.55 264.45,-85.53 269.9,-81.14"/>
</g>
<!-- Node12 -->
<g id="node12" class="node">
<title>Node12</title>
<g id="a_node12"><a xlink:href="PluginKey_8hpp.html" target="_top" xlink:title=" ">
<polygon fill="none" stroke="black" points="436,-56.5 436,-75.5 600,-75.5 600,-56.5 436,-56.5"/>
<text text-anchor="middle" x="518" y="-63.5" font-family="Helvetica,sans-Serif" font-size="10.00">rtvamp/hostsdk/PluginKey.hpp</text>
</a>
</g>
</g>
<!-- Node1&#45;&gt;Node12 -->
<g id="edge14" class="edge">
<title>Node1&#45;&gt;Node12</title>
<path fill="none" stroke="midnightblue" d="M431.65,-181.93C487.14,-171.71 555.7,-154.88 573,-132 586.82,-113.72 563.72,-93.74 543.36,-80.82"/>
<polygon fill="midnightblue" stroke="midnightblue" points="545,-77.72 534.63,-75.58 541.4,-83.73 545,-77.72"/>
</g>
<!-- Node14 -->
<g id="node14" class="node">
<title>Node14</title>
<g id="a_node14"><a xlink:href="PluginLibrary_8hpp.html" target="_top" xlink:title=" ">
<polygon fill="none" stroke="black" points="384.5,-112.5 384.5,-131.5 563.5,-131.5 563.5,-112.5 384.5,-112.5"/>
<text text-anchor="middle" x="474" y="-119.5" font-family="Helvetica,sans-Serif" font-size="10.00">rtvamp/hostsdk/PluginLibrary.hpp</text>
</a>
</g>
</g>
<!-- Node1&#45;&gt;Node14 -->
<g id="edge17" class="edge">
<title>Node1&#45;&gt;Node14</title>
<path fill="none" stroke="midnightblue" d="M397.93,-168.45C415.82,-157.76 435.99,-145.71 451.07,-136.7"/>
<polygon fill="midnightblue" stroke="midnightblue" points="452.94,-139.66 459.73,-131.53 449.35,-133.65 452.94,-139.66"/>
</g>
<!-- Node6&#45;&gt;Node2 -->
<g id="edge8" class="edge">
<title>Node6&#45;&gt;Node2</title>
<path fill="none" stroke="midnightblue" d="M228.33,-56.44C201.08,-47.36 157.82,-32.94 127.35,-22.78"/>
<polygon fill="midnightblue" stroke="midnightblue" points="128.14,-19.36 117.55,-19.52 125.93,-26 128.14,-19.36"/>
</g>
<!-- Node6&#45;&gt;Node4 -->
<g id="edge10" class="edge">
<title>Node6&#45;&gt;Node4</title>
<path fill="none" stroke="midnightblue" d="M210.15,-56.5C170.58,-48.57 110.61,-35.94 49.96,-20.09"/>
<polygon fill="midnightblue" stroke="midnightblue" points="50.78,-16.68 40.22,-17.51 48.99,-23.45 50.78,-16.68"/>
</g>
<!-- Node6&#45;&gt;Node5 -->
<g id="edge13" class="edge">
<title>Node6&#45;&gt;Node5</title>
<path fill="none" stroke="midnightblue" d="M286.41,-56.43C318.45,-47.95 369.13,-34.49 422.26,-20.19"/>
<polygon fill="midnightblue" stroke="midnightblue" points="423.47,-23.49 432.21,-17.51 421.65,-16.73 423.47,-23.49"/>
</g>
<!-- Node7 -->
<g id="node7" class="node">
<title>Node7</title>
<g id="a_node7"><a xlink:title=" ">
<polygon fill="none" stroke="#bfbfbf" points="355.5,-0.5 355.5,-19.5 414.5,-19.5 414.5,-0.5 355.5,-0.5"/>
<text text-anchor="middle" x="385" y="-7.5" font-family="Helvetica,sans-Serif" font-size="10.00">complex</text>
</a>
</g>
</g>
<!-- Node6&#45;&gt;Node7 -->
<g id="edge6" class="edge">
<title>Node6&#45;&gt;Node7</title>
<path fill="none" stroke="midnightblue" d="M274.76,-56.44C296.32,-47.56 330.26,-33.56 354.79,-23.45"/>
<polygon fill="midnightblue" stroke="midnightblue" points="356.43,-26.56 364.34,-19.52 353.76,-20.09 356.43,-26.56"/>
</g>
<!-- Node8 -->
<g id="node8" class="node">
<title>Node8</title>
<g id="a_node8"><a xlink:title=" ">
<polygon fill="none" stroke="#bfbfbf" points="144,-0.5 144,-19.5 194,-19.5 194,-0.5 144,-0.5"/>
<text text-anchor="middle" x="169" y="-7.5" font-family="Helvetica,sans-Serif" font-size="10.00">cstdint</text>
</a>
</g>
</g>
<!-- Node6&#45;&gt;Node8 -->
<g id="edge7" class="edge">
<title>Node6&#45;&gt;Node8</title>
<path fill="none" stroke="midnightblue" d="M240.34,-56.32C227.08,-47.9 206.73,-34.97 191.15,-25.07"/>
<polygon fill="midnightblue" stroke="midnightblue" points="192.94,-22.06 182.62,-19.65 189.19,-27.97 192.94,-22.06"/>
</g>
<!-- Node9 -->
<g id="node9" class="node">
<title>Node9</title>
<g id="a_node9"><a xlink:title=" ">
<polygon fill="none" stroke="#bfbfbf" points="212,-0.5 212,-19.5 268,-19.5 268,-0.5 212,-0.5"/>
<text text-anchor="middle" x="240" y="-7.5" font-family="Helvetica,sans-Serif" font-size="10.00">optional</text>
</a>
</g>
</g>
<!-- Node6&#45;&gt;Node9 -->
<g id="edge9" class="edge">
<title>Node6&#45;&gt;Node9</title>
<path fill="none" stroke="midnightblue" d="M251.69,-56.08C249.83,-48.93 247.16,-38.64 244.85,-29.69"/>
<polygon fill="midnightblue" stroke="midnightblue" points="248.17,-28.55 242.27,-19.75 241.39,-30.31 248.17,-28.55"/>
</g>
<!-- Node10 -->
<g id="node10" class="node">
<title>Node10</title>
<g id="a_node10"><a xlink:title=" ">
<polygon fill="none" stroke="#bfbfbf" points="497.5,-0.5 497.5,-19.5 570.5,-19.5 570.5,-0.5 497.5,-0.5"/>
<text text-anchor="middle" x="534" y="-7.5" font-family="Helvetica,sans-Serif" font-size="10.00">string_view</text>
</a>
</g>
</g>
<!-- Node6&#45;&gt;Node10 -->
<g id="edge11" class="edge">
<title>Node6&#45;&gt;Node10</title>
<path fill="none" stroke="midnightblue" d="M298.43,-56.5C343.39,-47.89 415.19,-34.11 487.19,-20.15"/>
<polygon fill="midnightblue" stroke="midnightblue" points="488.19,-23.52 497.34,-18.18 486.86,-16.65 488.19,-23.52"/>
</g>
<!-- Node11 -->
<g id="node11" class="node">
<title>Node11</title>
<g id="a_node11"><a xlink:title=" ">
<polygon fill="none" stroke="#bfbfbf" points="286.5,-0.5 286.5,-19.5 337.5,-19.5 337.5,-0.5 286.5,-0.5"/>
<text text-anchor="middle" x="312" y="-7.5" font-family="Helvetica,sans-Serif" font-size="10.00">variant</text>
</a>
</g>
</g>
<!-- Node6&#45;&gt;Node11 -->
<g id="edge12" class="edge">
<title>Node6&#45;&gt;Node11</title>
<path fill="none" stroke="midnightblue" d="M263.32,-56.32C271.89,-48.34 284.81,-36.31 295.19,-26.65"/>
<polygon fill="midnightblue" stroke="midnightblue" points="297.58,-29.21 302.51,-19.83 292.81,-24.09 297.58,-29.21"/>
</g>
<!-- Node12&#45;&gt;Node10 -->
<g id="edge16" class="edge">
<title>Node12&#45;&gt;Node10</title>
<path fill="none" stroke="midnightblue" d="M520.64,-56.08C522.79,-48.85 525.88,-38.41 528.55,-29.4"/>
<polygon fill="midnightblue" stroke="midnightblue" points="531.92,-30.33 531.41,-19.75 525.21,-28.34 531.92,-30.33"/>
</g>
<!-- Node13 -->
<g id="node13" class="node">
<title>Node13</title>
<g id="a_node13"><a xlink:title=" ">
<polygon fill="none" stroke="#bfbfbf" points="598,-0.5 598,-19.5 642,-19.5 642,-0.5 598,-0.5"/>
<text text-anchor="middle" x="620" y="-7.5" font-family="Helvetica,sans-Serif" font-size="10.00">string</text>
</a>
</g>
</g>
<!-- Node12&#45;&gt;Node13 -->
<g id="edge15" class="edge">
<title>Node12&#45;&gt;Node13</title>
<path fill="none" stroke="midnightblue" d="M534.39,-56.32C550.67,-47.7 575.87,-34.36 594.72,-24.39"/>
<polygon fill="midnightblue" stroke="midnightblue" points="596.45,-27.43 603.65,-19.65 593.18,-21.24 596.45,-27.43"/>
</g>
<!-- Node14&#45;&gt;Node2 -->
<g id="edge18" class="edge">
<title>Node14&#45;&gt;Node2</title>
<path fill="none" stroke="midnightblue" d="M384.32,-120.2C322.08,-116.69 238.56,-106 171,-76 145.53,-64.69 121.6,-42.82 106.89,-27.58"/>
<polygon fill="midnightblue" stroke="midnightblue" points="109.1,-24.83 99.72,-19.91 103.99,-29.61 109.1,-24.83"/>
</g>
<!-- Node14&#45;&gt;Node3 -->
<g id="edge19" class="edge">
<title>Node14&#45;&gt;Node3</title>
<path fill="none" stroke="midnightblue" d="M507.43,-112.44C545.06,-102.81 606.12,-87.19 645.92,-77"/>
<polygon fill="midnightblue" stroke="midnightblue" points="646.98,-80.34 655.8,-74.47 645.24,-73.56 646.98,-80.34"/>
</g>
<!-- Node14&#45;&gt;Node5 -->
<g id="edge21" class="edge">
<title>Node14&#45;&gt;Node5</title>
<path fill="none" stroke="midnightblue" d="M459.92,-112.26C448.65,-104.35 433.65,-91.58 427,-76 419.91,-59.41 430.35,-40.6 440.62,-27.5"/>
<polygon fill="midnightblue" stroke="midnightblue" points="443.35,-29.68 447.16,-19.79 438.02,-25.15 443.35,-29.68"/>
</g>
<!-- Node14&#45;&gt;Node6 -->
<g id="edge22" class="edge">
<title>Node14&#45;&gt;Node6</title>
<path fill="none" stroke="midnightblue" d="M439.14,-112.44C401.08,-103.1 340.04,-88.12 298.54,-77.93"/>
<polygon fill="midnightblue" stroke="midnightblue" points="299.24,-74.5 288.7,-75.52 297.57,-81.3 299.24,-74.5"/>
</g>
<!-- Node14&#45;&gt;Node12 -->
<g id="edge23" class="edge">
<title>Node14&#45;&gt;Node12</title>
<path fill="none" stroke="midnightblue" d="M481.27,-112.08C487.54,-104.38 496.79,-93.03 504.43,-83.65"/>
<polygon fill="midnightblue" stroke="midnightblue" points="507.27,-85.71 510.87,-75.75 501.84,-81.29 507.27,-85.71"/>
</g>
<!-- Node14&#45;&gt;Node13 -->
<g id="edge20" class="edge">
<title>Node14&#45;&gt;Node13</title>
<path fill="none" stroke="midnightblue" d="M544.34,-112.42C568.09,-106.06 592.69,-95.04 609,-76 619.81,-63.38 621.9,-44.17 621.68,-29.9"/>
<polygon fill="midnightblue" stroke="midnightblue" points="625.16,-29.53 621.13,-19.74 618.17,-29.91 625.16,-29.53"/>
</g>
</g>
</svg>
