<?xml version="1.0" encoding="UTF-8" standalone="no"?>
<!DOCTYPE svg PUBLIC "-//W3C//DTD SVG 1.1//EN"
 "http://www.w3.org/Graphics/SVG/1.1/DTD/svg11.dtd">
<!-- Generated by graphviz version 2.43.0 (0)
 -->
<!-- Title: /home/runner/work/rt&#45;vamp&#45;plugin&#45;sdk/rt&#45;vamp&#45;plugin&#45;sdk/hostsdk/include/rtvamp/hostsdk.hpp Pages: 1 -->
<svg width="722pt" height="225pt"
 viewBox="0.00 0.00 722.00 225.00" xmlns="http://www.w3.org/2000/svg" xmlns:xlink="http://www.w3.org/1999/xlink">
<g id="graph0" class="graph" transform="scale(1 1) rotate(0) translate(4 221)">
<title>/home/runner/work/rt&#45;vamp&#45;plugin&#45;sdk/rt&#45;vamp&#45;plugin&#45;sdk/hostsdk/include/rtvamp/hostsdk.hpp</title>
<!-- Node1 -->
<g id="Node000001" class="node">
<title>Node1</title>
<g id="a_Node000001"><a xlink:title=" ">
<polygon fill="#999999" stroke="#666666" points="431.5,-217 280.5,-217 280.5,-165 431.5,-165 431.5,-217"/>
<text text-anchor="start" x="288.5" y="-205" font-family="Helvetica,sans-Serif" font-size="10.00">/home/runner/work/rt</text>
<text text-anchor="start" x="288.5" y="-194" font-family="Helvetica,sans-Serif" font-size="10.00">&#45;vamp&#45;plugin&#45;sdk/rt&#45;vamp</text>
<text text-anchor="start" x="288.5" y="-183" font-family="Helvetica,sans-Serif" font-size="10.00">&#45;plugin&#45;sdk/hostsdk/include</text>
<text text-anchor="middle" x="356" y="-172" font-family="Helvetica,sans-Serif" font-size="10.00">/rtvamp/hostsdk.hpp</text>
</a>
</g>
</g>
<!-- Node2 -->
<g id="Node000002" class="node">
<title>Node2</title>
<g id="a_Node000002"><a xlink:title=" ">
<polygon fill="#e0e0e0" stroke="#999999" points="126,-19 58,-19 58,0 126,0 126,-19"/>
<text text-anchor="middle" x="92" y="-7" font-family="Helvetica,sans-Serif" font-size="10.00">filesystem</text>
</a>
</g>
</g>
<!-- Node1&#45;&gt;Node2 -->
<g id="edge1_Node000001_Node000002" class="edge">
<title>Node1&#45;&gt;Node2</title>
<g id="a_edge1_Node000001_Node000002"><a xlink:title=" ">
<path fill="none" stroke="#63b8ff" d="M290.23,-164.83C243.95,-144.94 182.42,-113.89 137,-74 122.13,-60.94 109.55,-42.04 101.5,-28.26"/>
<polygon fill="#63b8ff" stroke="#63b8ff" points="104.41,-26.3 96.47,-19.28 98.31,-29.72 104.41,-26.3"/>
</a>
</g>
</g>
<!-- Node3 -->
<g id="Node000003" class="node">
<title>Node3</title>
<g id="a_Node000003"><a xlink:title=" ">
<polygon fill="#e0e0e0" stroke="#999999" points="714,-74 656,-74 656,-55 714,-55 714,-74"/>
<text text-anchor="middle" x="685" y="-62" font-family="Helvetica,sans-Serif" font-size="10.00">memory</text>
</a>
</g>
</g>
<!-- Node1&#45;&gt;Node3 -->
<g id="edge2_Node000001_Node000003" class="edge">
<title>Node1&#45;&gt;Node3</title>
<g id="a_edge2_Node000001_Node000003"><a xlink:title=" ">
<path fill="none" stroke="#63b8ff" d="M431.57,-176.78C478.23,-167.03 538.61,-151.52 589,-129 617.98,-116.05 647.96,-94.72 666.54,-80.4"/>
<polygon fill="#63b8ff" stroke="#63b8ff" points="668.75,-83.11 674.46,-74.18 664.43,-77.6 668.75,-83.11"/>
</a>
</g>
</g>
<!-- Node4 -->
<g id="Node000004" class="node">
<title>Node4</title>
<g id="a_Node000004"><a xlink:title=" ">
<polygon fill="#e0e0e0" stroke="#999999" points="40,-19 0,-19 0,0 40,0 40,-19"/>
<text text-anchor="middle" x="20" y="-7" font-family="Helvetica,sans-Serif" font-size="10.00">span</text>
</a>
</g>
</g>
<!-- Node1&#45;&gt;Node4 -->
<g id="edge3_Node000001_Node000004" class="edge">
<title>Node1&#45;&gt;Node4</title>
<g id="a_edge3_Node000001_Node000004"><a xlink:title=" ">
<path fill="none" stroke="#63b8ff" d="M280.39,-168.35C249.65,-158.24 214.3,-144.9 184,-129 126.5,-98.82 66.52,-50.43 37.63,-25.87"/>
<polygon fill="#63b8ff" stroke="#63b8ff" points="39.56,-22.92 29.7,-19.06 35,-28.23 39.56,-22.92"/>
</a>
</g>
</g>
<!-- Node5 -->
<g id="Node000005" class="node">
<title>Node5</title>
<g id="a_Node000005"><a xlink:title=" ">
<polygon fill="#e0e0e0" stroke="#999999" points="479.5,-19 432.5,-19 432.5,0 479.5,0 479.5,-19"/>
<text text-anchor="middle" x="456" y="-7" font-family="Helvetica,sans-Serif" font-size="10.00">vector</text>
</a>
</g>
</g>
<!-- Node1&#45;&gt;Node5 -->
<g id="edge4_Node000001_Node000005" class="edge">
<title>Node1&#45;&gt;Node5</title>
<g id="a_edge4_Node000001_Node000005"><a xlink:title=" ">
<path fill="none" stroke="#63b8ff" d="M359.01,-164.86C361.66,-148.59 366.48,-127.28 375,-110 391.47,-76.61 420.96,-44.41 439.44,-26.08"/>
<polygon fill="#63b8ff" stroke="#63b8ff" points="441.89,-28.58 446.63,-19.11 437.01,-23.56 441.89,-28.58"/>
</a>
</g>
</g>
<!-- Node6 -->
<g id="Node000006" class="node">
<title>Node6</title>
<g id="a_Node000006"><a xlink:href="hostsdk_2include_2rtvamp_2hostsdk_2Plugin_8hpp.html" target="_top" xlink:title=" ">
<polygon fill="white" stroke="#666666" points="327.5,-74 180.5,-74 180.5,-55 327.5,-55 327.5,-74"/>
<text text-anchor="middle" x="254" y="-62" font-family="Helvetica,sans-Serif" font-size="10.00">rtvamp/hostsdk/Plugin.hpp</text>
</a>
</g>
</g>
<!-- Node1&#45;&gt;Node6 -->
<g id="edge5_Node000001_Node000006" class="edge">
<title>Node1&#45;&gt;Node6</title>
<g id="a_edge5_Node000001_Node000006"><a xlink:title=" ">
<path fill="none" stroke="#63b8ff" d="M335.36,-164.81C315.1,-140.08 284.79,-103.08 267.45,-81.92"/>
<polygon fill="#63b8ff" stroke="#63b8ff" points="270.13,-79.67 261.09,-74.15 264.72,-84.1 270.13,-79.67"/>
</a>
</g>
</g>
<!-- Node12 -->
<g id="Node000012" class="node">
<title>Node12</title>
<g id="a_Node000012"><a xlink:href="PluginKey_8hpp.html" target="_top" xlink:title=" ">
<polygon fill="white" stroke="#666666" points="600,-74 436,-74 436,-55 600,-55 600,-74"/>
<text text-anchor="middle" x="518" y="-62" font-family="Helvetica,sans-Serif" font-size="10.00">rtvamp/hostsdk/PluginKey.hpp</text>
</a>
</g>
</g>
<!-- Node1&#45;&gt;Node12 -->
<g id="edge14_Node000001_Node000012" class="edge">
<title>Node1&#45;&gt;Node12</title>
<g id="a_edge14_Node000001_Node000012"><a xlink:title=" ">
<path fill="none" stroke="#63b8ff" d="M431.64,-178.61C487.13,-168.52 555.69,-151.85 573,-129 586.58,-111.08 563.85,-91.71 543.62,-79.14"/>
<polygon fill="#63b8ff" stroke="#63b8ff" points="545.33,-76.08 534.93,-74.03 541.78,-82.12 545.33,-76.08"/>
</a>
</g>
</g>
<!-- Node14 -->
<g id="Node000014" class="node">
<title>Node14</title>
<g id="a_Node000014"><a xlink:href="PluginLibrary_8hpp.html" target="_top" xlink:title=" ">
<polygon fill="white" stroke="#666666" points="563.5,-129 384.5,-129 384.5,-110 563.5,-110 563.5,-129"/>
<text text-anchor="middle" x="474" y="-117" font-family="Helvetica,sans-Serif" font-size="10.00">rtvamp/hostsdk/PluginLibrary.hpp</text>
</a>
</g>
</g>
<!-- Node1&#45;&gt;Node14 -->
<g id="edge17_Node000001_Node000014" class="edge">
<title>Node1&#45;&gt;Node14</title>
<g id="a_edge17_Node000001_Node000014"><a xlink:title=" ">
<path fill="none" stroke="#63b8ff" d="M398.6,-164.91C416.04,-154.64 435.55,-143.15 450.36,-134.43"/>
<polygon fill="#63b8ff" stroke="#63b8ff" points="452.5,-137.23 459.34,-129.14 448.95,-131.19 452.5,-137.23"/>
</a>
</g>
</g>
<!-- Node6&#45;&gt;Node2 -->
<g id="edge8_Node000006_Node000002" class="edge">
<title>Node6&#45;&gt;Node2</title>
<g id="a_edge8_Node000006_Node000002"><a xlink:title=" ">
<path fill="none" stroke="#63b8ff" d="M227.97,-54.98C200.89,-46.13 158.29,-32.19 127.99,-22.28"/>
<polygon fill="#63b8ff" stroke="#63b8ff" points="128.82,-18.87 118.23,-19.08 126.65,-25.52 128.82,-18.87"/>
</a>
</g>
</g>
<!-- Node6&#45;&gt;Node4 -->
<g id="edge10_Node000006_Node000004" class="edge">
<title>Node6&#45;&gt;Node4</title>
<g id="a_edge10_Node000006_Node000004"><a xlink:title=" ">
<path fill="none" stroke="#63b8ff" d="M210.2,-54.93C170.66,-46.99 110.71,-34.43 49.98,-19.11"/>
<polygon fill="#63b8ff" stroke="#63b8ff" points="50.79,-15.7 40.23,-16.63 49.06,-22.49 50.79,-15.7"/>
</a>
</g>
</g>
<!-- Node6&#45;&gt;Node5 -->
<g id="edge13_Node000006_Node000005" class="edge">
<title>Node6&#45;&gt;Node5</title>
<g id="a_edge13_Node000006_Node000005"><a xlink:title=" ">
<path fill="none" stroke="#63b8ff" d="M286.45,-54.98C323.77,-45.2 384.7,-29.21 422.46,-19.3"/>
<polygon fill="#63b8ff" stroke="#63b8ff" points="423.68,-22.6 432.46,-16.68 421.9,-15.83 423.68,-22.6"/>
</a>
</g>
</g>
<!-- Node7 -->
<g id="Node000007" class="node">
<title>Node7</title>
<g id="a_Node000007"><a xlink:title=" ">
<polygon fill="#e0e0e0" stroke="#999999" points="414.5,-19 355.5,-19 355.5,0 414.5,0 414.5,-19"/>
<text text-anchor="middle" x="385" y="-7" font-family="Helvetica,sans-Serif" font-size="10.00">complex</text>
</a>
</g>
</g>
<!-- Node6&#45;&gt;Node7 -->
<g id="edge6_Node000006_Node000007" class="edge">
<title>Node6&#45;&gt;Node7</title>
<g id="a_edge6_Node000006_Node000007"><a xlink:title=" ">
<path fill="none" stroke="#63b8ff" d="M275.05,-54.98C296.41,-46.34 329.7,-32.87 354.06,-23.02"/>
<polygon fill="#63b8ff" stroke="#63b8ff" points="355.61,-26.17 363.57,-19.17 352.99,-19.68 355.61,-26.17"/>
</a>
</g>
</g>
<!-- Node8 -->
<g id="Node000008" class="node">
<title>Node8</title>
<g id="a_Node000008"><a xlink:title=" ">
<polygon fill="#e0e0e0" stroke="#999999" points="194,-19 144,-19 144,0 194,0 194,-19"/>
<text text-anchor="middle" x="169" y="-7" font-family="Helvetica,sans-Serif" font-size="10.00">cstdint</text>
</a>
</g>
</g>
<!-- Node6&#45;&gt;Node8 -->
<g id="edge7_Node000006_Node000008" class="edge">
<title>Node6&#45;&gt;Node8</title>
<g id="a_edge7_Node000006_Node000008"><a xlink:title=" ">
<path fill="none" stroke="#63b8ff" d="M240.34,-54.98C227.16,-46.77 206.97,-34.18 191.43,-24.49"/>
<polygon fill="#63b8ff" stroke="#63b8ff" points="193.24,-21.49 182.91,-19.17 189.54,-27.43 193.24,-21.49"/>
</a>
</g>
</g>
<!-- Node9 -->
<g id="Node000009" class="node">
<title>Node9</title>
<g id="a_Node000009"><a xlink:title=" ">
<polygon fill="#e0e0e0" stroke="#999999" points="268,-19 212,-19 212,0 268,0 268,-19"/>
<text text-anchor="middle" x="240" y="-7" font-family="Helvetica,sans-Serif" font-size="10.00">optional</text>
</a>
</g>
</g>
<!-- Node6&#45;&gt;Node9 -->
<g id="edge9_Node000006_Node000009" class="edge">
<title>Node6&#45;&gt;Node9</title>
<g id="a_edge9_Node000006_Node000009"><a xlink:title=" ">
<path fill="none" stroke="#63b8ff" d="M251.69,-54.75C249.83,-47.72 247.16,-37.62 244.85,-28.84"/>
<polygon fill="#63b8ff" stroke="#63b8ff" points="248.21,-27.86 242.27,-19.09 241.44,-29.65 248.21,-27.86"/>
</a>
</g>
</g>
<!-- Node10 -->
<g id="Node000010" class="node">
<title>Node10</title>
<g id="a_Node000010"><a xlink:title=" ">
<polygon fill="#e0e0e0" stroke="#999999" points="570.5,-19 497.5,-19 497.5,0 570.5,0 570.5,-19"/>
<text text-anchor="middle" x="534" y="-7" font-family="Helvetica,sans-Serif" font-size="10.00">string_view</text>
</a>
</g>
</g>
<!-- Node6&#45;&gt;Node10 -->
<g id="edge11_Node000006_Node000010" class="edge">
<title>Node6&#45;&gt;Node10</title>
<g id="a_edge11_Node000006_Node000010"><a xlink:title=" ">
<path fill="none" stroke="#63b8ff" d="M298.99,-54.98C350.58,-45.22 434.77,-29.28 487.14,-19.37"/>
<polygon fill="#63b8ff" stroke="#63b8ff" points="488,-22.77 497.17,-17.47 486.69,-15.89 488,-22.77"/>
</a>
</g>
</g>
<!-- Node11 -->
<g id="Node000011" class="node">
<title>Node11</title>
<g id="a_Node000011"><a xlink:title=" ">
<polygon fill="#e0e0e0" stroke="#999999" points="337.5,-19 286.5,-19 286.5,0 337.5,0 337.5,-19"/>
<text text-anchor="middle" x="312" y="-7" font-family="Helvetica,sans-Serif" font-size="10.00">variant</text>
</a>
</g>
</g>
<!-- Node6&#45;&gt;Node11 -->
<g id="edge12_Node000006_Node000011" class="edge">
<title>Node6&#45;&gt;Node11</title>
<g id="a_edge12_Node000006_Node000011"><a xlink:title=" ">
<path fill="none" stroke="#63b8ff" d="M263.32,-54.98C271.81,-47.23 284.56,-35.58 294.88,-26.14"/>
<polygon fill="#63b8ff" stroke="#63b8ff" points="297.49,-28.5 302.51,-19.17 292.77,-23.33 297.49,-28.5"/>
</a>
</g>
</g>
<!-- Node12&#45;&gt;Node10 -->
<g id="edge16_Node000012_Node000010" class="edge">
<title>Node12&#45;&gt;Node10</title>
<g id="a_edge16_Node000012_Node000010"><a xlink:title=" ">
<path fill="none" stroke="#63b8ff" d="M520.64,-54.75C522.76,-47.72 525.81,-37.62 528.46,-28.84"/>
<polygon fill="#63b8ff" stroke="#63b8ff" points="531.87,-29.67 531.41,-19.09 525.17,-27.65 531.87,-29.67"/>
</a>
</g>
</g>
<!-- Node13 -->
<g id="Node000013" class="node">
<title>Node13</title>
<g id="a_Node000013"><a xlink:title=" ">
<polygon fill="#e0e0e0" stroke="#999999" points="642,-19 598,-19 598,0 642,0 642,-19"/>
<text text-anchor="middle" x="620" y="-7" font-family="Helvetica,sans-Serif" font-size="10.00">string</text>
</a>
</g>
</g>
<!-- Node12&#45;&gt;Node13 -->
<g id="edge15_Node000012_Node000013" class="edge">
<title>Node12&#45;&gt;Node13</title>
<g id="a_edge15_Node000012_Node000013"><a xlink:title=" ">
<path fill="none" stroke="#63b8ff" d="M534.39,-54.98C550.57,-46.57 575.57,-33.59 594.38,-23.81"/>
<polygon fill="#63b8ff" stroke="#63b8ff" points="596.05,-26.89 603.31,-19.17 592.83,-20.68 596.05,-26.89"/>
</a>
</g>
</g>
<!-- Node14&#45;&gt;Node2 -->
<g id="edge18_Node000014_Node000002" class="edge">
<title>Node14&#45;&gt;Node2</title>
<g id="a_edge18_Node000014_Node000002"><a xlink:title=" ">
<path fill="none" stroke="#63b8ff" d="M384.43,-117.63C322.24,-114.14 238.74,-103.56 171,-74 145.69,-62.96 121.72,-41.59 106.96,-26.71"/>
<polygon fill="#63b8ff" stroke="#63b8ff" points="109.21,-24 99.76,-19.21 104.17,-28.85 109.21,-24"/>
</a>
</g>
</g>
<!-- Node14&#45;&gt;Node3 -->
<g id="edge19_Node000014_Node000003" class="edge">
<title>Node14&#45;&gt;Node3</title>
<g id="a_edge19_Node000014_Node000003"><a xlink:title=" ">
<path fill="none" stroke="#63b8ff" d="M507.9,-109.98C545.62,-100.51 606.47,-85.23 646.1,-75.27"/>
<polygon fill="#63b8ff" stroke="#63b8ff" points="647.09,-78.63 655.94,-72.8 645.39,-71.84 647.09,-78.63"/>
</a>
</g>
</g>
<!-- Node14&#45;&gt;Node5 -->
<g id="edge21_Node000014_Node000005" class="edge">
<title>Node14&#45;&gt;Node5</title>
<g id="a_edge21_Node000014_Node000005"><a xlink:title=" ">
<path fill="none" stroke="#63b8ff" d="M459.93,-109.89C448.65,-102.1 433.66,-89.48 427,-74 420.07,-57.9 430.23,-39.72 440.38,-26.96"/>
<polygon fill="#63b8ff" stroke="#63b8ff" points="443.3,-28.93 447.19,-19.07 438,-24.35 443.3,-28.93"/>
</a>
</g>
</g>
<!-- Node14&#45;&gt;Node6 -->
<g id="edge22_Node000014_Node000006" class="edge">
<title>Node14&#45;&gt;Node6</title>
<g id="a_edge22_Node000014_Node000006"><a xlink:title=" ">
<path fill="none" stroke="#63b8ff" d="M438.65,-109.98C400.84,-100.87 340.74,-86.4 299.43,-76.45"/>
<polygon fill="#63b8ff" stroke="#63b8ff" points="300.17,-73.02 289.62,-74.08 298.53,-79.83 300.17,-73.02"/>
</a>
</g>
</g>
<!-- Node14&#45;&gt;Node12 -->
<g id="edge23_Node000014_Node000012" class="edge">
<title>Node14&#45;&gt;Node12</title>
<g id="a_edge23_Node000014_Node000012"><a xlink:title=" ">
<path fill="none" stroke="#63b8ff" d="M481.27,-109.75C487.54,-102.18 496.79,-91.05 504.43,-81.84"/>
<polygon fill="#63b8ff" stroke="#63b8ff" points="507.17,-84.02 510.87,-74.09 501.79,-79.55 507.17,-84.02"/>
</a>
</g>
</g>
<!-- Node14&#45;&gt;Node13 -->
<g id="edge20_Node000014_Node000013" class="edge">
<title>Node14&#45;&gt;Node13</title>
<g id="a_edge20_Node000014_Node000013"><a xlink:title=" ">
<path fill="none" stroke="#63b8ff" d="M544.98,-109.97C568.51,-103.67 592.8,-92.78 609,-74 619.51,-61.82 621.68,-43.3 621.57,-29.4"/>
<polygon fill="#63b8ff" stroke="#63b8ff" points="625.05,-28.86 621.07,-19.04 618.06,-29.2 625.05,-28.86"/>
</a>
</g>
</g>
</g>
</svg>
