<?xml version="1.0" encoding="UTF-8" standalone="no"?>
<!DOCTYPE svg PUBLIC "-//W3C//DTD SVG 1.1//EN"
 "http://www.w3.org/Graphics/SVG/1.1/DTD/svg11.dtd">
<!-- Generated by graphviz version 2.43.0 (0)
 -->
<!-- Title: /home/runner/work/rt&#45;vamp&#45;plugin&#45;sdk/rt&#45;vamp&#45;plugin&#45;sdk/hostsdk/include/rtvamp/hostsdk/Plugin.hpp Pages: 1 -->
<svg width="579pt" height="115pt"
 viewBox="0.00 0.00 579.00 115.00" xmlns="http://www.w3.org/2000/svg" xmlns:xlink="http://www.w3.org/1999/xlink">
<g id="graph0" class="graph" transform="scale(1 1) rotate(0) translate(4 111)">
<title>/home/runner/work/rt&#45;vamp&#45;plugin&#45;sdk/rt&#45;vamp&#45;plugin&#45;sdk/hostsdk/include/rtvamp/hostsdk/Plugin.hpp</title>
<!-- Node1 -->
<g id="Node000001" class="node">
<title>Node1</title>
<g id="a_Node000001"><a xlink:title=" ">
<polygon fill="#999999" stroke="#666666" points="368,-107 217,-107 217,-55 368,-55 368,-107"/>
<text text-anchor="start" x="225" y="-95" font-family="Helvetica,sans-Serif" font-size="10.00">/home/runner/work/rt</text>
<text text-anchor="start" x="225" y="-84" font-family="Helvetica,sans-Serif" font-size="10.00">&#45;vamp&#45;plugin&#45;sdk/rt&#45;vamp</text>
<text text-anchor="start" x="225" y="-73" font-family="Helvetica,sans-Serif" font-size="10.00">&#45;plugin&#45;sdk/hostsdk/include</text>
<text text-anchor="middle" x="292.5" y="-62" font-family="Helvetica,sans-Serif" font-size="10.00">/rtvamp/hostsdk/Plugin.hpp</text>
</a>
</g>
</g>
<!-- Node2 -->
<g id="Node000002" class="node">
<title>Node2</title>
<g id="a_Node000002"><a xlink:title=" ">
<polygon fill="#e0e0e0" stroke="#999999" points="59,-19 0,-19 0,0 59,0 59,-19"/>
<text text-anchor="middle" x="29.5" y="-7" font-family="Helvetica,sans-Serif" font-size="10.00">complex</text>
</a>
</g>
</g>
<!-- Node1&#45;&gt;Node2 -->
<g id="edge1_Node000001_Node000002" class="edge">
<title>Node1&#45;&gt;Node2</title>
<g id="a_edge1_Node000001_Node000002"><a xlink:title=" ">
<path fill="none" stroke="#63b8ff" d="M216.78,-59.99C168.58,-47.25 108.11,-31.27 69.14,-20.98"/>
<polygon fill="#63b8ff" stroke="#63b8ff" points="69.8,-17.53 59.24,-18.36 68.01,-24.3 69.8,-17.53"/>
</a>
</g>
</g>
<!-- Node3 -->
<g id="Node000003" class="node">
<title>Node3</title>
<g id="a_Node000003"><a xlink:title=" ">
<polygon fill="#e0e0e0" stroke="#999999" points="127.5,-19 77.5,-19 77.5,0 127.5,0 127.5,-19"/>
<text text-anchor="middle" x="102.5" y="-7" font-family="Helvetica,sans-Serif" font-size="10.00">cstdint</text>
</a>
</g>
</g>
<!-- Node1&#45;&gt;Node3 -->
<g id="edge2_Node000001_Node000003" class="edge">
<title>Node1&#45;&gt;Node3</title>
<g id="a_edge2_Node000001_Node000003"><a xlink:title=" ">
<path fill="none" stroke="#63b8ff" d="M223.91,-54.91C193.82,-43.91 159.9,-31.5 135.58,-22.6"/>
<polygon fill="#63b8ff" stroke="#63b8ff" points="136.7,-19.28 126.11,-19.14 134.3,-25.86 136.7,-19.28"/>
</a>
</g>
</g>
<!-- Node4 -->
<g id="Node000004" class="node">
<title>Node4</title>
<g id="a_Node000004"><a xlink:title=" ">
<polygon fill="#e0e0e0" stroke="#999999" points="213.5,-19 145.5,-19 145.5,0 213.5,0 213.5,-19"/>
<text text-anchor="middle" x="179.5" y="-7" font-family="Helvetica,sans-Serif" font-size="10.00">filesystem</text>
</a>
</g>
</g>
<!-- Node1&#45;&gt;Node4 -->
<g id="edge3_Node000001_Node000004" class="edge">
<title>Node1&#45;&gt;Node4</title>
<g id="a_edge3_Node000001_Node000004"><a xlink:title=" ">
<path fill="none" stroke="#63b8ff" d="M251.7,-54.91C235.01,-44.64 216.32,-33.15 202.14,-24.43"/>
<polygon fill="#63b8ff" stroke="#63b8ff" points="203.89,-21.39 193.54,-19.14 200.22,-27.36 203.89,-21.39"/>
</a>
</g>
</g>
<!-- Node5 -->
<g id="Node000005" class="node">
<title>Node5</title>
<g id="a_Node000005"><a xlink:title=" ">
<polygon fill="#e0e0e0" stroke="#999999" points="287.5,-19 231.5,-19 231.5,0 287.5,0 287.5,-19"/>
<text text-anchor="middle" x="259.5" y="-7" font-family="Helvetica,sans-Serif" font-size="10.00">optional</text>
</a>
</g>
</g>
<!-- Node1&#45;&gt;Node5 -->
<g id="edge4_Node000001_Node000005" class="edge">
<title>Node1&#45;&gt;Node5</title>
<g id="a_edge4_Node000001_Node000005"><a xlink:title=" ">
<path fill="none" stroke="#63b8ff" d="M280.59,-54.91C276.43,-46.16 271.86,-36.52 268.03,-28.47"/>
<polygon fill="#63b8ff" stroke="#63b8ff" points="271.13,-26.83 263.68,-19.3 264.81,-29.84 271.13,-26.83"/>
</a>
</g>
</g>
<!-- Node6 -->
<g id="Node000006" class="node">
<title>Node6</title>
<g id="a_Node000006"><a xlink:title=" ">
<polygon fill="#e0e0e0" stroke="#999999" points="345.5,-19 305.5,-19 305.5,0 345.5,0 345.5,-19"/>
<text text-anchor="middle" x="325.5" y="-7" font-family="Helvetica,sans-Serif" font-size="10.00">span</text>
</a>
</g>
</g>
<!-- Node1&#45;&gt;Node6 -->
<g id="edge5_Node000001_Node000006" class="edge">
<title>Node1&#45;&gt;Node6</title>
<g id="a_edge5_Node000001_Node000006"><a xlink:title=" ">
<path fill="none" stroke="#63b8ff" d="M304.41,-54.91C308.57,-46.16 313.14,-36.52 316.97,-28.47"/>
<polygon fill="#63b8ff" stroke="#63b8ff" points="320.19,-29.84 321.32,-19.3 313.87,-26.83 320.19,-29.84"/>
</a>
</g>
</g>
<!-- Node7 -->
<g id="Node000007" class="node">
<title>Node7</title>
<g id="a_Node000007"><a xlink:title=" ">
<polygon fill="#e0e0e0" stroke="#999999" points="437,-19 364,-19 364,0 437,0 437,-19"/>
<text text-anchor="middle" x="400.5" y="-7" font-family="Helvetica,sans-Serif" font-size="10.00">string_view</text>
</a>
</g>
</g>
<!-- Node1&#45;&gt;Node7 -->
<g id="edge6_Node000001_Node000007" class="edge">
<title>Node1&#45;&gt;Node7</title>
<g id="a_edge6_Node000001_Node000007"><a xlink:title=" ">
<path fill="none" stroke="#63b8ff" d="M331.49,-54.91C347.3,-44.74 364.97,-33.36 378.47,-24.68"/>
<polygon fill="#63b8ff" stroke="#63b8ff" points="380.57,-27.49 387.08,-19.14 376.78,-21.6 380.57,-27.49"/>
</a>
</g>
</g>
<!-- Node8 -->
<g id="Node000008" class="node">
<title>Node8</title>
<g id="a_Node000008"><a xlink:title=" ">
<polygon fill="#e0e0e0" stroke="#999999" points="506,-19 455,-19 455,0 506,0 506,-19"/>
<text text-anchor="middle" x="480.5" y="-7" font-family="Helvetica,sans-Serif" font-size="10.00">variant</text>
</a>
</g>
</g>
<!-- Node1&#45;&gt;Node8 -->
<g id="edge7_Node000001_Node000008" class="edge">
<title>Node1&#45;&gt;Node8</title>
<g id="a_edge7_Node000001_Node000008"><a xlink:title=" ">
<path fill="none" stroke="#63b8ff" d="M360.37,-54.91C390.01,-43.95 423.4,-31.61 447.45,-22.72"/>
<polygon fill="#63b8ff" stroke="#63b8ff" points="448.97,-25.89 457.14,-19.14 446.55,-19.32 448.97,-25.89"/>
</a>
</g>
</g>
<!-- Node9 -->
<g id="Node000009" class="node">
<title>Node9</title>
<g id="a_Node000009"><a xlink:title=" ">
<polygon fill="#e0e0e0" stroke="#999999" points="571,-19 524,-19 524,0 571,0 571,-19"/>
<text text-anchor="middle" x="547.5" y="-7" font-family="Helvetica,sans-Serif" font-size="10.00">vector</text>
</a>
</g>
</g>
<!-- Node1&#45;&gt;Node9 -->
<g id="edge8_Node000001_Node000009" class="edge">
<title>Node1&#45;&gt;Node9</title>
<g id="a_edge8_Node000001_Node000009"><a xlink:title=" ">
<path fill="none" stroke="#63b8ff" d="M368.32,-59.34C416.76,-46.13 477.19,-29.66 514.03,-19.62"/>
<polygon fill="#63b8ff" stroke="#63b8ff" points="515.04,-22.97 523.77,-16.97 513.2,-16.22 515.04,-22.97"/>
</a>
</g>
</g>
</g>
</svg>
