<?xml version="1.0" encoding="UTF-8" standalone="no"?>
<!DOCTYPE svg PUBLIC "-//W3C//DTD SVG 1.1//EN"
 "http://www.w3.org/Graphics/SVG/1.1/DTD/svg11.dtd">
<!-- Generated by graphviz version 2.43.0 (0)
 -->
<!-- Title: /home/runner/work/rt&#45;vamp&#45;plugin&#45;sdk/rt&#45;vamp&#45;plugin&#45;sdk/hostsdk/include/rtvamp/hostsdk/Plugin.hpp Pages: 1 -->
<svg width="493pt" height="117pt"
 viewBox="0.00 0.00 493.00 117.00" xmlns="http://www.w3.org/2000/svg" xmlns:xlink="http://www.w3.org/1999/xlink">
<g id="graph0" class="graph" transform="scale(1 1) rotate(0) translate(4 113)">
<title>/home/runner/work/rt&#45;vamp&#45;plugin&#45;sdk/rt&#45;vamp&#45;plugin&#45;sdk/hostsdk/include/rtvamp/hostsdk/Plugin.hpp</title>
<!-- Node1 -->
<g id="node1" class="node">
<title>Node1</title>
<g id="a_node1"><a xlink:title=" ">
<polygon fill="#bfbfbf" stroke="black" points="164,-56.5 164,-108.5 315,-108.5 315,-56.5 164,-56.5"/>
<text text-anchor="start" x="172" y="-96.5" font-family="Helvetica,sans-Serif" font-size="10.00">/home/runner/work/rt</text>
<text text-anchor="start" x="172" y="-85.5" font-family="Helvetica,sans-Serif" font-size="10.00">&#45;vamp&#45;plugin&#45;sdk/rt&#45;vamp</text>
<text text-anchor="start" x="172" y="-74.5" font-family="Helvetica,sans-Serif" font-size="10.00">&#45;plugin&#45;sdk/hostsdk/include</text>
<text text-anchor="middle" x="239.5" y="-63.5" font-family="Helvetica,sans-Serif" font-size="10.00">/rtvamp/hostsdk/Plugin.hpp</text>
</a>
</g>
</g>
<!-- Node2 -->
<g id="node2" class="node">
<title>Node2</title>
<g id="a_node2"><a xlink:title=" ">
<polygon fill="none" stroke="#bfbfbf" points="0,-0.5 0,-19.5 59,-19.5 59,-0.5 0,-0.5"/>
<text text-anchor="middle" x="29.5" y="-7.5" font-family="Helvetica,sans-Serif" font-size="10.00">complex</text>
</a>
</g>
</g>
<!-- Node1&#45;&gt;Node2 -->
<g id="edge1" class="edge">
<title>Node1&#45;&gt;Node2</title>
<path fill="none" stroke="midnightblue" d="M164.87,-56.45C130.64,-44.95 91.7,-31.88 64.4,-22.72"/>
<polygon fill="midnightblue" stroke="midnightblue" points="65.49,-19.39 54.9,-19.53 63.27,-26.03 65.49,-19.39"/>
</g>
<!-- Node3 -->
<g id="node3" class="node">
<title>Node3</title>
<g id="a_node3"><a xlink:title=" ">
<polygon fill="none" stroke="#bfbfbf" points="77.5,-0.5 77.5,-19.5 127.5,-19.5 127.5,-0.5 77.5,-0.5"/>
<text text-anchor="middle" x="102.5" y="-7.5" font-family="Helvetica,sans-Serif" font-size="10.00">cstdint</text>
</a>
</g>
</g>
<!-- Node1&#45;&gt;Node3 -->
<g id="edge2" class="edge">
<title>Node1&#45;&gt;Node3</title>
<path fill="none" stroke="midnightblue" d="M190.81,-56.45C169.66,-45.56 145.74,-33.25 128.14,-24.2"/>
<polygon fill="midnightblue" stroke="midnightblue" points="129.56,-20.99 119.07,-19.53 126.36,-27.21 129.56,-20.99"/>
</g>
<!-- Node4 -->
<g id="node4" class="node">
<title>Node4</title>
<g id="a_node4"><a xlink:title=" ">
<polygon fill="none" stroke="#bfbfbf" points="145.5,-0.5 145.5,-19.5 201.5,-19.5 201.5,-0.5 145.5,-0.5"/>
<text text-anchor="middle" x="173.5" y="-7.5" font-family="Helvetica,sans-Serif" font-size="10.00">optional</text>
</a>
</g>
</g>
<!-- Node1&#45;&gt;Node4 -->
<g id="edge3" class="edge">
<title>Node1&#45;&gt;Node4</title>
<path fill="none" stroke="midnightblue" d="M216.05,-56.45C206.95,-46.73 196.79,-35.88 188.68,-27.22"/>
<polygon fill="midnightblue" stroke="midnightblue" points="191.03,-24.6 181.64,-19.7 185.92,-29.39 191.03,-24.6"/>
</g>
<!-- Node5 -->
<g id="node5" class="node">
<title>Node5</title>
<g id="a_node5"><a xlink:title=" ">
<polygon fill="none" stroke="#bfbfbf" points="219.5,-0.5 219.5,-19.5 259.5,-19.5 259.5,-0.5 219.5,-0.5"/>
<text text-anchor="middle" x="239.5" y="-7.5" font-family="Helvetica,sans-Serif" font-size="10.00">span</text>
</a>
</g>
</g>
<!-- Node1&#45;&gt;Node5 -->
<g id="edge4" class="edge">
<title>Node1&#45;&gt;Node5</title>
<path fill="none" stroke="midnightblue" d="M239.5,-56.45C239.5,-47.73 239.5,-38.1 239.5,-29.96"/>
<polygon fill="midnightblue" stroke="midnightblue" points="243,-29.7 239.5,-19.7 236,-29.7 243,-29.7"/>
</g>
<!-- Node6 -->
<g id="node6" class="node">
<title>Node6</title>
<g id="a_node6"><a xlink:title=" ">
<polygon fill="none" stroke="#bfbfbf" points="278,-0.5 278,-19.5 351,-19.5 351,-0.5 278,-0.5"/>
<text text-anchor="middle" x="314.5" y="-7.5" font-family="Helvetica,sans-Serif" font-size="10.00">string_view</text>
</a>
</g>
</g>
<!-- Node1&#45;&gt;Node6 -->
<g id="edge5" class="edge">
<title>Node1&#45;&gt;Node6</title>
<path fill="none" stroke="midnightblue" d="M266.15,-56.45C276.7,-46.53 288.51,-35.43 297.81,-26.69"/>
<polygon fill="midnightblue" stroke="midnightblue" points="300.36,-29.09 305.25,-19.7 295.57,-23.99 300.36,-29.09"/>
</g>
<!-- Node7 -->
<g id="node7" class="node">
<title>Node7</title>
<g id="a_node7"><a xlink:title=" ">
<polygon fill="none" stroke="#bfbfbf" points="369,-0.5 369,-19.5 420,-19.5 420,-0.5 369,-0.5"/>
<text text-anchor="middle" x="394.5" y="-7.5" font-family="Helvetica,sans-Serif" font-size="10.00">variant</text>
</a>
</g>
</g>
<!-- Node1&#45;&gt;Node7 -->
<g id="edge6" class="edge">
<title>Node1&#45;&gt;Node7</title>
<path fill="none" stroke="midnightblue" d="M294.58,-56.45C318.96,-45.36 346.58,-32.8 366.59,-23.7"/>
<polygon fill="midnightblue" stroke="midnightblue" points="368.1,-26.85 375.75,-19.53 365.2,-20.48 368.1,-26.85"/>
</g>
<!-- Node8 -->
<g id="node8" class="node">
<title>Node8</title>
<g id="a_node8"><a xlink:title=" ">
<polygon fill="none" stroke="#bfbfbf" points="438,-0.5 438,-19.5 485,-19.5 485,-0.5 438,-0.5"/>
<text text-anchor="middle" x="461.5" y="-7.5" font-family="Helvetica,sans-Serif" font-size="10.00">vector</text>
</a>
</g>
</g>
<!-- Node1&#45;&gt;Node8 -->
<g id="edge7" class="edge">
<title>Node1&#45;&gt;Node8</title>
<path fill="none" stroke="midnightblue" d="M315.28,-57.44C353.59,-45.27 398.16,-31.12 427.92,-21.66"/>
<polygon fill="midnightblue" stroke="midnightblue" points="429.33,-24.89 437.8,-18.53 427.21,-18.22 429.33,-24.89"/>
</g>
</g>
</svg>
