<?xml version="1.0" encoding="UTF-8" standalone="no"?>
<!DOCTYPE svg PUBLIC "-//W3C//DTD SVG 1.1//EN"
 "http://www.w3.org/Graphics/SVG/1.1/DTD/svg11.dtd">
<!-- Generated by graphviz version 2.43.0 (0)
 -->
<!-- Title: /home/runner/work/rt&#45;vamp&#45;plugin&#45;sdk/rt&#45;vamp&#45;plugin&#45;sdk/hostsdk/include/rtvamp/hostsdk.hpp Pages: 1 -->
<svg width="630pt" height="229pt"
 viewBox="0.00 0.00 630.00 229.00" xmlns="http://www.w3.org/2000/svg" xmlns:xlink="http://www.w3.org/1999/xlink">
<g id="graph0" class="graph" transform="scale(1 1) rotate(0) translate(4 225)">
<title>/home/runner/work/rt&#45;vamp&#45;plugin&#45;sdk/rt&#45;vamp&#45;plugin&#45;sdk/hostsdk/include/rtvamp/hostsdk.hpp</title>
<!-- Node1 -->
<g id="node1" class="node">
<title>Node1</title>
<g id="a_node1"><a xlink:title=" ">
<polygon fill="#bfbfbf" stroke="black" points="41.5,-168.5 41.5,-220.5 192.5,-220.5 192.5,-168.5 41.5,-168.5"/>
<text text-anchor="start" x="49.5" y="-208.5" font-family="Helvetica,sans-Serif" font-size="10.00">/home/runner/work/rt</text>
<text text-anchor="start" x="49.5" y="-197.5" font-family="Helvetica,sans-Serif" font-size="10.00">&#45;vamp&#45;plugin&#45;sdk/rt&#45;vamp</text>
<text text-anchor="start" x="49.5" y="-186.5" font-family="Helvetica,sans-Serif" font-size="10.00">&#45;plugin&#45;sdk/hostsdk/include</text>
<text text-anchor="middle" x="117" y="-175.5" font-family="Helvetica,sans-Serif" font-size="10.00">/rtvamp/hostsdk.hpp</text>
</a>
</g>
</g>
<!-- Node2 -->
<g id="node2" class="node">
<title>Node2</title>
<g id="a_node2"><a xlink:title=" ">
<polygon fill="none" stroke="#bfbfbf" points="54,-56.5 54,-75.5 122,-75.5 122,-56.5 54,-56.5"/>
<text text-anchor="middle" x="88" y="-63.5" font-family="Helvetica,sans-Serif" font-size="10.00">filesystem</text>
</a>
</g>
</g>
<!-- Node1&#45;&gt;Node2 -->
<g id="edge1" class="edge">
<title>Node1&#45;&gt;Node2</title>
<path fill="none" stroke="midnightblue" d="M111.2,-168.2C105.6,-143.77 97.25,-107.34 92.24,-85.5"/>
<polygon fill="midnightblue" stroke="midnightblue" points="95.61,-84.51 89.96,-75.55 88.78,-86.08 95.61,-84.51"/>
</g>
<!-- Node3 -->
<g id="node3" class="node">
<title>Node3</title>
<g id="a_node3"><a xlink:title=" ">
<polygon fill="none" stroke="#bfbfbf" points="140,-56.5 140,-75.5 198,-75.5 198,-56.5 140,-56.5"/>
<text text-anchor="middle" x="169" y="-63.5" font-family="Helvetica,sans-Serif" font-size="10.00">memory</text>
</a>
</g>
</g>
<!-- Node1&#45;&gt;Node3 -->
<g id="edge2" class="edge">
<title>Node1&#45;&gt;Node3</title>
<path fill="none" stroke="midnightblue" d="M120.17,-168.4C122.9,-151.83 127.75,-129.95 136,-112 140.7,-101.79 147.91,-91.59 154.4,-83.49"/>
<polygon fill="midnightblue" stroke="midnightblue" points="157.26,-85.53 161.01,-75.62 151.9,-81.03 157.26,-85.53"/>
</g>
<!-- Node4 -->
<g id="node4" class="node">
<title>Node4</title>
<g id="a_node4"><a xlink:title=" ">
<polygon fill="none" stroke="#bfbfbf" points="0,-0.5 0,-19.5 40,-19.5 40,-0.5 0,-0.5"/>
<text text-anchor="middle" x="20" y="-7.5" font-family="Helvetica,sans-Serif" font-size="10.00">span</text>
</a>
</g>
</g>
<!-- Node1&#45;&gt;Node4 -->
<g id="edge3" class="edge">
<title>Node1&#45;&gt;Node4</title>
<path fill="none" stroke="midnightblue" d="M87.13,-168.26C76.41,-157.93 65,-145.29 57,-132 37.15,-99.04 27.14,-54.53 22.8,-29.71"/>
<polygon fill="midnightblue" stroke="midnightblue" points="26.25,-29.11 21.19,-19.81 19.34,-30.24 26.25,-29.11"/>
</g>
<!-- Node5 -->
<g id="node5" class="node">
<title>Node5</title>
<g id="a_node5"><a xlink:title=" ">
<polygon fill="none" stroke="#bfbfbf" points="89.5,-0.5 89.5,-19.5 136.5,-19.5 136.5,-0.5 89.5,-0.5"/>
<text text-anchor="middle" x="113" y="-7.5" font-family="Helvetica,sans-Serif" font-size="10.00">vector</text>
</a>
</g>
</g>
<!-- Node1&#45;&gt;Node5 -->
<g id="edge4" class="edge">
<title>Node1&#45;&gt;Node5</title>
<path fill="none" stroke="midnightblue" d="M95.89,-168.41C78.4,-145.86 54.87,-111 45,-76 42.59,-67.44 40.79,-63.83 45,-56 52.62,-41.82 66.9,-31.35 80.41,-24.1"/>
<polygon fill="midnightblue" stroke="midnightblue" points="82.13,-27.16 89.55,-19.59 79.03,-20.88 82.13,-27.16"/>
</g>
<!-- Node6 -->
<g id="node6" class="node">
<title>Node6</title>
<g id="a_node6"><a xlink:href="hostsdk_2include_2rtvamp_2hostsdk_2Plugin_8hpp.html" target="_top" xlink:title=" ">
<polygon fill="none" stroke="black" points="254.5,-56.5 254.5,-75.5 401.5,-75.5 401.5,-56.5 254.5,-56.5"/>
<text text-anchor="middle" x="328" y="-63.5" font-family="Helvetica,sans-Serif" font-size="10.00">rtvamp/hostsdk/Plugin.hpp</text>
</a>
</g>
</g>
<!-- Node1&#45;&gt;Node6 -->
<g id="edge5" class="edge">
<title>Node1&#45;&gt;Node6</title>
<path fill="none" stroke="midnightblue" d="M192.59,-181.83C247.77,-171.58 315.82,-154.75 333,-132 343,-118.76 339.9,-99.36 335.43,-85.2"/>
<polygon fill="midnightblue" stroke="midnightblue" points="338.65,-83.79 331.94,-75.59 332.07,-86.18 338.65,-83.79"/>
</g>
<!-- Node12 -->
<g id="node12" class="node">
<title>Node12</title>
<g id="a_node12"><a xlink:href="PluginKey_8hpp.html" target="_top" xlink:title=" ">
<polygon fill="none" stroke="black" points="458,-56.5 458,-75.5 622,-75.5 622,-56.5 458,-56.5"/>
<text text-anchor="middle" x="540" y="-63.5" font-family="Helvetica,sans-Serif" font-size="10.00">rtvamp/hostsdk/PluginKey.hpp</text>
</a>
</g>
</g>
<!-- Node1&#45;&gt;Node12 -->
<g id="edge13" class="edge">
<title>Node1&#45;&gt;Node12</title>
<path fill="none" stroke="midnightblue" d="M192.75,-175.11C238.76,-163.56 298.54,-147.89 351,-132 406.48,-115.19 470.04,-92.64 507.51,-79"/>
<polygon fill="midnightblue" stroke="midnightblue" points="508.71,-82.28 516.9,-75.56 506.31,-75.71 508.71,-82.28"/>
</g>
<!-- Node14 -->
<g id="node14" class="node">
<title>Node14</title>
<g id="a_node14"><a xlink:href="PluginLibrary_8hpp.html" target="_top" xlink:title=" ">
<polygon fill="none" stroke="black" points="145.5,-112.5 145.5,-131.5 324.5,-131.5 324.5,-112.5 145.5,-112.5"/>
<text text-anchor="middle" x="235" y="-119.5" font-family="Helvetica,sans-Serif" font-size="10.00">rtvamp/hostsdk/PluginLibrary.hpp</text>
</a>
</g>
</g>
<!-- Node1&#45;&gt;Node14 -->
<g id="edge16" class="edge">
<title>Node1&#45;&gt;Node14</title>
<path fill="none" stroke="midnightblue" d="M158.93,-168.45C176.82,-157.76 196.99,-145.71 212.07,-136.7"/>
<polygon fill="midnightblue" stroke="midnightblue" points="213.94,-139.66 220.73,-131.53 210.35,-133.65 213.94,-139.66"/>
</g>
<!-- Node6&#45;&gt;Node4 -->
<g id="edge9" class="edge">
<title>Node6&#45;&gt;Node4</title>
<path fill="none" stroke="midnightblue" d="M279.2,-56.44C214.79,-45.15 103.37,-25.62 50.08,-16.27"/>
<polygon fill="midnightblue" stroke="midnightblue" points="50.68,-12.83 40.23,-14.55 49.47,-19.72 50.68,-12.83"/>
</g>
<!-- Node6&#45;&gt;Node5 -->
<g id="edge12" class="edge">
<title>Node6&#45;&gt;Node5</title>
<path fill="none" stroke="midnightblue" d="M292.36,-56.46C257.64,-48.07 203.09,-34.74 146.6,-20.11"/>
<polygon fill="midnightblue" stroke="midnightblue" points="147.33,-16.68 136.77,-17.56 145.57,-23.46 147.33,-16.68"/>
</g>
<!-- Node7 -->
<g id="node7" class="node">
<title>Node7</title>
<g id="a_node7"><a xlink:title=" ">
<polygon fill="none" stroke="#bfbfbf" points="298.5,-0.5 298.5,-19.5 357.5,-19.5 357.5,-0.5 298.5,-0.5"/>
<text text-anchor="middle" x="328" y="-7.5" font-family="Helvetica,sans-Serif" font-size="10.00">complex</text>
</a>
</g>
</g>
<!-- Node6&#45;&gt;Node7 -->
<g id="edge6" class="edge">
<title>Node6&#45;&gt;Node7</title>
<path fill="none" stroke="midnightblue" d="M328,-56.08C328,-49.01 328,-38.86 328,-29.99"/>
<polygon fill="midnightblue" stroke="midnightblue" points="331.5,-29.75 328,-19.75 324.5,-29.75 331.5,-29.75"/>
</g>
<!-- Node8 -->
<g id="node8" class="node">
<title>Node8</title>
<g id="a_node8"><a xlink:title=" ">
<polygon fill="none" stroke="#bfbfbf" points="376,-0.5 376,-19.5 426,-19.5 426,-0.5 376,-0.5"/>
<text text-anchor="middle" x="401" y="-7.5" font-family="Helvetica,sans-Serif" font-size="10.00">cstdint</text>
</a>
</g>
</g>
<!-- Node6&#45;&gt;Node8 -->
<g id="edge7" class="edge">
<title>Node6&#45;&gt;Node8</title>
<path fill="none" stroke="midnightblue" d="M339.73,-56.32C350.84,-48.11 367.74,-35.6 380.98,-25.81"/>
<polygon fill="midnightblue" stroke="midnightblue" points="383.1,-28.59 389.06,-19.83 378.94,-22.97 383.1,-28.59"/>
</g>
<!-- Node9 -->
<g id="node9" class="node">
<title>Node9</title>
<g id="a_node9"><a xlink:title=" ">
<polygon fill="none" stroke="#bfbfbf" points="155,-0.5 155,-19.5 211,-19.5 211,-0.5 155,-0.5"/>
<text text-anchor="middle" x="183" y="-7.5" font-family="Helvetica,sans-Serif" font-size="10.00">optional</text>
</a>
</g>
</g>
<!-- Node6&#45;&gt;Node9 -->
<g id="edge8" class="edge">
<title>Node6&#45;&gt;Node9</title>
<path fill="none" stroke="midnightblue" d="M305.02,-56.44C280.84,-47.44 242.58,-33.19 215.35,-23.05"/>
<polygon fill="midnightblue" stroke="midnightblue" points="216.46,-19.73 205.87,-19.52 214.02,-26.29 216.46,-19.73"/>
</g>
<!-- Node10 -->
<g id="node10" class="node">
<title>Node10</title>
<g id="a_node10"><a xlink:title=" ">
<polygon fill="none" stroke="#bfbfbf" points="444.5,-0.5 444.5,-19.5 517.5,-19.5 517.5,-0.5 444.5,-0.5"/>
<text text-anchor="middle" x="481" y="-7.5" font-family="Helvetica,sans-Serif" font-size="10.00">string_view</text>
</a>
</g>
</g>
<!-- Node6&#45;&gt;Node10 -->
<g id="edge10" class="edge">
<title>Node6&#45;&gt;Node10</title>
<path fill="none" stroke="midnightblue" d="M352.24,-56.44C377.87,-47.4 418.49,-33.06 447.24,-22.92"/>
<polygon fill="midnightblue" stroke="midnightblue" points="448.61,-26.15 456.87,-19.52 446.28,-19.54 448.61,-26.15"/>
</g>
<!-- Node11 -->
<g id="node11" class="node">
<title>Node11</title>
<g id="a_node11"><a xlink:title=" ">
<polygon fill="none" stroke="#bfbfbf" points="229.5,-0.5 229.5,-19.5 280.5,-19.5 280.5,-0.5 229.5,-0.5"/>
<text text-anchor="middle" x="255" y="-7.5" font-family="Helvetica,sans-Serif" font-size="10.00">variant</text>
</a>
</g>
</g>
<!-- Node6&#45;&gt;Node11 -->
<g id="edge11" class="edge">
<title>Node6&#45;&gt;Node11</title>
<path fill="none" stroke="midnightblue" d="M316.27,-56.32C305.16,-48.11 288.26,-35.6 275.02,-25.81"/>
<polygon fill="midnightblue" stroke="midnightblue" points="277.06,-22.97 266.94,-19.83 272.9,-28.59 277.06,-22.97"/>
</g>
<!-- Node12&#45;&gt;Node10 -->
<g id="edge15" class="edge">
<title>Node12&#45;&gt;Node10</title>
<path fill="none" stroke="midnightblue" d="M530.52,-56.32C521.8,-48.34 508.66,-36.31 498.1,-26.65"/>
<polygon fill="midnightblue" stroke="midnightblue" points="500.39,-24 490.65,-19.83 495.67,-29.17 500.39,-24"/>
</g>
<!-- Node13 -->
<g id="node13" class="node">
<title>Node13</title>
<g id="a_node13"><a xlink:title=" ">
<polygon fill="none" stroke="#bfbfbf" points="536,-0.5 536,-19.5 580,-19.5 580,-0.5 536,-0.5"/>
<text text-anchor="middle" x="558" y="-7.5" font-family="Helvetica,sans-Serif" font-size="10.00">string</text>
</a>
</g>
</g>
<!-- Node12&#45;&gt;Node13 -->
<g id="edge14" class="edge">
<title>Node12&#45;&gt;Node13</title>
<path fill="none" stroke="midnightblue" d="M542.97,-56.08C545.38,-48.85 548.86,-38.41 551.87,-29.4"/>
<polygon fill="midnightblue" stroke="midnightblue" points="555.24,-30.34 555.08,-19.75 548.6,-28.13 555.24,-30.34"/>
</g>
<!-- Node14&#45;&gt;Node2 -->
<g id="edge17" class="edge">
<title>Node14&#45;&gt;Node2</title>
<path fill="none" stroke="midnightblue" d="M211.71,-112.44C187.19,-103.44 148.4,-89.19 120.8,-79.05"/>
<polygon fill="midnightblue" stroke="midnightblue" points="121.78,-75.68 111.18,-75.52 119.36,-82.25 121.78,-75.68"/>
</g>
<!-- Node14&#45;&gt;Node3 -->
<g id="edge18" class="edge">
<title>Node14&#45;&gt;Node3</title>
<path fill="none" stroke="midnightblue" d="M224.4,-112.32C214.54,-104.26 199.65,-92.08 187.78,-82.37"/>
<polygon fill="midnightblue" stroke="midnightblue" points="189.75,-79.46 179.8,-75.83 185.32,-84.88 189.75,-79.46"/>
</g>
<!-- Node14&#45;&gt;Node5 -->
<g id="edge20" class="edge">
<title>Node14&#45;&gt;Node5</title>
<path fill="none" stroke="midnightblue" d="M233.32,-112.34C230.28,-98.75 222.67,-72.3 207,-56 190.48,-38.81 166.07,-27.4 146.27,-20.37"/>
<polygon fill="midnightblue" stroke="midnightblue" points="147.28,-17.01 136.68,-17.17 145.06,-23.65 147.28,-17.01"/>
</g>
<!-- Node14&#45;&gt;Node6 -->
<g id="edge21" class="edge">
<title>Node14&#45;&gt;Node6</title>
<path fill="none" stroke="midnightblue" d="M249.94,-112.32C264.59,-103.82 287.13,-90.73 304.24,-80.8"/>
<polygon fill="midnightblue" stroke="midnightblue" points="306.2,-83.7 313.1,-75.65 302.69,-77.65 306.2,-83.7"/>
</g>
<!-- Node14&#45;&gt;Node12 -->
<g id="edge22" class="edge">
<title>Node14&#45;&gt;Node12</title>
<path fill="none" stroke="midnightblue" d="M283.33,-112.44C337.2,-102.9 424.31,-87.48 481.86,-77.29"/>
<polygon fill="midnightblue" stroke="midnightblue" points="482.66,-80.71 491.9,-75.52 481.44,-73.81 482.66,-80.71"/>
</g>
<!-- Node14&#45;&gt;Node13 -->
<g id="edge19" class="edge">
<title>Node14&#45;&gt;Node13</title>
<path fill="none" stroke="midnightblue" d="M280.39,-112.45C316.47,-104.93 367.88,-92.6 411,-76 428.81,-69.14 431.72,-64.09 449,-56 474.56,-44.03 504.21,-31.9 526.13,-23.25"/>
<polygon fill="midnightblue" stroke="midnightblue" points="527.57,-26.44 535.61,-19.54 525.02,-19.93 527.57,-26.44"/>
</g>
</g>
</svg>
