<?xml version="1.0" encoding="UTF-8" standalone="no"?>
<!DOCTYPE svg PUBLIC "-//W3C//DTD SVG 1.1//EN"
 "http://www.w3.org/Graphics/SVG/1.1/DTD/svg11.dtd">
<!-- Generated by graphviz version 2.43.0 (0)
 -->
<!-- Title: /home/runner/work/rt&#45;vamp&#45;plugin&#45;sdk/rt&#45;vamp&#45;plugin&#45;sdk/hostsdk/include/rtvamp/hostsdk/Plugin.hpp Pages: 1 -->
<svg width="436pt" height="236pt"
 viewBox="0.00 0.00 436.39 236.00" xmlns="http://www.w3.org/2000/svg" xmlns:xlink="http://www.w3.org/1999/xlink">
<g id="graph0" class="graph" transform="scale(1 1) rotate(0) translate(4 232)">
<title>/home/runner/work/rt&#45;vamp&#45;plugin&#45;sdk/rt&#45;vamp&#45;plugin&#45;sdk/hostsdk/include/rtvamp/hostsdk/Plugin.hpp</title>
<!-- Node1 -->
<g id="Node000001" class="node">
<title>Node1</title>
<g id="a_Node000001"><a xlink:title=" ">
<polygon fill="#999999" stroke="#666666" points="198.89,-228 47.89,-228 47.89,-176 198.89,-176 198.89,-228"/>
<text text-anchor="start" x="55.89" y="-216" font-family="Helvetica,sans-Serif" font-size="10.00">/home/runner/work/rt</text>
<text text-anchor="start" x="55.89" y="-205" font-family="Helvetica,sans-Serif" font-size="10.00">&#45;vamp&#45;plugin&#45;sdk/rt&#45;vamp</text>
<text text-anchor="start" x="55.89" y="-194" font-family="Helvetica,sans-Serif" font-size="10.00">&#45;plugin&#45;sdk/hostsdk/include</text>
<text text-anchor="middle" x="123.39" y="-183" font-family="Helvetica,sans-Serif" font-size="10.00">/rtvamp/hostsdk/Plugin.hpp</text>
</a>
</g>
</g>
<!-- Node2 -->
<g id="Node000002" class="node">
<title>Node2</title>
<g id="a_Node000002"><a xlink:href="hostsdk_8hpp.html" target="_top" xlink:title=" ">
<polygon fill="white" stroke="#666666" points="238.89,-52 87.89,-52 87.89,0 238.89,0 238.89,-52"/>
<text text-anchor="start" x="95.89" y="-40" font-family="Helvetica,sans-Serif" font-size="10.00">/home/runner/work/rt</text>
<text text-anchor="start" x="95.89" y="-29" font-family="Helvetica,sans-Serif" font-size="10.00">&#45;vamp&#45;plugin&#45;sdk/rt&#45;vamp</text>
<text text-anchor="start" x="95.89" y="-18" font-family="Helvetica,sans-Serif" font-size="10.00">&#45;plugin&#45;sdk/hostsdk/include</text>
<text text-anchor="middle" x="163.39" y="-7" font-family="Helvetica,sans-Serif" font-size="10.00">/rtvamp/hostsdk.hpp</text>
</a>
</g>
</g>
<!-- Node1&#45;&gt;Node2 -->
<g id="edge1_Node000001_Node000002" class="edge">
<title>Node1&#45;&gt;Node2</title>
<g id="a_edge1_Node000001_Node000002"><a xlink:title=" ">
<path fill="none" stroke="#63b8ff" d="M40.23,-170.7C27.93,-162.61 16.89,-152.52 9.39,-140 -2.48,-120.17 -3.59,-107.12 9.39,-88 27.17,-61.84 58.11,-46.89 87.61,-38.36"/>
<polygon fill="#63b8ff" stroke="#63b8ff" points="38.56,-173.78 48.92,-175.99 42.2,-167.8 38.56,-173.78"/>
</a>
</g>
</g>
<!-- Node3 -->
<g id="Node000003" class="node">
<title>Node3</title>
<g id="a_Node000003"><a xlink:href="PluginHostAdapter_8hpp.html" target="_top" xlink:title=" ">
<polygon fill="white" stroke="#666666" points="228.39,-140 18.39,-140 18.39,-88 228.39,-88 228.39,-140"/>
<text text-anchor="start" x="26.39" y="-128" font-family="Helvetica,sans-Serif" font-size="10.00">/home/runner/work/rt</text>
<text text-anchor="start" x="26.39" y="-117" font-family="Helvetica,sans-Serif" font-size="10.00">&#45;vamp&#45;plugin&#45;sdk/rt&#45;vamp</text>
<text text-anchor="start" x="26.39" y="-106" font-family="Helvetica,sans-Serif" font-size="10.00">&#45;plugin&#45;sdk/hostsdk/include</text>
<text text-anchor="middle" x="123.39" y="-95" font-family="Helvetica,sans-Serif" font-size="10.00">/rtvamp/hostsdk/PluginHostAdapter.hpp</text>
</a>
</g>
</g>
<!-- Node1&#45;&gt;Node3 -->
<g id="edge2_Node000001_Node000003" class="edge">
<title>Node1&#45;&gt;Node3</title>
<g id="a_edge2_Node000001_Node000003"><a xlink:title=" ">
<path fill="none" stroke="#63b8ff" d="M123.39,-165.56C123.39,-157.04 123.39,-148.1 123.39,-140.16"/>
<polygon fill="#63b8ff" stroke="#63b8ff" points="119.89,-165.66 123.39,-175.66 126.89,-165.66 119.89,-165.66"/>
</a>
</g>
</g>
<!-- Node4 -->
<g id="Node000004" class="node">
<title>Node4</title>
<g id="a_Node000004"><a xlink:href="PluginLibrary_8hpp.html" target="_top" xlink:title=" ">
<polygon fill="white" stroke="#666666" points="428.39,-140 246.39,-140 246.39,-88 428.39,-88 428.39,-140"/>
<text text-anchor="start" x="254.39" y="-128" font-family="Helvetica,sans-Serif" font-size="10.00">/home/runner/work/rt</text>
<text text-anchor="start" x="254.39" y="-117" font-family="Helvetica,sans-Serif" font-size="10.00">&#45;vamp&#45;plugin&#45;sdk/rt&#45;vamp</text>
<text text-anchor="start" x="254.39" y="-106" font-family="Helvetica,sans-Serif" font-size="10.00">&#45;plugin&#45;sdk/hostsdk/include</text>
<text text-anchor="middle" x="337.39" y="-95" font-family="Helvetica,sans-Serif" font-size="10.00">/rtvamp/hostsdk/PluginLibrary.hpp</text>
</a>
</g>
</g>
<!-- Node1&#45;&gt;Node4 -->
<g id="edge3_Node000001_Node000004" class="edge">
<title>Node1&#45;&gt;Node4</title>
<g id="a_edge3_Node000001_Node000004"><a xlink:title=" ">
<path fill="none" stroke="#63b8ff" d="M195.22,-172.14C221.02,-161.77 249.89,-150.16 274.84,-140.14"/>
<polygon fill="#63b8ff" stroke="#63b8ff" points="193.84,-168.92 185.87,-175.89 196.45,-175.41 193.84,-168.92"/>
</a>
</g>
</g>
<!-- Node4&#45;&gt;Node2 -->
<g id="edge4_Node000004_Node000002" class="edge">
<title>Node4&#45;&gt;Node2</title>
<g id="a_edge4_Node000004_Node000002"><a xlink:title=" ">
<path fill="none" stroke="#63b8ff" d="M277.61,-83.45C256.99,-73.26 234.09,-61.94 214.25,-52.14"/>
<polygon fill="#63b8ff" stroke="#63b8ff" points="276.08,-86.6 286.6,-87.89 279.18,-80.33 276.08,-86.6"/>
</a>
</g>
</g>
</g>
</svg>
