<?xml version="1.0" encoding="UTF-8" standalone="no"?>
<!DOCTYPE svg PUBLIC "-//W3C//DTD SVG 1.1//EN"
 "http://www.w3.org/Graphics/SVG/1.1/DTD/svg11.dtd">
<!-- Generated by graphviz version 2.43.0 (0)
 -->
<!-- Title: Graphical Class Hierarchy Pages: 1 -->
<svg width="461pt" height="38pt"
 viewBox="0.00 0.00 461.00 38.00" xmlns="http://www.w3.org/2000/svg" xmlns:xlink="http://www.w3.org/1999/xlink">
<g id="graph0" class="graph" transform="scale(1 1) rotate(0) translate(4 34)">
<title>Graphical Class Hierarchy</title>
<!-- Node0 -->
<g id="Node000000" class="node">
<title>Node0</title>
<g id="a_Node000000"><a xlink:href="classrtvamp_1_1pluginsdk_1_1PluginBase.html" target="_top" xlink:title="Non&#45;templated plugin base class with type definitions.">
<polygon fill="white" stroke="#666666" points="111,-30 0,-30 0,0 111,0 111,-30"/>
<text text-anchor="start" x="8" y="-18" font-family="Helvetica,sans-Serif" font-size="10.00">rtvamp::pluginsdk::</text>
<text text-anchor="middle" x="55.5" y="-7" font-family="Helvetica,sans-Serif" font-size="10.00">PluginBase</text>
</a>
</g>
</g>
<!-- Node1 -->
<g id="Node000001" class="node">
<title>Node1</title>
<g id="a_Node000001"><a xlink:href="classrtvamp_1_1pluginsdk_1_1Plugin.html" target="_top" xlink:title="Base class to implement feature extraction plugins.">
<polygon fill="white" stroke="#666666" points="262,-30 147,-30 147,0 262,0 262,-30"/>
<text text-anchor="start" x="155" y="-18" font-family="Helvetica,sans-Serif" font-size="10.00">rtvamp::pluginsdk::</text>
<text text-anchor="middle" x="204.5" y="-7" font-family="Helvetica,sans-Serif" font-size="10.00">Plugin&lt; NOutputs &gt;</text>
</a>
</g>
</g>
<!-- Node0&#45;&gt;Node1 -->
<g id="edge2_Node000000_Node000001" class="edge">
<title>Node0&#45;&gt;Node1</title>
<g id="a_edge2_Node000000_Node000001"><a xlink:title=" ">
<path fill="none" stroke="#63b8ff" d="M121.43,-15C129.87,-15 138.46,-15 146.75,-15"/>
<polygon fill="#63b8ff" stroke="#63b8ff" points="121.24,-11.5 111.24,-15 121.24,-18.5 121.24,-11.5"/>
</a>
</g>
</g>
<!-- Node2 -->
<g id="Node000002" class="node">
<title>Node2</title>
<g id="a_Node000002"><a xlink:href="classrtvamp_1_1pluginsdk_1_1PluginExt.html" target="_top" xlink:title="Extended plugin base class with automatic parameter / program handling.">
<polygon fill="white" stroke="#666666" points="453,-30 298,-30 298,0 453,0 453,-30"/>
<text text-anchor="start" x="306" y="-18" font-family="Helvetica,sans-Serif" font-size="10.00">rtvamp::pluginsdk::</text>
<text text-anchor="middle" x="375.5" y="-7" font-family="Helvetica,sans-Serif" font-size="10.00">PluginExt&lt; Self, NOutputs &gt;</text>
</a>
</g>
</g>
<!-- Node1&#45;&gt;Node2 -->
<g id="edge3_Node000001_Node000002" class="edge">
<title>Node1&#45;&gt;Node2</title>
<g id="a_edge3_Node000001_Node000002"><a xlink:title=" ">
<path fill="none" stroke="#63b8ff" d="M272.31,-15C280.67,-15 289.28,-15 297.79,-15"/>
<polygon fill="#63b8ff" stroke="#63b8ff" points="272.24,-11.5 262.24,-15 272.24,-18.5 272.24,-11.5"/>
</a>
</g>
</g>
</g>
</svg>
