<?xml version="1.0" encoding="UTF-8" standalone="no"?>
<!DOCTYPE svg PUBLIC "-//W3C//DTD SVG 1.1//EN"
 "http://www.w3.org/Graphics/SVG/1.1/DTD/svg11.dtd">
<!-- Generated by graphviz version 2.43.0 (0)
 -->
<!-- Title: Graphical Class Hierarchy Pages: 1 -->
<svg width="461pt" height="39pt"
 viewBox="0.00 0.00 461.00 39.00" xmlns="http://www.w3.org/2000/svg" xmlns:xlink="http://www.w3.org/1999/xlink">
<g id="graph0" class="graph" transform="scale(1 1) rotate(0) translate(4 35)">
<title>Graphical Class Hierarchy</title>
<!-- Node0 -->
<g id="node1" class="node">
<title>Node0</title>
<g id="a_node1"><a xlink:href="classrtvamp_1_1pluginsdk_1_1PluginBase.html" target="_top" xlink:title="Non&#45;templated plugin base class with type definitions.">
<polygon fill="none" stroke="black" points="0,-0.5 0,-30.5 111,-30.5 111,-0.5 0,-0.5"/>
<text text-anchor="start" x="8" y="-18.5" font-family="Helvetica,sans-Serif" font-size="10.00">rtvamp::pluginsdk::</text>
<text text-anchor="middle" x="55.5" y="-7.5" font-family="Helvetica,sans-Serif" font-size="10.00">PluginBase</text>
</a>
</g>
</g>
<!-- Node1 -->
<g id="node2" class="node">
<title>Node1</title>
<g id="a_node2"><a xlink:href="classrtvamp_1_1pluginsdk_1_1Plugin.html" target="_top" xlink:title="Base class to implement feature extraction plugins.">
<polygon fill="none" stroke="black" points="147,-0.5 147,-30.5 262,-30.5 262,-0.5 147,-0.5"/>
<text text-anchor="start" x="155" y="-18.5" font-family="Helvetica,sans-Serif" font-size="10.00">rtvamp::pluginsdk::</text>
<text text-anchor="middle" x="204.5" y="-7.5" font-family="Helvetica,sans-Serif" font-size="10.00">Plugin&lt; NOutputs &gt;</text>
</a>
</g>
</g>
<!-- Node0&#45;&gt;Node1 -->
<g id="edge1" class="edge">
<title>Node0&#45;&gt;Node1</title>
<path fill="none" stroke="midnightblue" d="M121.43,-15.5C129.87,-15.5 138.46,-15.5 146.75,-15.5"/>
<polygon fill="midnightblue" stroke="midnightblue" points="121.24,-12 111.24,-15.5 121.24,-19 121.24,-12"/>
</g>
<!-- Node2 -->
<g id="node3" class="node">
<title>Node2</title>
<g id="a_node3"><a xlink:href="classrtvamp_1_1pluginsdk_1_1PluginExt.html" target="_top" xlink:title="Extended plugin base class with automatic parameter / program handling.">
<polygon fill="none" stroke="black" points="298,-0.5 298,-30.5 453,-30.5 453,-0.5 298,-0.5"/>
<text text-anchor="start" x="306" y="-18.5" font-family="Helvetica,sans-Serif" font-size="10.00">rtvamp::pluginsdk::</text>
<text text-anchor="middle" x="375.5" y="-7.5" font-family="Helvetica,sans-Serif" font-size="10.00">PluginExt&lt; Self, NOutputs &gt;</text>
</a>
</g>
</g>
<!-- Node1&#45;&gt;Node2 -->
<g id="edge2" class="edge">
<title>Node1&#45;&gt;Node2</title>
<path fill="none" stroke="midnightblue" d="M272.31,-15.5C280.67,-15.5 289.28,-15.5 297.79,-15.5"/>
<polygon fill="midnightblue" stroke="midnightblue" points="272.24,-12 262.24,-15.5 272.24,-19 272.24,-12"/>
</g>
</g>
</svg>
