<?xml version="1.0" encoding="UTF-8" standalone="no"?>
<!DOCTYPE svg PUBLIC "-//W3C//DTD SVG 1.1//EN"
 "http://www.w3.org/Graphics/SVG/1.1/DTD/svg11.dtd">
<!-- Generated by graphviz version 2.43.0 (0)
 -->
<!-- Title: /home/runner/work/rt&#45;vamp&#45;plugin&#45;sdk/rt&#45;vamp&#45;plugin&#45;sdk/hostsdk/include/rtvamp/hostsdk/PluginHostAdapter.hpp Pages: 1 -->
<svg width="580pt" height="173pt"
 viewBox="0.00 0.00 579.50 173.00" xmlns="http://www.w3.org/2000/svg" xmlns:xlink="http://www.w3.org/1999/xlink">
<g id="graph0" class="graph" transform="scale(1 1) rotate(0) translate(4 169)">
<title>/home/runner/work/rt&#45;vamp&#45;plugin&#45;sdk/rt&#45;vamp&#45;plugin&#45;sdk/hostsdk/include/rtvamp/hostsdk/PluginHostAdapter.hpp</title>
<!-- Node1 -->
<g id="node1" class="node">
<title>Node1</title>
<g id="a_node1"><a xlink:title=" ">
<polygon fill="#bfbfbf" stroke="black" points="115,-112.5 115,-164.5 325,-164.5 325,-112.5 115,-112.5"/>
<text text-anchor="start" x="123" y="-152.5" font-family="Helvetica,sans-Serif" font-size="10.00">/home/runner/work/rt</text>
<text text-anchor="start" x="123" y="-141.5" font-family="Helvetica,sans-Serif" font-size="10.00">&#45;vamp&#45;plugin&#45;sdk/rt&#45;vamp</text>
<text text-anchor="start" x="123" y="-130.5" font-family="Helvetica,sans-Serif" font-size="10.00">&#45;plugin&#45;sdk/hostsdk/include</text>
<text text-anchor="middle" x="220" y="-119.5" font-family="Helvetica,sans-Serif" font-size="10.00">/rtvamp/hostsdk/PluginHostAdapter.hpp</text>
</a>
</g>
</g>
<!-- Node2 -->
<g id="node2" class="node">
<title>Node2</title>
<g id="a_node2"><a xlink:title=" ">
<polygon fill="none" stroke="#bfbfbf" points="0,-0.5 0,-19.5 50,-19.5 50,-0.5 0,-0.5"/>
<text text-anchor="middle" x="25" y="-7.5" font-family="Helvetica,sans-Serif" font-size="10.00">cstdint</text>
</a>
</g>
</g>
<!-- Node1&#45;&gt;Node2 -->
<g id="edge1" class="edge">
<title>Node1&#45;&gt;Node2</title>
<path fill="none" stroke="midnightblue" d="M181.01,-112.2C140.75,-86.09 79.36,-46.27 46.9,-25.21"/>
<polygon fill="midnightblue" stroke="midnightblue" points="48.47,-22.06 38.18,-19.55 44.66,-27.93 48.47,-22.06"/>
</g>
<!-- Node3 -->
<g id="node3" class="node">
<title>Node3</title>
<g id="a_node3"><a xlink:title=" ">
<polygon fill="none" stroke="#bfbfbf" points="68,-0.5 68,-19.5 136,-19.5 136,-0.5 68,-0.5"/>
<text text-anchor="middle" x="102" y="-7.5" font-family="Helvetica,sans-Serif" font-size="10.00">filesystem</text>
</a>
</g>
</g>
<!-- Node1&#45;&gt;Node3 -->
<g id="edge2" class="edge">
<title>Node1&#45;&gt;Node3</title>
<path fill="none" stroke="midnightblue" d="M196.4,-112.2C172.67,-86.76 136.8,-48.31 116.8,-26.87"/>
<polygon fill="midnightblue" stroke="midnightblue" points="119.36,-24.47 109.98,-19.55 114.24,-29.25 119.36,-24.47"/>
</g>
<!-- Node4 -->
<g id="node4" class="node">
<title>Node4</title>
<g id="a_node4"><a xlink:title=" ">
<polygon fill="none" stroke="#bfbfbf" points="452,-56.5 452,-75.5 510,-75.5 510,-56.5 452,-56.5"/>
<text text-anchor="middle" x="481" y="-63.5" font-family="Helvetica,sans-Serif" font-size="10.00">memory</text>
</a>
</g>
</g>
<!-- Node1&#45;&gt;Node4 -->
<g id="edge3" class="edge">
<title>Node1&#45;&gt;Node4</title>
<path fill="none" stroke="midnightblue" d="M312.75,-112.45C357.1,-100.47 407.82,-86.77 441.87,-77.57"/>
<polygon fill="midnightblue" stroke="midnightblue" points="443.14,-80.85 451.88,-74.87 441.31,-74.09 443.14,-80.85"/>
</g>
<!-- Node5 -->
<g id="node5" class="node">
<title>Node5</title>
<g id="a_node5"><a xlink:title=" ">
<polygon fill="none" stroke="#bfbfbf" points="154,-0.5 154,-19.5 210,-19.5 210,-0.5 154,-0.5"/>
<text text-anchor="middle" x="182" y="-7.5" font-family="Helvetica,sans-Serif" font-size="10.00">optional</text>
</a>
</g>
</g>
<!-- Node1&#45;&gt;Node5 -->
<g id="edge4" class="edge">
<title>Node1&#45;&gt;Node5</title>
<path fill="none" stroke="midnightblue" d="M212.4,-112.2C205.03,-87.66 194.02,-51 187.47,-29.2"/>
<polygon fill="midnightblue" stroke="midnightblue" points="190.8,-28.12 184.57,-19.55 184.09,-30.13 190.8,-28.12"/>
</g>
<!-- Node6 -->
<g id="node6" class="node">
<title>Node6</title>
<g id="a_node6"><a xlink:title=" ">
<polygon fill="none" stroke="#bfbfbf" points="228.5,-0.5 228.5,-19.5 301.5,-19.5 301.5,-0.5 228.5,-0.5"/>
<text text-anchor="middle" x="265" y="-7.5" font-family="Helvetica,sans-Serif" font-size="10.00">string_view</text>
</a>
</g>
</g>
<!-- Node1&#45;&gt;Node6 -->
<g id="edge5" class="edge">
<title>Node1&#45;&gt;Node6</title>
<path fill="none" stroke="midnightblue" d="M224.37,-112.36C227.65,-95.97 232.82,-74.31 240,-56 243.75,-46.43 249.18,-36.38 254.02,-28.21"/>
<polygon fill="midnightblue" stroke="midnightblue" points="257.04,-29.98 259.29,-19.62 251.08,-26.31 257.04,-29.98"/>
</g>
<!-- Node7 -->
<g id="node7" class="node">
<title>Node7</title>
<g id="a_node7"><a xlink:title=" ">
<polygon fill="none" stroke="#bfbfbf" points="524.5,-0.5 524.5,-19.5 571.5,-19.5 571.5,-0.5 524.5,-0.5"/>
<text text-anchor="middle" x="548" y="-7.5" font-family="Helvetica,sans-Serif" font-size="10.00">vector</text>
</a>
</g>
</g>
<!-- Node1&#45;&gt;Node7 -->
<g id="edge6" class="edge">
<title>Node1&#45;&gt;Node7</title>
<path fill="none" stroke="midnightblue" d="M304.89,-112.5C336.72,-102.29 372.93,-89.66 405,-76 422.56,-68.52 425.77,-64.21 443,-56 467.58,-44.29 495.98,-32.2 517.05,-23.5"/>
<polygon fill="midnightblue" stroke="midnightblue" points="518.54,-26.68 526.46,-19.64 515.88,-20.2 518.54,-26.68"/>
</g>
<!-- Node8 -->
<g id="node8" class="node">
<title>Node8</title>
<g id="a_node8"><a xlink:href="hostsdk_2include_2rtvamp_2hostsdk_2Plugin_8hpp.html" target="_top" xlink:title=" ">
<polygon fill="none" stroke="black" points="248.5,-56.5 248.5,-75.5 395.5,-75.5 395.5,-56.5 248.5,-56.5"/>
<text text-anchor="middle" x="322" y="-63.5" font-family="Helvetica,sans-Serif" font-size="10.00">rtvamp/hostsdk/Plugin.hpp</text>
</a>
</g>
</g>
<!-- Node1&#45;&gt;Node8 -->
<g id="edge7" class="edge">
<title>Node1&#45;&gt;Node8</title>
<path fill="none" stroke="midnightblue" d="M256.25,-112.45C271.18,-102.13 287.95,-90.53 300.82,-81.64"/>
<polygon fill="midnightblue" stroke="midnightblue" points="303.18,-84.26 309.42,-75.7 299.2,-78.5 303.18,-84.26"/>
</g>
<!-- Node8&#45;&gt;Node2 -->
<g id="edge9" class="edge">
<title>Node8&#45;&gt;Node2</title>
<path fill="none" stroke="midnightblue" d="M263.21,-56.48C212.02,-48.71 135.62,-36.28 60.32,-20.13"/>
<polygon fill="midnightblue" stroke="midnightblue" points="60.7,-16.64 50.19,-17.94 59.22,-23.48 60.7,-16.64"/>
</g>
<!-- Node8&#45;&gt;Node3 -->
<g id="edge10" class="edge">
<title>Node8&#45;&gt;Node3</title>
<path fill="none" stroke="midnightblue" d="M287.14,-56.44C248.97,-47.07 187.68,-32.03 146.17,-21.84"/>
<polygon fill="midnightblue" stroke="midnightblue" points="146.88,-18.41 136.33,-19.43 145.21,-25.21 146.88,-18.41"/>
</g>
<!-- Node8&#45;&gt;Node5 -->
<g id="edge11" class="edge">
<title>Node8&#45;&gt;Node5</title>
<path fill="none" stroke="midnightblue" d="M299.82,-56.44C276.57,-47.48 239.85,-33.31 213.58,-23.18"/>
<polygon fill="midnightblue" stroke="midnightblue" points="214.67,-19.85 204.08,-19.52 212.15,-26.38 214.67,-19.85"/>
</g>
<!-- Node8&#45;&gt;Node6 -->
<g id="edge13" class="edge">
<title>Node8&#45;&gt;Node6</title>
<path fill="none" stroke="midnightblue" d="M312.84,-56.32C304.5,-48.42 291.97,-36.55 281.82,-26.94"/>
<polygon fill="midnightblue" stroke="midnightblue" points="283.99,-24.17 274.32,-19.83 279.18,-29.25 283.99,-24.17"/>
</g>
<!-- Node8&#45;&gt;Node7 -->
<g id="edge15" class="edge">
<title>Node8&#45;&gt;Node7</title>
<path fill="none" stroke="midnightblue" d="M361.15,-56.48C398.35,-48.25 456.09,-35.17 514.51,-20.31"/>
<polygon fill="midnightblue" stroke="midnightblue" points="515.45,-23.68 524.27,-17.81 513.71,-16.9 515.45,-23.68"/>
</g>
<!-- Node9 -->
<g id="node9" class="node">
<title>Node9</title>
<g id="a_node9"><a xlink:title=" ">
<polygon fill="none" stroke="#bfbfbf" points="319.5,-0.5 319.5,-19.5 378.5,-19.5 378.5,-0.5 319.5,-0.5"/>
<text text-anchor="middle" x="349" y="-7.5" font-family="Helvetica,sans-Serif" font-size="10.00">complex</text>
</a>
</g>
</g>
<!-- Node8&#45;&gt;Node9 -->
<g id="edge8" class="edge">
<title>Node8&#45;&gt;Node9</title>
<path fill="none" stroke="midnightblue" d="M326.46,-56.08C330.15,-48.69 335.52,-37.95 340.09,-28.81"/>
<polygon fill="midnightblue" stroke="midnightblue" points="343.28,-30.26 344.62,-19.75 337.02,-27.13 343.28,-30.26"/>
</g>
<!-- Node10 -->
<g id="node10" class="node">
<title>Node10</title>
<g id="a_node10"><a xlink:title=" ">
<polygon fill="none" stroke="#bfbfbf" points="397,-0.5 397,-19.5 437,-19.5 437,-0.5 397,-0.5"/>
<text text-anchor="middle" x="417" y="-7.5" font-family="Helvetica,sans-Serif" font-size="10.00">span</text>
</a>
</g>
</g>
<!-- Node8&#45;&gt;Node10 -->
<g id="edge12" class="edge">
<title>Node8&#45;&gt;Node10</title>
<path fill="none" stroke="midnightblue" d="M337.26,-56.32C352.22,-47.82 375.25,-34.73 392.73,-24.8"/>
<polygon fill="midnightblue" stroke="midnightblue" points="394.81,-27.64 401.77,-19.65 391.35,-21.55 394.81,-27.64"/>
</g>
<!-- Node11 -->
<g id="node11" class="node">
<title>Node11</title>
<g id="a_node11"><a xlink:title=" ">
<polygon fill="none" stroke="#bfbfbf" points="455.5,-0.5 455.5,-19.5 506.5,-19.5 506.5,-0.5 455.5,-0.5"/>
<text text-anchor="middle" x="481" y="-7.5" font-family="Helvetica,sans-Serif" font-size="10.00">variant</text>
</a>
</g>
</g>
<!-- Node8&#45;&gt;Node11 -->
<g id="edge14" class="edge">
<title>Node8&#45;&gt;Node11</title>
<path fill="none" stroke="midnightblue" d="M347.19,-56.44C373.94,-47.36 416.4,-32.94 446.31,-22.78"/>
<polygon fill="midnightblue" stroke="midnightblue" points="447.58,-26.05 455.92,-19.52 445.33,-19.42 447.58,-26.05"/>
</g>
</g>
</svg>
