<?xml version="1.0" encoding="UTF-8" standalone="no"?>
<!DOCTYPE svg PUBLIC "-//W3C//DTD SVG 1.1//EN"
 "http://www.w3.org/Graphics/SVG/1.1/DTD/svg11.dtd">
<!-- Generated by graphviz version 2.43.0 (0)
 -->
<!-- Title: /home/runner/work/rt&#45;vamp&#45;plugin&#45;sdk/rt&#45;vamp&#45;plugin&#45;sdk/hostsdk/include/rtvamp/hostsdk/PluginHostAdapter.hpp Pages: 1 -->
<svg width="580pt" height="170pt"
 viewBox="0.00 0.00 579.50 170.00" xmlns="http://www.w3.org/2000/svg" xmlns:xlink="http://www.w3.org/1999/xlink">
<g id="graph0" class="graph" transform="scale(1 1) rotate(0) translate(4 166)">
<title>/home/runner/work/rt&#45;vamp&#45;plugin&#45;sdk/rt&#45;vamp&#45;plugin&#45;sdk/hostsdk/include/rtvamp/hostsdk/PluginHostAdapter.hpp</title>
<!-- Node1 -->
<g id="Node000001" class="node">
<title>Node1</title>
<g id="a_Node000001"><a xlink:title=" ">
<polygon fill="#999999" stroke="#666666" points="325,-162 115,-162 115,-110 325,-110 325,-162"/>
<text text-anchor="start" x="123" y="-150" font-family="Helvetica,sans-Serif" font-size="10.00">/home/runner/work/rt</text>
<text text-anchor="start" x="123" y="-139" font-family="Helvetica,sans-Serif" font-size="10.00">&#45;vamp&#45;plugin&#45;sdk/rt&#45;vamp</text>
<text text-anchor="start" x="123" y="-128" font-family="Helvetica,sans-Serif" font-size="10.00">&#45;plugin&#45;sdk/hostsdk/include</text>
<text text-anchor="middle" x="220" y="-117" font-family="Helvetica,sans-Serif" font-size="10.00">/rtvamp/hostsdk/PluginHostAdapter.hpp</text>
</a>
</g>
</g>
<!-- Node2 -->
<g id="Node000002" class="node">
<title>Node2</title>
<g id="a_Node000002"><a xlink:title=" ">
<polygon fill="#e0e0e0" stroke="#999999" points="50,-19 0,-19 0,0 50,0 50,-19"/>
<text text-anchor="middle" x="25" y="-7" font-family="Helvetica,sans-Serif" font-size="10.00">cstdint</text>
</a>
</g>
</g>
<!-- Node1&#45;&gt;Node2 -->
<g id="edge1_Node000001_Node000002" class="edge">
<title>Node1&#45;&gt;Node2</title>
<g id="a_edge1_Node000001_Node000002"><a xlink:title=" ">
<path fill="none" stroke="#63b8ff" d="M180.54,-109.81C140.43,-84.2 79.71,-45.43 47.28,-24.72"/>
<polygon fill="#63b8ff" stroke="#63b8ff" points="48.86,-21.58 38.55,-19.15 45.09,-27.48 48.86,-21.58"/>
</a>
</g>
</g>
<!-- Node3 -->
<g id="Node000003" class="node">
<title>Node3</title>
<g id="a_Node000003"><a xlink:title=" ">
<polygon fill="#e0e0e0" stroke="#999999" points="136,-19 68,-19 68,0 136,0 136,-19"/>
<text text-anchor="middle" x="102" y="-7" font-family="Helvetica,sans-Serif" font-size="10.00">filesystem</text>
</a>
</g>
</g>
<!-- Node1&#45;&gt;Node3 -->
<g id="edge2_Node000001_Node000003" class="edge">
<title>Node1&#45;&gt;Node3</title>
<g id="a_edge2_Node000001_Node000003"><a xlink:title=" ">
<path fill="none" stroke="#63b8ff" d="M196.12,-109.81C172.58,-84.97 137.3,-47.75 117.3,-26.64"/>
<polygon fill="#63b8ff" stroke="#63b8ff" points="119.62,-24 110.2,-19.15 114.54,-28.82 119.62,-24"/>
</a>
</g>
</g>
<!-- Node4 -->
<g id="Node000004" class="node">
<title>Node4</title>
<g id="a_Node000004"><a xlink:title=" ">
<polygon fill="#e0e0e0" stroke="#999999" points="510,-74 452,-74 452,-55 510,-55 510,-74"/>
<text text-anchor="middle" x="481" y="-62" font-family="Helvetica,sans-Serif" font-size="10.00">memory</text>
</a>
</g>
</g>
<!-- Node1&#45;&gt;Node4 -->
<g id="edge3_Node000001_Node000004" class="edge">
<title>Node1&#45;&gt;Node4</title>
<g id="a_edge3_Node000001_Node000004"><a xlink:title=" ">
<path fill="none" stroke="#63b8ff" d="M314.23,-109.91C358.29,-98.18 408.35,-84.85 442.03,-75.88"/>
<polygon fill="#63b8ff" stroke="#63b8ff" points="443.17,-79.2 451.93,-73.24 441.37,-72.43 443.17,-79.2"/>
</a>
</g>
</g>
<!-- Node5 -->
<g id="Node000005" class="node">
<title>Node5</title>
<g id="a_Node000005"><a xlink:title=" ">
<polygon fill="#e0e0e0" stroke="#999999" points="210,-19 154,-19 154,0 210,0 210,-19"/>
<text text-anchor="middle" x="182" y="-7" font-family="Helvetica,sans-Serif" font-size="10.00">optional</text>
</a>
</g>
</g>
<!-- Node1&#45;&gt;Node5 -->
<g id="edge4_Node000001_Node000005" class="edge">
<title>Node1&#45;&gt;Node5</title>
<g id="a_edge4_Node000001_Node000005"><a xlink:title=" ">
<path fill="none" stroke="#63b8ff" d="M212.31,-109.81C205,-85.85 194.17,-50.37 187.63,-28.94"/>
<polygon fill="#63b8ff" stroke="#63b8ff" points="190.91,-27.69 184.64,-19.15 184.21,-29.74 190.91,-27.69"/>
</a>
</g>
</g>
<!-- Node6 -->
<g id="Node000006" class="node">
<title>Node6</title>
<g id="a_Node000006"><a xlink:title=" ">
<polygon fill="#e0e0e0" stroke="#999999" points="301.5,-19 228.5,-19 228.5,0 301.5,0 301.5,-19"/>
<text text-anchor="middle" x="265" y="-7" font-family="Helvetica,sans-Serif" font-size="10.00">string_view</text>
</a>
</g>
</g>
<!-- Node1&#45;&gt;Node6 -->
<g id="edge5_Node000001_Node000006" class="edge">
<title>Node1&#45;&gt;Node6</title>
<g id="a_edge5_Node000001_Node000006"><a xlink:title=" ">
<path fill="none" stroke="#63b8ff" d="M224.47,-109.96C227.76,-93.91 232.91,-72.83 240,-55 243.72,-45.63 249.07,-35.8 253.87,-27.77"/>
<polygon fill="#63b8ff" stroke="#63b8ff" points="257,-29.36 259.3,-19.02 251.05,-25.67 257,-29.36"/>
</a>
</g>
</g>
<!-- Node7 -->
<g id="Node000007" class="node">
<title>Node7</title>
<g id="a_Node000007"><a xlink:title=" ">
<polygon fill="#e0e0e0" stroke="#999999" points="571.5,-19 524.5,-19 524.5,0 571.5,0 571.5,-19"/>
<text text-anchor="middle" x="548" y="-7" font-family="Helvetica,sans-Serif" font-size="10.00">vector</text>
</a>
</g>
</g>
<!-- Node1&#45;&gt;Node7 -->
<g id="edge6_Node000001_Node000007" class="edge">
<title>Node1&#45;&gt;Node7</title>
<g id="a_edge6_Node000001_Node000007"><a xlink:title=" ">
<path fill="none" stroke="#63b8ff" d="M304.75,-109.91C336.56,-99.75 372.8,-87.28 405,-74 422.46,-66.8 425.85,-62.91 443,-55 467.68,-43.62 496.08,-31.65 517.11,-22.99"/>
<polygon fill="#63b8ff" stroke="#63b8ff" points="518.58,-26.17 526.51,-19.15 515.93,-19.69 518.58,-26.17"/>
</a>
</g>
</g>
<!-- Node8 -->
<g id="Node000008" class="node">
<title>Node8</title>
<g id="a_Node000008"><a xlink:href="hostsdk_2include_2rtvamp_2hostsdk_2Plugin_8hpp.html" target="_top" xlink:title=" ">
<polygon fill="white" stroke="#666666" points="395.5,-74 248.5,-74 248.5,-55 395.5,-55 395.5,-74"/>
<text text-anchor="middle" x="322" y="-62" font-family="Helvetica,sans-Serif" font-size="10.00">rtvamp/hostsdk/Plugin.hpp</text>
</a>
</g>
</g>
<!-- Node1&#45;&gt;Node8 -->
<g id="edge7_Node000001_Node000008" class="edge">
<title>Node1&#45;&gt;Node8</title>
<g id="a_edge7_Node000001_Node000008"><a xlink:title=" ">
<path fill="none" stroke="#63b8ff" d="M256.82,-109.91C271.52,-99.9 287.92,-88.72 300.59,-80.09"/>
<polygon fill="#63b8ff" stroke="#63b8ff" points="302.79,-82.83 309.08,-74.3 298.85,-77.04 302.79,-82.83"/>
</a>
</g>
</g>
<!-- Node8&#45;&gt;Node2 -->
<g id="edge9_Node000008_Node000002" class="edge">
<title>Node8&#45;&gt;Node2</title>
<g id="a_edge9_Node000008_Node000002"><a xlink:title=" ">
<path fill="none" stroke="#63b8ff" d="M263.78,-54.97C212.62,-47.18 135.96,-34.78 60.37,-19.15"/>
<polygon fill="#63b8ff" stroke="#63b8ff" points="60.71,-15.65 50.2,-17.03 59.27,-22.5 60.71,-15.65"/>
</a>
</g>
</g>
<!-- Node8&#45;&gt;Node3 -->
<g id="edge10_Node000008_Node000003" class="edge">
<title>Node8&#45;&gt;Node3</title>
<g id="a_edge10_Node000008_Node000003"><a xlink:title=" ">
<path fill="none" stroke="#63b8ff" d="M286.65,-54.98C248.39,-45.77 187.31,-31.05 145.97,-21.09"/>
<polygon fill="#63b8ff" stroke="#63b8ff" points="146.71,-17.67 136.17,-18.73 145.08,-24.48 146.71,-17.67"/>
</a>
</g>
</g>
<!-- Node8&#45;&gt;Node5 -->
<g id="edge11_Node000008_Node000005" class="edge">
<title>Node8&#45;&gt;Node5</title>
<g id="a_edge11_Node000008_Node000005"><a xlink:title=" ">
<path fill="none" stroke="#63b8ff" d="M299.51,-54.98C276.48,-46.27 240.46,-32.63 214.37,-22.75"/>
<polygon fill="#63b8ff" stroke="#63b8ff" points="215.49,-19.44 204.9,-19.17 213.02,-25.98 215.49,-19.44"/>
</a>
</g>
</g>
<!-- Node8&#45;&gt;Node6 -->
<g id="edge13_Node000008_Node000006" class="edge">
<title>Node8&#45;&gt;Node6</title>
<g id="a_edge13_Node000008_Node000006"><a xlink:title=" ">
<path fill="none" stroke="#63b8ff" d="M312.84,-54.98C304.5,-47.23 291.97,-35.58 281.82,-26.14"/>
<polygon fill="#63b8ff" stroke="#63b8ff" points="284.03,-23.42 274.32,-19.17 279.26,-28.54 284.03,-23.42"/>
</a>
</g>
</g>
<!-- Node8&#45;&gt;Node7 -->
<g id="edge15_Node000008_Node000007" class="edge">
<title>Node8&#45;&gt;Node7</title>
<g id="a_edge15_Node000008_Node000007"><a xlink:title=" ">
<path fill="none" stroke="#63b8ff" d="M361.11,-54.94C398.29,-46.71 456.01,-33.7 514.49,-19.32"/>
<polygon fill="#63b8ff" stroke="#63b8ff" points="515.39,-22.7 524.26,-16.9 513.71,-15.9 515.39,-22.7"/>
</a>
</g>
</g>
<!-- Node9 -->
<g id="Node000009" class="node">
<title>Node9</title>
<g id="a_Node000009"><a xlink:title=" ">
<polygon fill="#e0e0e0" stroke="#999999" points="378.5,-19 319.5,-19 319.5,0 378.5,0 378.5,-19"/>
<text text-anchor="middle" x="349" y="-7" font-family="Helvetica,sans-Serif" font-size="10.00">complex</text>
</a>
</g>
</g>
<!-- Node8&#45;&gt;Node9 -->
<g id="edge8_Node000008_Node000009" class="edge">
<title>Node8&#45;&gt;Node9</title>
<g id="a_edge8_Node000008_Node000009"><a xlink:title=" ">
<path fill="none" stroke="#63b8ff" d="M326.46,-54.75C330.12,-47.57 335.41,-37.18 339.95,-28.27"/>
<polygon fill="#63b8ff" stroke="#63b8ff" points="343.2,-29.59 344.62,-19.09 336.97,-26.41 343.2,-29.59"/>
</a>
</g>
</g>
<!-- Node10 -->
<g id="Node000010" class="node">
<title>Node10</title>
<g id="a_Node000010"><a xlink:title=" ">
<polygon fill="#e0e0e0" stroke="#999999" points="437,-19 397,-19 397,0 437,0 437,-19"/>
<text text-anchor="middle" x="417" y="-7" font-family="Helvetica,sans-Serif" font-size="10.00">span</text>
</a>
</g>
</g>
<!-- Node8&#45;&gt;Node10 -->
<g id="edge12_Node000008_Node000010" class="edge">
<title>Node8&#45;&gt;Node10</title>
<g id="a_edge12_Node000008_Node000010"><a xlink:title=" ">
<path fill="none" stroke="#63b8ff" d="M337.26,-54.98C352.13,-46.69 374.98,-33.94 392.42,-24.22"/>
<polygon fill="#63b8ff" stroke="#63b8ff" points="394.43,-27.1 401.46,-19.17 391.02,-20.99 394.43,-27.1"/>
</a>
</g>
</g>
<!-- Node11 -->
<g id="Node000011" class="node">
<title>Node11</title>
<g id="a_Node000011"><a xlink:title=" ">
<polygon fill="#e0e0e0" stroke="#999999" points="506.5,-19 455.5,-19 455.5,0 506.5,0 506.5,-19"/>
<text text-anchor="middle" x="481" y="-7" font-family="Helvetica,sans-Serif" font-size="10.00">variant</text>
</a>
</g>
</g>
<!-- Node8&#45;&gt;Node11 -->
<g id="edge14_Node000008_Node000011" class="edge">
<title>Node8&#45;&gt;Node11</title>
<g id="a_edge14_Node000008_Node000011"><a xlink:title=" ">
<path fill="none" stroke="#63b8ff" d="M347.55,-54.98C374.12,-46.13 415.94,-32.19 445.67,-22.28"/>
<polygon fill="#63b8ff" stroke="#63b8ff" points="446.87,-25.56 455.25,-19.08 444.66,-18.92 446.87,-25.56"/>
</a>
</g>
</g>
</g>
</svg>
