<?xml version="1.0" encoding="UTF-8" standalone="no"?>
<!DOCTYPE svg PUBLIC "-//W3C//DTD SVG 1.1//EN"
 "http://www.w3.org/Graphics/SVG/1.1/DTD/svg11.dtd">
<!-- Generated by graphviz version 2.43.0 (0)
 -->
<!-- Title: /home/runner/work/rt&#45;vamp&#45;plugin&#45;sdk/rt&#45;vamp&#45;plugin&#45;sdk/hostsdk/include/rtvamp/hostsdk/PluginKey.hpp Pages: 1 -->
<svg width="242pt" height="239pt"
 viewBox="0.00 0.00 241.50 239.00" xmlns="http://www.w3.org/2000/svg" xmlns:xlink="http://www.w3.org/1999/xlink">
<g id="graph0" class="graph" transform="scale(1 1) rotate(0) translate(4 235)">
<title>/home/runner/work/rt&#45;vamp&#45;plugin&#45;sdk/rt&#45;vamp&#45;plugin&#45;sdk/hostsdk/include/rtvamp/hostsdk/PluginKey.hpp</title>
<!-- Node1 -->
<g id="node1" class="node">
<title>Node1</title>
<g id="a_node1"><a xlink:title=" ">
<polygon fill="#bfbfbf" stroke="black" points="66.5,-178.5 66.5,-230.5 233.5,-230.5 233.5,-178.5 66.5,-178.5"/>
<text text-anchor="start" x="74.5" y="-218.5" font-family="Helvetica,sans-Serif" font-size="10.00">/home/runner/work/rt</text>
<text text-anchor="start" x="74.5" y="-207.5" font-family="Helvetica,sans-Serif" font-size="10.00">&#45;vamp&#45;plugin&#45;sdk/rt&#45;vamp</text>
<text text-anchor="start" x="74.5" y="-196.5" font-family="Helvetica,sans-Serif" font-size="10.00">&#45;plugin&#45;sdk/hostsdk/include</text>
<text text-anchor="middle" x="150" y="-185.5" font-family="Helvetica,sans-Serif" font-size="10.00">/rtvamp/hostsdk/PluginKey.hpp</text>
</a>
</g>
</g>
<!-- Node2 -->
<g id="node2" class="node">
<title>Node2</title>
<g id="a_node2"><a xlink:href="PluginLibrary_8hpp.html" target="_top" xlink:title=" ">
<polygon fill="none" stroke="black" points="0,-89.5 0,-141.5 182,-141.5 182,-89.5 0,-89.5"/>
<text text-anchor="start" x="8" y="-129.5" font-family="Helvetica,sans-Serif" font-size="10.00">/home/runner/work/rt</text>
<text text-anchor="start" x="8" y="-118.5" font-family="Helvetica,sans-Serif" font-size="10.00">&#45;vamp&#45;plugin&#45;sdk/rt&#45;vamp</text>
<text text-anchor="start" x="8" y="-107.5" font-family="Helvetica,sans-Serif" font-size="10.00">&#45;plugin&#45;sdk/hostsdk/include</text>
<text text-anchor="middle" x="91" y="-96.5" font-family="Helvetica,sans-Serif" font-size="10.00">/rtvamp/hostsdk/PluginLibrary.hpp</text>
</a>
</g>
</g>
<!-- Node1&#45;&gt;Node2 -->
<g id="edge1" class="edge">
<title>Node1&#45;&gt;Node2</title>
<path fill="none" stroke="midnightblue" d="M127.23,-169.93C120.85,-160.51 114.02,-150.44 108.03,-141.61"/>
<polygon fill="midnightblue" stroke="midnightblue" points="124.43,-172.02 132.93,-178.34 130.22,-168.1 124.43,-172.02"/>
</g>
<!-- Node3 -->
<g id="node3" class="node">
<title>Node3</title>
<g id="a_node3"><a xlink:href="hostsdk_8hpp.html" target="_top" xlink:title=" ">
<polygon fill="none" stroke="black" points="74.5,-0.5 74.5,-52.5 225.5,-52.5 225.5,-0.5 74.5,-0.5"/>
<text text-anchor="start" x="82.5" y="-40.5" font-family="Helvetica,sans-Serif" font-size="10.00">/home/runner/work/rt</text>
<text text-anchor="start" x="82.5" y="-29.5" font-family="Helvetica,sans-Serif" font-size="10.00">&#45;vamp&#45;plugin&#45;sdk/rt&#45;vamp</text>
<text text-anchor="start" x="82.5" y="-18.5" font-family="Helvetica,sans-Serif" font-size="10.00">&#45;plugin&#45;sdk/hostsdk/include</text>
<text text-anchor="middle" x="150" y="-7.5" font-family="Helvetica,sans-Serif" font-size="10.00">/rtvamp/hostsdk.hpp</text>
</a>
</g>
</g>
<!-- Node1&#45;&gt;Node3 -->
<g id="edge3" class="edge">
<title>Node1&#45;&gt;Node3</title>
<path fill="none" stroke="midnightblue" d="M177.38,-170.03C182.97,-161.39 188.04,-151.76 191,-142 197.83,-119.46 197.83,-111.54 191,-89 187.06,-75.98 179.35,-63.2 171.67,-52.69"/>
<polygon fill="midnightblue" stroke="midnightblue" points="174.47,-168.09 171.67,-178.31 180.23,-172.06 174.47,-168.09"/>
</g>
<!-- Node2&#45;&gt;Node3 -->
<g id="edge2" class="edge">
<title>Node2&#45;&gt;Node3</title>
<path fill="none" stroke="midnightblue" d="M113.77,-80.93C120.15,-71.51 126.98,-61.44 132.97,-52.61"/>
<polygon fill="midnightblue" stroke="midnightblue" points="110.78,-79.1 108.07,-89.34 116.57,-83.02 110.78,-79.1"/>
</g>
</g>
</svg>
