<?xml version="1.0" encoding="UTF-8" standalone="no"?>
<!DOCTYPE svg PUBLIC "-//W3C//DTD SVG 1.1//EN"
 "http://www.w3.org/Graphics/SVG/1.1/DTD/svg11.dtd">
<!-- Generated by graphviz version 2.43.0 (0)
 -->
<!-- Title: /home/runner/work/rt&#45;vamp&#45;plugin&#45;sdk/rt&#45;vamp&#45;plugin&#45;sdk/pluginsdk/include/rtvamp/pluginsdk/Plugin.hpp Pages: 1 -->
<svg width="694pt" height="115pt"
 viewBox="0.00 0.00 693.50 115.00" xmlns="http://www.w3.org/2000/svg" xmlns:xlink="http://www.w3.org/1999/xlink">
<g id="graph0" class="graph" transform="scale(1 1) rotate(0) translate(4 111)">
<title>/home/runner/work/rt&#45;vamp&#45;plugin&#45;sdk/rt&#45;vamp&#45;plugin&#45;sdk/pluginsdk/include/rtvamp/pluginsdk/Plugin.hpp</title>
<!-- Node1 -->
<g id="Node000001" class="node">
<title>Node1</title>
<g id="a_Node000001"><a xlink:title=" ">
<polygon fill="#999999" stroke="#666666" points="425,-107 265,-107 265,-55 425,-55 425,-107"/>
<text text-anchor="start" x="273" y="-95" font-family="Helvetica,sans-Serif" font-size="10.00">/home/runner/work/rt</text>
<text text-anchor="start" x="273" y="-84" font-family="Helvetica,sans-Serif" font-size="10.00">&#45;vamp&#45;plugin&#45;sdk/rt&#45;vamp</text>
<text text-anchor="start" x="273" y="-73" font-family="Helvetica,sans-Serif" font-size="10.00">&#45;plugin&#45;sdk/pluginsdk/include</text>
<text text-anchor="middle" x="345" y="-62" font-family="Helvetica,sans-Serif" font-size="10.00">/rtvamp/pluginsdk/Plugin.hpp</text>
</a>
</g>
</g>
<!-- Node2 -->
<g id="Node000002" class="node">
<title>Node2</title>
<g id="a_Node000002"><a xlink:title=" ">
<polygon fill="#e0e0e0" stroke="#999999" points="42,-19 0,-19 0,0 42,0 42,-19"/>
<text text-anchor="middle" x="21" y="-7" font-family="Helvetica,sans-Serif" font-size="10.00">array</text>
</a>
</g>
</g>
<!-- Node1&#45;&gt;Node2 -->
<g id="edge1_Node000001_Node000002" class="edge">
<title>Node1&#45;&gt;Node2</title>
<g id="a_edge1_Node000001_Node000002"><a xlink:title=" ">
<path fill="none" stroke="#63b8ff" d="M264.79,-64.97C207.92,-53.93 129.63,-37.99 52.19,-19.16"/>
<polygon fill="#63b8ff" stroke="#63b8ff" points="52.8,-15.7 42.26,-16.73 51.14,-22.5 52.8,-15.7"/>
</a>
</g>
</g>
<!-- Node3 -->
<g id="Node000003" class="node">
<title>Node3</title>
<g id="a_Node000003"><a xlink:title=" ">
<polygon fill="#e0e0e0" stroke="#999999" points="119.5,-19 60.5,-19 60.5,0 119.5,0 119.5,-19"/>
<text text-anchor="middle" x="90" y="-7" font-family="Helvetica,sans-Serif" font-size="10.00">complex</text>
</a>
</g>
</g>
<!-- Node1&#45;&gt;Node3 -->
<g id="edge2_Node000001_Node000003" class="edge">
<title>Node1&#45;&gt;Node3</title>
<g id="a_edge2_Node000001_Node000003"><a xlink:title=" ">
<path fill="none" stroke="#63b8ff" d="M264.67,-58.11C219.76,-45.86 165.76,-31.15 129.8,-21.35"/>
<polygon fill="#63b8ff" stroke="#63b8ff" points="130.28,-17.85 119.71,-18.6 128.44,-24.6 130.28,-17.85"/>
</a>
</g>
</g>
<!-- Node4 -->
<g id="Node000004" class="node">
<title>Node4</title>
<g id="a_Node000004"><a xlink:title=" ">
<polygon fill="#e0e0e0" stroke="#999999" points="198,-19 138,-19 138,0 198,0 198,-19"/>
<text text-anchor="middle" x="168" y="-7" font-family="Helvetica,sans-Serif" font-size="10.00">concepts</text>
</a>
</g>
</g>
<!-- Node1&#45;&gt;Node4 -->
<g id="edge3_Node000001_Node000004" class="edge">
<title>Node1&#45;&gt;Node4</title>
<g id="a_edge3_Node000001_Node000004"><a xlink:title=" ">
<path fill="none" stroke="#63b8ff" d="M281.1,-54.91C253.32,-44 222.04,-31.72 199.42,-22.84"/>
<polygon fill="#63b8ff" stroke="#63b8ff" points="200.58,-19.53 189.99,-19.14 198.02,-26.05 200.58,-19.53"/>
</a>
</g>
</g>
<!-- Node5 -->
<g id="Node000005" class="node">
<title>Node5</title>
<g id="a_Node000005"><a xlink:title=" ">
<polygon fill="#e0e0e0" stroke="#999999" points="266,-19 216,-19 216,0 266,0 266,-19"/>
<text text-anchor="middle" x="241" y="-7" font-family="Helvetica,sans-Serif" font-size="10.00">cstdint</text>
</a>
</g>
</g>
<!-- Node1&#45;&gt;Node5 -->
<g id="edge4_Node000001_Node000005" class="edge">
<title>Node1&#45;&gt;Node5</title>
<g id="a_edge4_Node000001_Node000005"><a xlink:title=" ">
<path fill="none" stroke="#63b8ff" d="M307.45,-54.91C292.47,-44.9 275.75,-33.72 262.83,-25.09"/>
<polygon fill="#63b8ff" stroke="#63b8ff" points="264.43,-21.95 254.17,-19.3 260.54,-27.77 264.43,-21.95"/>
</a>
</g>
</g>
<!-- Node6 -->
<g id="Node000006" class="node">
<title>Node6</title>
<g id="a_Node000006"><a xlink:title=" ">
<polygon fill="#e0e0e0" stroke="#999999" points="340,-19 284,-19 284,0 340,0 340,-19"/>
<text text-anchor="middle" x="312" y="-7" font-family="Helvetica,sans-Serif" font-size="10.00">optional</text>
</a>
</g>
</g>
<!-- Node1&#45;&gt;Node6 -->
<g id="edge5_Node000001_Node000006" class="edge">
<title>Node1&#45;&gt;Node6</title>
<g id="a_edge5_Node000001_Node000006"><a xlink:title=" ">
<path fill="none" stroke="#63b8ff" d="M333.09,-54.91C328.93,-46.16 324.36,-36.52 320.53,-28.47"/>
<polygon fill="#63b8ff" stroke="#63b8ff" points="323.63,-26.83 316.18,-19.3 317.31,-29.84 323.63,-26.83"/>
</a>
</g>
</g>
<!-- Node7 -->
<g id="Node000007" class="node">
<title>Node7</title>
<g id="a_Node000007"><a xlink:title=" ">
<polygon fill="#e0e0e0" stroke="#999999" points="398,-19 358,-19 358,0 398,0 398,-19"/>
<text text-anchor="middle" x="378" y="-7" font-family="Helvetica,sans-Serif" font-size="10.00">span</text>
</a>
</g>
</g>
<!-- Node1&#45;&gt;Node7 -->
<g id="edge6_Node000001_Node000007" class="edge">
<title>Node1&#45;&gt;Node7</title>
<g id="a_edge6_Node000001_Node000007"><a xlink:title=" ">
<path fill="none" stroke="#63b8ff" d="M356.91,-54.91C361.07,-46.16 365.64,-36.52 369.47,-28.47"/>
<polygon fill="#63b8ff" stroke="#63b8ff" points="372.69,-29.84 373.82,-19.3 366.37,-26.83 372.69,-29.84"/>
</a>
</g>
</g>
<!-- Node8 -->
<g id="Node000008" class="node">
<title>Node8</title>
<g id="a_Node000008"><a xlink:title=" ">
<polygon fill="#e0e0e0" stroke="#999999" points="460,-19 416,-19 416,0 460,0 460,-19"/>
<text text-anchor="middle" x="438" y="-7" font-family="Helvetica,sans-Serif" font-size="10.00">string</text>
</a>
</g>
</g>
<!-- Node1&#45;&gt;Node8 -->
<g id="edge7_Node000001_Node000008" class="edge">
<title>Node1&#45;&gt;Node8</title>
<g id="a_edge7_Node000001_Node000008"><a xlink:title=" ">
<path fill="none" stroke="#63b8ff" d="M378.58,-54.91C391.84,-44.99 406.63,-33.94 418.14,-25.34"/>
<polygon fill="#63b8ff" stroke="#63b8ff" points="420.31,-28.09 426.22,-19.3 416.12,-22.48 420.31,-28.09"/>
</a>
</g>
</g>
<!-- Node9 -->
<g id="Node000009" class="node">
<title>Node9</title>
<g id="a_Node000009"><a xlink:title=" ">
<polygon fill="#e0e0e0" stroke="#999999" points="551.5,-19 478.5,-19 478.5,0 551.5,0 551.5,-19"/>
<text text-anchor="middle" x="515" y="-7" font-family="Helvetica,sans-Serif" font-size="10.00">string_view</text>
</a>
</g>
</g>
<!-- Node1&#45;&gt;Node9 -->
<g id="edge8_Node000001_Node000009" class="edge">
<title>Node1&#45;&gt;Node9</title>
<g id="a_edge8_Node000001_Node000009"><a xlink:title=" ">
<path fill="none" stroke="#63b8ff" d="M406.37,-54.91C432.93,-44.05 462.83,-31.83 484.53,-22.96"/>
<polygon fill="#63b8ff" stroke="#63b8ff" points="485.95,-26.16 493.88,-19.14 483.3,-19.68 485.95,-26.16"/>
</a>
</g>
</g>
<!-- Node10 -->
<g id="Node000010" class="node">
<title>Node10</title>
<g id="a_Node000010"><a xlink:title=" ">
<polygon fill="#e0e0e0" stroke="#999999" points="620.5,-19 569.5,-19 569.5,0 620.5,0 620.5,-19"/>
<text text-anchor="middle" x="595" y="-7" font-family="Helvetica,sans-Serif" font-size="10.00">variant</text>
</a>
</g>
</g>
<!-- Node1&#45;&gt;Node10 -->
<g id="edge9_Node000001_Node000010" class="edge">
<title>Node1&#45;&gt;Node10</title>
<g id="a_edge9_Node000001_Node000010"><a xlink:title=" ">
<path fill="none" stroke="#63b8ff" d="M425.13,-57.72C470.5,-45.11 524.96,-29.97 559.76,-20.3"/>
<polygon fill="#63b8ff" stroke="#63b8ff" points="560.77,-23.65 569.47,-17.6 558.9,-16.9 560.77,-23.65"/>
</a>
</g>
</g>
<!-- Node11 -->
<g id="Node000011" class="node">
<title>Node11</title>
<g id="a_Node000011"><a xlink:title=" ">
<polygon fill="#e0e0e0" stroke="#999999" points="685.5,-19 638.5,-19 638.5,0 685.5,0 685.5,-19"/>
<text text-anchor="middle" x="662" y="-7" font-family="Helvetica,sans-Serif" font-size="10.00">vector</text>
</a>
</g>
</g>
<!-- Node1&#45;&gt;Node11 -->
<g id="edge10_Node000001_Node000011" class="edge">
<title>Node1&#45;&gt;Node11</title>
<g id="a_edge10_Node000001_Node000011"><a xlink:title=" ">
<path fill="none" stroke="#63b8ff" d="M425.09,-63.95C479.87,-52.71 554.38,-36.94 628.31,-19.33"/>
<polygon fill="#63b8ff" stroke="#63b8ff" points="629.36,-22.67 638.27,-16.94 627.73,-15.87 629.36,-22.67"/>
</a>
</g>
</g>
</g>
</svg>
