<?xml version="1.0" encoding="UTF-8" standalone="no"?>
<!DOCTYPE svg PUBLIC "-//W3C//DTD SVG 1.1//EN"
 "http://www.w3.org/Graphics/SVG/1.1/DTD/svg11.dtd">
<!-- Generated by graphviz version 2.43.0 (0)
 -->
<!-- Title: /home/runner/work/rt&#45;vamp&#45;plugin&#45;sdk/rt&#45;vamp&#45;plugin&#45;sdk/hostsdk/include/rtvamp/hostsdk/PluginHostAdapter.hpp Pages: 1 -->
<svg width="494pt" height="173pt"
 viewBox="0.00 0.00 493.50 173.00" xmlns="http://www.w3.org/2000/svg" xmlns:xlink="http://www.w3.org/1999/xlink">
<g id="graph0" class="graph" transform="scale(1 1) rotate(0) translate(4 169)">
<title>/home/runner/work/rt&#45;vamp&#45;plugin&#45;sdk/rt&#45;vamp&#45;plugin&#45;sdk/hostsdk/include/rtvamp/hostsdk/PluginHostAdapter.hpp</title>
<!-- Node1 -->
<g id="node1" class="node">
<title>Node1</title>
<g id="a_node1"><a xlink:title=" ">
<polygon fill="#bfbfbf" stroke="black" points="107,-112.5 107,-164.5 317,-164.5 317,-112.5 107,-112.5"/>
<text text-anchor="start" x="115" y="-152.5" font-family="Helvetica,sans-Serif" font-size="10.00">/home/runner/work/rt</text>
<text text-anchor="start" x="115" y="-141.5" font-family="Helvetica,sans-Serif" font-size="10.00">&#45;vamp&#45;plugin&#45;sdk/rt&#45;vamp</text>
<text text-anchor="start" x="115" y="-130.5" font-family="Helvetica,sans-Serif" font-size="10.00">&#45;plugin&#45;sdk/hostsdk/include</text>
<text text-anchor="middle" x="212" y="-119.5" font-family="Helvetica,sans-Serif" font-size="10.00">/rtvamp/hostsdk/PluginHostAdapter.hpp</text>
</a>
</g>
</g>
<!-- Node2 -->
<g id="node2" class="node">
<title>Node2</title>
<g id="a_node2"><a xlink:title=" ">
<polygon fill="none" stroke="#bfbfbf" points="0,-0.5 0,-19.5 50,-19.5 50,-0.5 0,-0.5"/>
<text text-anchor="middle" x="25" y="-7.5" font-family="Helvetica,sans-Serif" font-size="10.00">cstdint</text>
</a>
</g>
</g>
<!-- Node1&#45;&gt;Node2 -->
<g id="edge1" class="edge">
<title>Node1&#45;&gt;Node2</title>
<path fill="none" stroke="midnightblue" d="M174.61,-112.2C136,-86.09 77.13,-46.27 46,-25.21"/>
<polygon fill="midnightblue" stroke="midnightblue" points="47.88,-22.25 37.64,-19.55 43.96,-28.05 47.88,-22.25"/>
</g>
<!-- Node3 -->
<g id="node3" class="node">
<title>Node3</title>
<g id="a_node3"><a xlink:title=" ">
<polygon fill="none" stroke="#bfbfbf" points="393.5,-56.5 393.5,-75.5 458.5,-75.5 458.5,-56.5 393.5,-56.5"/>
<text text-anchor="middle" x="426" y="-63.5" font-family="Helvetica,sans-Serif" font-size="10.00">functional</text>
</a>
</g>
</g>
<!-- Node1&#45;&gt;Node3 -->
<g id="edge2" class="edge">
<title>Node1&#45;&gt;Node3</title>
<path fill="none" stroke="midnightblue" d="M288.05,-112.45C322.93,-100.95 362.61,-87.88 390.43,-78.72"/>
<polygon fill="midnightblue" stroke="midnightblue" points="391.71,-81.98 400.12,-75.53 389.52,-75.33 391.71,-81.98"/>
</g>
<!-- Node4 -->
<g id="node4" class="node">
<title>Node4</title>
<g id="a_node4"><a xlink:title=" ">
<polygon fill="none" stroke="#bfbfbf" points="68,-0.5 68,-19.5 124,-19.5 124,-0.5 68,-0.5"/>
<text text-anchor="middle" x="96" y="-7.5" font-family="Helvetica,sans-Serif" font-size="10.00">optional</text>
</a>
</g>
</g>
<!-- Node1&#45;&gt;Node4 -->
<g id="edge3" class="edge">
<title>Node1&#45;&gt;Node4</title>
<path fill="none" stroke="midnightblue" d="M188.8,-112.2C165.57,-86.87 130.52,-48.65 110.81,-27.15"/>
<polygon fill="midnightblue" stroke="midnightblue" points="113.18,-24.55 103.84,-19.55 108.02,-29.29 113.18,-24.55"/>
</g>
<!-- Node5 -->
<g id="node5" class="node">
<title>Node5</title>
<g id="a_node5"><a xlink:title=" ">
<polygon fill="none" stroke="#bfbfbf" points="142.5,-0.5 142.5,-19.5 215.5,-19.5 215.5,-0.5 142.5,-0.5"/>
<text text-anchor="middle" x="179" y="-7.5" font-family="Helvetica,sans-Serif" font-size="10.00">string_view</text>
</a>
</g>
</g>
<!-- Node1&#45;&gt;Node5 -->
<g id="edge4" class="edge">
<title>Node1&#45;&gt;Node5</title>
<path fill="none" stroke="midnightblue" d="M196.25,-112.45C190.31,-101.66 184.21,-88.63 181,-76 177.13,-60.77 176.88,-42.88 177.45,-29.73"/>
<polygon fill="midnightblue" stroke="midnightblue" points="180.96,-29.78 178.1,-19.58 173.97,-29.33 180.96,-29.78"/>
</g>
<!-- Node6 -->
<g id="node6" class="node">
<title>Node6</title>
<g id="a_node6"><a xlink:title=" ">
<polygon fill="none" stroke="#bfbfbf" points="438.5,-0.5 438.5,-19.5 485.5,-19.5 485.5,-0.5 438.5,-0.5"/>
<text text-anchor="middle" x="462" y="-7.5" font-family="Helvetica,sans-Serif" font-size="10.00">vector</text>
</a>
</g>
</g>
<!-- Node1&#45;&gt;Node6 -->
<g id="edge5" class="edge">
<title>Node1&#45;&gt;Node6</title>
<path fill="none" stroke="midnightblue" d="M269.21,-112.47C293.15,-101.68 321.13,-88.65 346,-76 378.73,-59.35 415.58,-38.29 438.79,-24.74"/>
<polygon fill="midnightblue" stroke="midnightblue" points="440.7,-27.67 447.55,-19.59 437.16,-21.63 440.7,-27.67"/>
</g>
<!-- Node7 -->
<g id="node7" class="node">
<title>Node7</title>
<g id="a_node7"><a xlink:href="hostsdk_2include_2rtvamp_2hostsdk_2Plugin_8hpp.html" target="_top" xlink:title=" ">
<polygon fill="none" stroke="black" points="189.5,-56.5 189.5,-75.5 336.5,-75.5 336.5,-56.5 189.5,-56.5"/>
<text text-anchor="middle" x="263" y="-63.5" font-family="Helvetica,sans-Serif" font-size="10.00">rtvamp/hostsdk/Plugin.hpp</text>
</a>
</g>
</g>
<!-- Node1&#45;&gt;Node7 -->
<g id="edge6" class="edge">
<title>Node1&#45;&gt;Node7</title>
<path fill="none" stroke="midnightblue" d="M230.12,-112.45C236.94,-103.03 244.52,-92.55 250.68,-84.03"/>
<polygon fill="midnightblue" stroke="midnightblue" points="253.68,-85.85 256.71,-75.7 248.01,-81.75 253.68,-85.85"/>
</g>
<!-- Node7&#45;&gt;Node2 -->
<g id="edge8" class="edge">
<title>Node7&#45;&gt;Node2</title>
<path fill="none" stroke="midnightblue" d="M221.86,-56.45C182.67,-48.19 121.79,-35.05 60.12,-20.2"/>
<polygon fill="midnightblue" stroke="midnightblue" points="60.76,-16.75 50.22,-17.8 59.12,-23.56 60.76,-16.75"/>
</g>
<!-- Node7&#45;&gt;Node4 -->
<g id="edge9" class="edge">
<title>Node7&#45;&gt;Node4</title>
<path fill="none" stroke="midnightblue" d="M236.54,-56.44C208.32,-47.32 163.46,-32.81 132.03,-22.65"/>
<polygon fill="midnightblue" stroke="midnightblue" points="132.93,-19.26 122.34,-19.52 130.78,-25.92 132.93,-19.26"/>
</g>
<!-- Node7&#45;&gt;Node5 -->
<g id="edge11" class="edge">
<title>Node7&#45;&gt;Node5</title>
<path fill="none" stroke="midnightblue" d="M249.5,-56.32C236.4,-47.9 216.29,-34.97 200.89,-25.07"/>
<polygon fill="midnightblue" stroke="midnightblue" points="202.77,-22.12 192.46,-19.65 198.98,-28.01 202.77,-22.12"/>
</g>
<!-- Node7&#45;&gt;Node6 -->
<g id="edge13" class="edge">
<title>Node7&#45;&gt;Node6</title>
<path fill="none" stroke="midnightblue" d="M295.04,-56.48C326.71,-48.03 376.8,-34.6 428.56,-20.38"/>
<polygon fill="midnightblue" stroke="midnightblue" points="429.53,-23.74 438.24,-17.71 427.67,-16.99 429.53,-23.74"/>
</g>
<!-- Node8 -->
<g id="node8" class="node">
<title>Node8</title>
<g id="a_node8"><a xlink:title=" ">
<polygon fill="none" stroke="#bfbfbf" points="233.5,-0.5 233.5,-19.5 292.5,-19.5 292.5,-0.5 233.5,-0.5"/>
<text text-anchor="middle" x="263" y="-7.5" font-family="Helvetica,sans-Serif" font-size="10.00">complex</text>
</a>
</g>
</g>
<!-- Node7&#45;&gt;Node8 -->
<g id="edge7" class="edge">
<title>Node7&#45;&gt;Node8</title>
<path fill="none" stroke="midnightblue" d="M263,-56.08C263,-49.01 263,-38.86 263,-29.99"/>
<polygon fill="midnightblue" stroke="midnightblue" points="266.5,-29.75 263,-19.75 259.5,-29.75 266.5,-29.75"/>
</g>
<!-- Node9 -->
<g id="node9" class="node">
<title>Node9</title>
<g id="a_node9"><a xlink:title=" ">
<polygon fill="none" stroke="#bfbfbf" points="311,-0.5 311,-19.5 351,-19.5 351,-0.5 311,-0.5"/>
<text text-anchor="middle" x="331" y="-7.5" font-family="Helvetica,sans-Serif" font-size="10.00">span</text>
</a>
</g>
</g>
<!-- Node7&#45;&gt;Node9 -->
<g id="edge10" class="edge">
<title>Node7&#45;&gt;Node9</title>
<path fill="none" stroke="midnightblue" d="M273.93,-56.32C284.17,-48.18 299.72,-35.84 312,-26.09"/>
<polygon fill="midnightblue" stroke="midnightblue" points="314.22,-28.79 319.88,-19.83 309.87,-23.31 314.22,-28.79"/>
</g>
<!-- Node10 -->
<g id="node10" class="node">
<title>Node10</title>
<g id="a_node10"><a xlink:title=" ">
<polygon fill="none" stroke="#bfbfbf" points="369.5,-0.5 369.5,-19.5 420.5,-19.5 420.5,-0.5 369.5,-0.5"/>
<text text-anchor="middle" x="395" y="-7.5" font-family="Helvetica,sans-Serif" font-size="10.00">variant</text>
</a>
</g>
</g>
<!-- Node7&#45;&gt;Node10 -->
<g id="edge12" class="edge">
<title>Node7&#45;&gt;Node10</title>
<path fill="none" stroke="midnightblue" d="M283.92,-56.44C305.74,-47.52 340.15,-33.44 364.89,-23.32"/>
<polygon fill="midnightblue" stroke="midnightblue" points="366.25,-26.54 374.18,-19.52 363.6,-20.06 366.25,-26.54"/>
</g>
</g>
</svg>
