<?xml version="1.0" encoding="UTF-8" standalone="no"?>
<!DOCTYPE svg PUBLIC "-//W3C//DTD SVG 1.1//EN"
 "http://www.w3.org/Graphics/SVG/1.1/DTD/svg11.dtd">
<!-- Generated by graphviz version 2.43.0 (0)
 -->
<!-- Title: /home/runner/work/rt&#45;vamp&#45;plugin&#45;sdk/rt&#45;vamp&#45;plugin&#45;sdk/hostsdk/include/rtvamp/hostsdk/PluginLibrary.hpp Pages: 1 -->
<svg width="738pt" height="173pt"
 viewBox="0.00 0.00 738.00 173.00" xmlns="http://www.w3.org/2000/svg" xmlns:xlink="http://www.w3.org/1999/xlink">
<g id="graph0" class="graph" transform="scale(1 1) rotate(0) translate(4 169)">
<title>/home/runner/work/rt&#45;vamp&#45;plugin&#45;sdk/rt&#45;vamp&#45;plugin&#45;sdk/hostsdk/include/rtvamp/hostsdk/PluginLibrary.hpp</title>
<!-- Node1 -->
<g id="node1" class="node">
<title>Node1</title>
<g id="a_node1"><a xlink:title=" ">
<polygon fill="#bfbfbf" stroke="black" points="136,-112.5 136,-164.5 318,-164.5 318,-112.5 136,-112.5"/>
<text text-anchor="start" x="144" y="-152.5" font-family="Helvetica,sans-Serif" font-size="10.00">/home/runner/work/rt</text>
<text text-anchor="start" x="144" y="-141.5" font-family="Helvetica,sans-Serif" font-size="10.00">&#45;vamp&#45;plugin&#45;sdk/rt&#45;vamp</text>
<text text-anchor="start" x="144" y="-130.5" font-family="Helvetica,sans-Serif" font-size="10.00">&#45;plugin&#45;sdk/hostsdk/include</text>
<text text-anchor="middle" x="227" y="-119.5" font-family="Helvetica,sans-Serif" font-size="10.00">/rtvamp/hostsdk/PluginLibrary.hpp</text>
</a>
</g>
</g>
<!-- Node2 -->
<g id="node2" class="node">
<title>Node2</title>
<g id="a_node2"><a xlink:title=" ">
<polygon fill="none" stroke="#bfbfbf" points="0,-56.5 0,-75.5 68,-75.5 68,-56.5 0,-56.5"/>
<text text-anchor="middle" x="34" y="-63.5" font-family="Helvetica,sans-Serif" font-size="10.00">filesystem</text>
</a>
</g>
</g>
<!-- Node1&#45;&gt;Node2 -->
<g id="edge1" class="edge">
<title>Node1&#45;&gt;Node2</title>
<path fill="none" stroke="midnightblue" d="M158.41,-112.45C127.23,-101.06 91.79,-88.11 66.74,-78.96"/>
<polygon fill="midnightblue" stroke="midnightblue" points="67.94,-75.67 57.34,-75.53 65.54,-82.25 67.94,-75.67"/>
</g>
<!-- Node3 -->
<g id="node3" class="node">
<title>Node3</title>
<g id="a_node3"><a xlink:title=" ">
<polygon fill="none" stroke="#bfbfbf" points="86,-56.5 86,-75.5 144,-75.5 144,-56.5 86,-56.5"/>
<text text-anchor="middle" x="115" y="-63.5" font-family="Helvetica,sans-Serif" font-size="10.00">memory</text>
</a>
</g>
</g>
<!-- Node1&#45;&gt;Node3 -->
<g id="edge2" class="edge">
<title>Node1&#45;&gt;Node3</title>
<path fill="none" stroke="midnightblue" d="M187.2,-112.45C170.38,-101.86 151.44,-89.94 137.17,-80.96"/>
<polygon fill="midnightblue" stroke="midnightblue" points="138.87,-77.89 128.55,-75.53 135.14,-83.82 138.87,-77.89"/>
</g>
<!-- Node4 -->
<g id="node4" class="node">
<title>Node4</title>
<g id="a_node4"><a xlink:title=" ">
<polygon fill="none" stroke="#bfbfbf" points="167,-0.5 167,-19.5 211,-19.5 211,-0.5 167,-0.5"/>
<text text-anchor="middle" x="189" y="-7.5" font-family="Helvetica,sans-Serif" font-size="10.00">string</text>
</a>
</g>
</g>
<!-- Node1&#45;&gt;Node4 -->
<g id="edge3" class="edge">
<title>Node1&#45;&gt;Node4</title>
<path fill="none" stroke="midnightblue" d="M208.52,-112.48C201.68,-101.79 194.69,-88.84 191,-76 186.65,-60.9 186.44,-43 187.16,-29.81"/>
<polygon fill="midnightblue" stroke="midnightblue" points="190.66,-29.86 187.94,-19.62 183.68,-29.32 190.66,-29.86"/>
</g>
<!-- Node5 -->
<g id="node5" class="node">
<title>Node5</title>
<g id="a_node5"><a xlink:title=" ">
<polygon fill="none" stroke="#bfbfbf" points="336.5,-0.5 336.5,-19.5 383.5,-19.5 383.5,-0.5 336.5,-0.5"/>
<text text-anchor="middle" x="360" y="-7.5" font-family="Helvetica,sans-Serif" font-size="10.00">vector</text>
</a>
</g>
</g>
<!-- Node1&#45;&gt;Node5 -->
<g id="edge4" class="edge">
<title>Node1&#45;&gt;Node5</title>
<path fill="none" stroke="midnightblue" d="M318.09,-117.91C339.63,-108.8 360.07,-95.48 373,-76 382.32,-61.96 376.72,-42.71 370.22,-28.81"/>
<polygon fill="midnightblue" stroke="midnightblue" points="373.25,-27.04 365.53,-19.78 367.04,-30.27 373.25,-27.04"/>
</g>
<!-- Node6 -->
<g id="node6" class="node">
<title>Node6</title>
<g id="a_node6"><a xlink:href="hostsdk_2include_2rtvamp_2hostsdk_2Plugin_8hpp.html" target="_top" xlink:title=" ">
<polygon fill="none" stroke="black" points="423.5,-56.5 423.5,-75.5 570.5,-75.5 570.5,-56.5 423.5,-56.5"/>
<text text-anchor="middle" x="497" y="-63.5" font-family="Helvetica,sans-Serif" font-size="10.00">rtvamp/hostsdk/Plugin.hpp</text>
</a>
</g>
</g>
<!-- Node1&#45;&gt;Node6 -->
<g id="edge5" class="edge">
<title>Node1&#45;&gt;Node6</title>
<path fill="none" stroke="midnightblue" d="M318.03,-113.73C364.21,-101.67 418.1,-87.6 454.58,-78.08"/>
<polygon fill="midnightblue" stroke="midnightblue" points="455.6,-81.43 464.39,-75.52 453.83,-74.66 455.6,-81.43"/>
</g>
<!-- Node13 -->
<g id="node13" class="node">
<title>Node13</title>
<g id="a_node13"><a xlink:href="PluginKey_8hpp.html" target="_top" xlink:title=" ">
<polygon fill="none" stroke="black" points="200,-56.5 200,-75.5 364,-75.5 364,-56.5 200,-56.5"/>
<text text-anchor="middle" x="282" y="-63.5" font-family="Helvetica,sans-Serif" font-size="10.00">rtvamp/hostsdk/PluginKey.hpp</text>
</a>
</g>
</g>
<!-- Node1&#45;&gt;Node13 -->
<g id="edge13" class="edge">
<title>Node1&#45;&gt;Node13</title>
<path fill="none" stroke="midnightblue" d="M246.55,-112.45C253.97,-102.93 262.24,-92.33 268.93,-83.76"/>
<polygon fill="midnightblue" stroke="midnightblue" points="271.82,-85.73 275.22,-75.7 266.31,-81.43 271.82,-85.73"/>
</g>
<!-- Node6&#45;&gt;Node5 -->
<g id="edge12" class="edge">
<title>Node6&#45;&gt;Node5</title>
<path fill="none" stroke="midnightblue" d="M475.29,-56.44C452.65,-47.52 416.93,-33.44 391.25,-23.32"/>
<polygon fill="midnightblue" stroke="midnightblue" points="392.19,-19.93 381.61,-19.52 389.63,-26.44 392.19,-19.93"/>
</g>
<!-- Node7 -->
<g id="node7" class="node">
<title>Node7</title>
<g id="a_node7"><a xlink:title=" ">
<polygon fill="none" stroke="#bfbfbf" points="470.5,-0.5 470.5,-19.5 529.5,-19.5 529.5,-0.5 470.5,-0.5"/>
<text text-anchor="middle" x="500" y="-7.5" font-family="Helvetica,sans-Serif" font-size="10.00">complex</text>
</a>
</g>
</g>
<!-- Node6&#45;&gt;Node7 -->
<g id="edge6" class="edge">
<title>Node6&#45;&gt;Node7</title>
<path fill="none" stroke="midnightblue" d="M497.5,-56.08C497.89,-49.01 498.45,-38.86 498.95,-29.99"/>
<polygon fill="midnightblue" stroke="midnightblue" points="502.45,-29.93 499.51,-19.75 495.46,-29.54 502.45,-29.93"/>
</g>
<!-- Node8 -->
<g id="node8" class="node">
<title>Node8</title>
<g id="a_node8"><a xlink:title=" ">
<polygon fill="none" stroke="#bfbfbf" points="548,-0.5 548,-19.5 598,-19.5 598,-0.5 548,-0.5"/>
<text text-anchor="middle" x="573" y="-7.5" font-family="Helvetica,sans-Serif" font-size="10.00">cstdint</text>
</a>
</g>
</g>
<!-- Node6&#45;&gt;Node8 -->
<g id="edge7" class="edge">
<title>Node6&#45;&gt;Node8</title>
<path fill="none" stroke="midnightblue" d="M509.21,-56.32C520.78,-48.11 538.38,-35.6 552.16,-25.81"/>
<polygon fill="midnightblue" stroke="midnightblue" points="554.44,-28.48 560.57,-19.83 550.39,-22.77 554.44,-28.48"/>
</g>
<!-- Node9 -->
<g id="node9" class="node">
<title>Node9</title>
<g id="a_node9"><a xlink:title=" ">
<polygon fill="none" stroke="#bfbfbf" points="616,-0.5 616,-19.5 672,-19.5 672,-0.5 616,-0.5"/>
<text text-anchor="middle" x="644" y="-7.5" font-family="Helvetica,sans-Serif" font-size="10.00">optional</text>
</a>
</g>
</g>
<!-- Node6&#45;&gt;Node9 -->
<g id="edge8" class="edge">
<title>Node6&#45;&gt;Node9</title>
<path fill="none" stroke="midnightblue" d="M520.29,-56.44C544.81,-47.44 583.6,-33.19 611.2,-23.05"/>
<polygon fill="midnightblue" stroke="midnightblue" points="612.64,-26.25 620.82,-19.52 610.22,-19.68 612.64,-26.25"/>
</g>
<!-- Node10 -->
<g id="node10" class="node">
<title>Node10</title>
<g id="a_node10"><a xlink:title=" ">
<polygon fill="none" stroke="#bfbfbf" points="690,-0.5 690,-19.5 730,-19.5 730,-0.5 690,-0.5"/>
<text text-anchor="middle" x="710" y="-7.5" font-family="Helvetica,sans-Serif" font-size="10.00">span</text>
</a>
</g>
</g>
<!-- Node6&#45;&gt;Node10 -->
<g id="edge9" class="edge">
<title>Node6&#45;&gt;Node10</title>
<path fill="none" stroke="midnightblue" d="M534.88,-56.45C570.16,-48.33 624.43,-35.43 680.09,-20.13"/>
<polygon fill="midnightblue" stroke="midnightblue" points="681.06,-23.5 689.77,-17.45 679.19,-16.75 681.06,-23.5"/>
</g>
<!-- Node11 -->
<g id="node11" class="node">
<title>Node11</title>
<g id="a_node11"><a xlink:title=" ">
<polygon fill="none" stroke="#bfbfbf" points="245.5,-0.5 245.5,-19.5 318.5,-19.5 318.5,-0.5 245.5,-0.5"/>
<text text-anchor="middle" x="282" y="-7.5" font-family="Helvetica,sans-Serif" font-size="10.00">string_view</text>
</a>
</g>
</g>
<!-- Node6&#45;&gt;Node11 -->
<g id="edge10" class="edge">
<title>Node6&#45;&gt;Node11</title>
<path fill="none" stroke="midnightblue" d="M462.93,-56.44C425.82,-47.12 366.34,-32.18 325.79,-22"/>
<polygon fill="midnightblue" stroke="midnightblue" points="326.46,-18.56 315.91,-19.52 324.75,-25.35 326.46,-18.56"/>
</g>
<!-- Node12 -->
<g id="node12" class="node">
<title>Node12</title>
<g id="a_node12"><a xlink:title=" ">
<polygon fill="none" stroke="#bfbfbf" points="401.5,-0.5 401.5,-19.5 452.5,-19.5 452.5,-0.5 401.5,-0.5"/>
<text text-anchor="middle" x="427" y="-7.5" font-family="Helvetica,sans-Serif" font-size="10.00">variant</text>
</a>
</g>
</g>
<!-- Node6&#45;&gt;Node12 -->
<g id="edge11" class="edge">
<title>Node6&#45;&gt;Node12</title>
<path fill="none" stroke="midnightblue" d="M485.75,-56.32C475.2,-48.18 459.2,-35.84 446.56,-26.09"/>
<polygon fill="midnightblue" stroke="midnightblue" points="448.51,-23.17 438.45,-19.83 444.23,-28.71 448.51,-23.17"/>
</g>
<!-- Node13&#45;&gt;Node4 -->
<g id="edge14" class="edge">
<title>Node13&#45;&gt;Node4</title>
<path fill="none" stroke="midnightblue" d="M267.06,-56.32C252.41,-47.82 229.87,-34.73 212.76,-24.8"/>
<polygon fill="midnightblue" stroke="midnightblue" points="214.31,-21.65 203.9,-19.65 210.8,-27.7 214.31,-21.65"/>
</g>
<!-- Node13&#45;&gt;Node11 -->
<g id="edge15" class="edge">
<title>Node13&#45;&gt;Node11</title>
<path fill="none" stroke="midnightblue" d="M282,-56.08C282,-49.01 282,-38.86 282,-29.99"/>
<polygon fill="midnightblue" stroke="midnightblue" points="285.5,-29.75 282,-19.75 278.5,-29.75 285.5,-29.75"/>
</g>
</g>
</svg>
