<?xml version="1.0" encoding="UTF-8" standalone="no"?>
<!DOCTYPE svg PUBLIC "-//W3C//DTD SVG 1.1//EN"
 "http://www.w3.org/Graphics/SVG/1.1/DTD/svg11.dtd">
<!-- Generated by graphviz version 2.43.0 (0)
 -->
<!-- Title: /home/runner/work/rt&#45;vamp&#45;plugin&#45;sdk/rt&#45;vamp&#45;plugin&#45;sdk/pluginsdk/include/rtvamp/pluginsdk/PluginExt.hpp Pages: 1 -->
<svg width="619pt" height="170pt"
 viewBox="0.00 0.00 618.50 170.00" xmlns="http://www.w3.org/2000/svg" xmlns:xlink="http://www.w3.org/1999/xlink">
<g id="graph0" class="graph" transform="scale(1 1) rotate(0) translate(4 166)">
<title>/home/runner/work/rt&#45;vamp&#45;plugin&#45;sdk/rt&#45;vamp&#45;plugin&#45;sdk/pluginsdk/include/rtvamp/pluginsdk/PluginExt.hpp</title>
<!-- Node1 -->
<g id="Node000001" class="node">
<title>Node1</title>
<g id="a_Node000001"><a xlink:title=" ">
<polygon fill="#999999" stroke="#666666" points="293.5,-162 118.5,-162 118.5,-110 293.5,-110 293.5,-162"/>
<text text-anchor="start" x="126.5" y="-150" font-family="Helvetica,sans-Serif" font-size="10.00">/home/runner/work/rt</text>
<text text-anchor="start" x="126.5" y="-139" font-family="Helvetica,sans-Serif" font-size="10.00">&#45;vamp&#45;plugin&#45;sdk/rt&#45;vamp</text>
<text text-anchor="start" x="126.5" y="-128" font-family="Helvetica,sans-Serif" font-size="10.00">&#45;plugin&#45;sdk/pluginsdk/include</text>
<text text-anchor="middle" x="206" y="-117" font-family="Helvetica,sans-Serif" font-size="10.00">/rtvamp/pluginsdk/PluginExt.hpp</text>
</a>
</g>
</g>
<!-- Node2 -->
<g id="Node000002" class="node">
<title>Node2</title>
<g id="a_Node000002"><a xlink:title=" ">
<polygon fill="#e0e0e0" stroke="#999999" points="64,-74 0,-74 0,-55 64,-55 64,-74"/>
<text text-anchor="middle" x="32" y="-62" font-family="Helvetica,sans-Serif" font-size="10.00">algorithm</text>
</a>
</g>
</g>
<!-- Node1&#45;&gt;Node2 -->
<g id="edge1_Node000001_Node000002" class="edge">
<title>Node1&#45;&gt;Node2</title>
<g id="a_edge1_Node000001_Node000002"><a xlink:title=" ">
<path fill="none" stroke="#63b8ff" d="M143.18,-109.91C116,-99.05 85.4,-86.83 63.19,-77.96"/>
<polygon fill="#63b8ff" stroke="#63b8ff" points="64.2,-74.59 53.62,-74.14 61.61,-81.1 64.2,-74.59"/>
</a>
</g>
</g>
<!-- Node3 -->
<g id="Node000003" class="node">
<title>Node3</title>
<g id="a_Node000003"><a xlink:title=" ">
<polygon fill="#e0e0e0" stroke="#999999" points="45,-19 3,-19 3,0 45,0 45,-19"/>
<text text-anchor="middle" x="24" y="-7" font-family="Helvetica,sans-Serif" font-size="10.00">array</text>
</a>
</g>
</g>
<!-- Node1&#45;&gt;Node3 -->
<g id="edge2_Node000001_Node000003" class="edge">
<title>Node1&#45;&gt;Node3</title>
<g id="a_edge2_Node000001_Node000003"><a xlink:title=" ">
<path fill="none" stroke="#63b8ff" d="M169.17,-109.81C131.89,-84.31 75.55,-45.76 45.18,-24.99"/>
<polygon fill="#63b8ff" stroke="#63b8ff" points="46.87,-21.91 36.64,-19.15 42.92,-27.68 46.87,-21.91"/>
</a>
</g>
</g>
<!-- Node4 -->
<g id="Node000004" class="node">
<title>Node4</title>
<g id="a_Node000004"><a xlink:title=" ">
<polygon fill="#e0e0e0" stroke="#999999" points="498,-74 446,-74 446,-55 498,-55 498,-74"/>
<text text-anchor="middle" x="472" y="-62" font-family="Helvetica,sans-Serif" font-size="10.00">cassert</text>
</a>
</g>
</g>
<!-- Node1&#45;&gt;Node4 -->
<g id="edge3_Node000001_Node000004" class="edge">
<title>Node1&#45;&gt;Node4</title>
<g id="a_edge3_Node000001_Node000004"><a xlink:title=" ">
<path fill="none" stroke="#63b8ff" d="M293.84,-112.05C342.18,-99.42 399.56,-84.43 435.87,-74.94"/>
<polygon fill="#63b8ff" stroke="#63b8ff" points="437.19,-78.21 445.98,-72.3 435.42,-71.44 437.19,-78.21"/>
</a>
</g>
</g>
<!-- Node5 -->
<g id="Node000005" class="node">
<title>Node5</title>
<g id="a_Node000005"><a xlink:title=" ">
<polygon fill="#e0e0e0" stroke="#999999" points="563.5,-74 516.5,-74 516.5,-55 563.5,-55 563.5,-74"/>
<text text-anchor="middle" x="540" y="-62" font-family="Helvetica,sans-Serif" font-size="10.00">cmath</text>
</a>
</g>
</g>
<!-- Node1&#45;&gt;Node5 -->
<g id="edge4_Node000001_Node000005" class="edge">
<title>Node1&#45;&gt;Node5</title>
<g id="a_edge4_Node000001_Node000005"><a xlink:title=" ">
<path fill="none" stroke="#63b8ff" d="M293.52,-118.51C351.25,-107.35 428.76,-91.8 506.3,-74.06"/>
<polygon fill="#63b8ff" stroke="#63b8ff" points="507.28,-77.43 516.24,-71.78 505.71,-70.61 507.28,-77.43"/>
</a>
</g>
</g>
<!-- Node6 -->
<g id="Node000006" class="node">
<title>Node6</title>
<g id="a_Node000006"><a xlink:title=" ">
<polygon fill="#e0e0e0" stroke="#999999" points="113,-19 63,-19 63,0 113,0 113,-19"/>
<text text-anchor="middle" x="88" y="-7" font-family="Helvetica,sans-Serif" font-size="10.00">cstdint</text>
</a>
</g>
</g>
<!-- Node1&#45;&gt;Node6 -->
<g id="edge5_Node000001_Node000006" class="edge">
<title>Node1&#45;&gt;Node6</title>
<g id="a_edge5_Node000001_Node000006"><a xlink:title=" ">
<path fill="none" stroke="#63b8ff" d="M182.12,-109.81C158.58,-84.97 123.3,-47.75 103.3,-26.64"/>
<polygon fill="#63b8ff" stroke="#63b8ff" points="105.62,-24 96.2,-19.15 100.54,-28.82 105.62,-24"/>
</a>
</g>
</g>
<!-- Node7 -->
<g id="Node000007" class="node">
<title>Node7</title>
<g id="a_Node000007"><a xlink:title=" ">
<polygon fill="#e0e0e0" stroke="#999999" points="187,-19 131,-19 131,0 187,0 187,-19"/>
<text text-anchor="middle" x="159" y="-7" font-family="Helvetica,sans-Serif" font-size="10.00">optional</text>
</a>
</g>
</g>
<!-- Node1&#45;&gt;Node7 -->
<g id="edge6_Node000001_Node000007" class="edge">
<title>Node1&#45;&gt;Node7</title>
<g id="a_edge6_Node000001_Node000007"><a xlink:title=" ">
<path fill="none" stroke="#63b8ff" d="M196.49,-109.81C187.4,-85.74 173.93,-50.04 165.85,-28.65"/>
<polygon fill="#63b8ff" stroke="#63b8ff" points="169.07,-27.27 162.27,-19.15 162.52,-29.74 169.07,-27.27"/>
</a>
</g>
</g>
<!-- Node8 -->
<g id="Node000008" class="node">
<title>Node8</title>
<g id="a_Node000008"><a xlink:title=" ">
<polygon fill="#e0e0e0" stroke="#999999" points="278.5,-19 205.5,-19 205.5,0 278.5,0 278.5,-19"/>
<text text-anchor="middle" x="242" y="-7" font-family="Helvetica,sans-Serif" font-size="10.00">string_view</text>
</a>
</g>
</g>
<!-- Node1&#45;&gt;Node8 -->
<g id="edge7_Node000001_Node000008" class="edge">
<title>Node1&#45;&gt;Node8</title>
<g id="a_edge7_Node000001_Node000008"><a xlink:title=" ">
<path fill="none" stroke="#63b8ff" d="M211.07,-109.91C214.5,-94.03 219.41,-73.14 225,-55 227.71,-46.21 231.28,-36.65 234.44,-28.66"/>
<polygon fill="#63b8ff" stroke="#63b8ff" points="237.74,-29.83 238.27,-19.25 231.26,-27.19 237.74,-29.83"/>
</a>
</g>
</g>
<!-- Node9 -->
<g id="Node000009" class="node">
<title>Node9</title>
<g id="a_Node000009"><a xlink:title=" ">
<polygon fill="#e0e0e0" stroke="#999999" points="610.5,-19 563.5,-19 563.5,0 610.5,0 610.5,-19"/>
<text text-anchor="middle" x="587" y="-7" font-family="Helvetica,sans-Serif" font-size="10.00">vector</text>
</a>
</g>
</g>
<!-- Node1&#45;&gt;Node9 -->
<g id="edge8_Node000001_Node000009" class="edge">
<title>Node1&#45;&gt;Node9</title>
<g id="a_edge8_Node000001_Node000009"><a xlink:title=" ">
<path fill="none" stroke="#63b8ff" d="M293.98,-110.39C327.29,-100.24 365.29,-87.66 399,-74 416.5,-66.91 419.44,-61.93 437,-55 458.19,-46.63 516,-30.13 553.36,-19.74"/>
<polygon fill="#63b8ff" stroke="#63b8ff" points="554.6,-23.03 563.3,-16.98 552.73,-16.28 554.6,-23.03"/>
</a>
</g>
</g>
<!-- Node10 -->
<g id="Node000010" class="node">
<title>Node10</title>
<g id="a_Node000010"><a xlink:href="pluginsdk_2include_2rtvamp_2pluginsdk_2Plugin_8hpp.html" target="_top" xlink:title=" ">
<polygon fill="white" stroke="#666666" points="390,-74 234,-74 234,-55 390,-55 390,-74"/>
<text text-anchor="middle" x="312" y="-62" font-family="Helvetica,sans-Serif" font-size="10.00">rtvamp/pluginsdk/Plugin.hpp</text>
</a>
</g>
</g>
<!-- Node1&#45;&gt;Node10 -->
<g id="edge9_Node000001_Node000010" class="edge">
<title>Node1&#45;&gt;Node10</title>
<g id="a_edge9_Node000001_Node000010"><a xlink:title=" ">
<path fill="none" stroke="#63b8ff" d="M244.27,-109.91C259.69,-99.8 276.91,-88.51 290.13,-79.84"/>
<polygon fill="#63b8ff" stroke="#63b8ff" points="292.13,-82.71 298.58,-74.3 288.29,-76.86 292.13,-82.71"/>
</a>
</g>
</g>
<!-- Node10&#45;&gt;Node3 -->
<g id="edge10_Node000010_Node000003" class="edge">
<title>Node10&#45;&gt;Node3</title>
<g id="a_edge10_Node000010_Node000003"><a xlink:title=" ">
<path fill="none" stroke="#63b8ff" d="M251.95,-54.98C201.69,-47.42 127.93,-35.38 55.04,-19.04"/>
<polygon fill="#63b8ff" stroke="#63b8ff" points="55.76,-15.61 45.23,-16.82 54.21,-22.44 55.76,-15.61"/>
</a>
</g>
</g>
<!-- Node10&#45;&gt;Node6 -->
<g id="edge12_Node000010_Node000006" class="edge">
<title>Node10&#45;&gt;Node6</title>
<g id="a_edge12_Node000010_Node000006"><a xlink:title=" ">
<path fill="none" stroke="#63b8ff" d="M274.83,-54.97C238.52,-46.59 181.43,-33.33 123.01,-19.22"/>
<polygon fill="#63b8ff" stroke="#63b8ff" points="123.78,-15.8 113.24,-16.85 122.14,-22.61 123.78,-15.8"/>
</a>
</g>
</g>
<!-- Node10&#45;&gt;Node7 -->
<g id="edge13_Node000010_Node000007" class="edge">
<title>Node10&#45;&gt;Node7</title>
<g id="a_edge13_Node000010_Node000007"><a xlink:title=" ">
<path fill="none" stroke="#63b8ff" d="M287.42,-54.98C261.95,-46.16 221.96,-32.31 193.37,-22.41"/>
<polygon fill="#63b8ff" stroke="#63b8ff" points="194.37,-19.05 183.77,-19.08 192.08,-25.66 194.37,-19.05"/>
</a>
</g>
</g>
<!-- Node10&#45;&gt;Node8 -->
<g id="edge16_Node000010_Node000008" class="edge">
<title>Node10&#45;&gt;Node8</title>
<g id="a_edge16_Node000010_Node000008"><a xlink:title=" ">
<path fill="none" stroke="#63b8ff" d="M300.75,-54.98C290.2,-47 274.2,-34.88 261.56,-25.31"/>
<polygon fill="#63b8ff" stroke="#63b8ff" points="263.54,-22.42 253.45,-19.17 259.31,-28 263.54,-22.42"/>
</a>
</g>
</g>
<!-- Node10&#45;&gt;Node9 -->
<g id="edge18_Node000010_Node000009" class="edge">
<title>Node10&#45;&gt;Node9</title>
<g id="a_edge18_Node000010_Node000009"><a xlink:title=" ">
<path fill="none" stroke="#63b8ff" d="M364.61,-54.92C411.57,-47.02 482.41,-34.49 553.26,-19.03"/>
<polygon fill="#63b8ff" stroke="#63b8ff" points="554.24,-22.4 563.25,-16.83 552.74,-15.56 554.24,-22.4"/>
</a>
</g>
</g>
<!-- Node11 -->
<g id="Node000011" class="node">
<title>Node11</title>
<g id="a_Node000011"><a xlink:title=" ">
<polygon fill="#e0e0e0" stroke="#999999" points="424.5,-19 365.5,-19 365.5,0 424.5,0 424.5,-19"/>
<text text-anchor="middle" x="395" y="-7" font-family="Helvetica,sans-Serif" font-size="10.00">complex</text>
</a>
</g>
</g>
<!-- Node10&#45;&gt;Node11 -->
<g id="edge11_Node000010_Node000011" class="edge">
<title>Node10&#45;&gt;Node11</title>
<g id="a_edge11_Node000010_Node000011"><a xlink:title=" ">
<path fill="none" stroke="#63b8ff" d="M325.34,-54.98C338.09,-46.84 357.55,-34.41 372.67,-24.76"/>
<polygon fill="#63b8ff" stroke="#63b8ff" points="374.88,-27.5 381.42,-19.17 371.11,-21.6 374.88,-27.5"/>
</a>
</g>
</g>
<!-- Node12 -->
<g id="Node000012" class="node">
<title>Node12</title>
<g id="a_Node000012"><a xlink:title=" ">
<polygon fill="#e0e0e0" stroke="#999999" points="483,-19 443,-19 443,0 483,0 483,-19"/>
<text text-anchor="middle" x="463" y="-7" font-family="Helvetica,sans-Serif" font-size="10.00">span</text>
</a>
</g>
</g>
<!-- Node10&#45;&gt;Node12 -->
<g id="edge14_Node000010_Node000012" class="edge">
<title>Node10&#45;&gt;Node12</title>
<g id="a_edge14_Node000010_Node000012"><a xlink:title=" ">
<path fill="none" stroke="#63b8ff" d="M336.26,-54.98C362.54,-45.76 404.52,-31.03 432.89,-21.07"/>
<polygon fill="#63b8ff" stroke="#63b8ff" points="434.4,-24.25 442.67,-17.63 432.08,-17.64 434.4,-24.25"/>
</a>
</g>
</g>
<!-- Node13 -->
<g id="Node000013" class="node">
<title>Node13</title>
<g id="a_Node000013"><a xlink:title=" ">
<polygon fill="#e0e0e0" stroke="#999999" points="545,-19 501,-19 501,0 545,0 545,-19"/>
<text text-anchor="middle" x="523" y="-7" font-family="Helvetica,sans-Serif" font-size="10.00">string</text>
</a>
</g>
</g>
<!-- Node10&#45;&gt;Node13 -->
<g id="edge15_Node000010_Node000013" class="edge">
<title>Node10&#45;&gt;Node13</title>
<g id="a_edge15_Node000010_Node000013"><a xlink:title=" ">
<path fill="none" stroke="#63b8ff" d="M347.59,-54.98C381.89,-46.71 435.5,-33.62 490.71,-19.29"/>
<polygon fill="#63b8ff" stroke="#63b8ff" points="491.87,-22.6 500.67,-16.7 490.11,-15.83 491.87,-22.6"/>
</a>
</g>
</g>
<!-- Node14 -->
<g id="Node000014" class="node">
<title>Node14</title>
<g id="a_Node000014"><a xlink:title=" ">
<polygon fill="#e0e0e0" stroke="#999999" points="347.5,-19 296.5,-19 296.5,0 347.5,0 347.5,-19"/>
<text text-anchor="middle" x="322" y="-7" font-family="Helvetica,sans-Serif" font-size="10.00">variant</text>
</a>
</g>
</g>
<!-- Node10&#45;&gt;Node14 -->
<g id="edge17_Node000010_Node000014" class="edge">
<title>Node10&#45;&gt;Node14</title>
<g id="a_edge17_Node000010_Node000014"><a xlink:title=" ">
<path fill="none" stroke="#63b8ff" d="M313.65,-54.75C314.96,-47.8 316.84,-37.85 318.48,-29.13"/>
<polygon fill="#63b8ff" stroke="#63b8ff" points="321.96,-29.56 320.38,-19.09 315.09,-28.27 321.96,-29.56"/>
</a>
</g>
</g>
</g>
</svg>
