<?xml version="1.0" encoding="UTF-8" standalone="no"?>
<!DOCTYPE svg PUBLIC "-//W3C//DTD SVG 1.1//EN"
 "http://www.w3.org/Graphics/SVG/1.1/DTD/svg11.dtd">
<!-- Generated by graphviz version 2.43.0 (0)
 -->
<!-- Title: /home/runner/work/rt&#45;vamp&#45;plugin&#45;sdk/rt&#45;vamp&#45;plugin&#45;sdk/hostsdk/include/rtvamp/hostsdk/PluginLibrary.hpp Pages: 1 -->
<svg width="697pt" height="173pt"
 viewBox="0.00 0.00 697.00 173.00" xmlns="http://www.w3.org/2000/svg" xmlns:xlink="http://www.w3.org/1999/xlink">
<g id="graph0" class="graph" transform="scale(1 1) rotate(0) translate(4 169)">
<title>/home/runner/work/rt&#45;vamp&#45;plugin&#45;sdk/rt&#45;vamp&#45;plugin&#45;sdk/hostsdk/include/rtvamp/hostsdk/PluginLibrary.hpp</title>
<!-- Node1 -->
<g id="node1" class="node">
<title>Node1</title>
<g id="a_node1"><a xlink:title=" ">
<polygon fill="#bfbfbf" stroke="black" points="306,-112.5 306,-164.5 488,-164.5 488,-112.5 306,-112.5"/>
<text text-anchor="start" x="314" y="-152.5" font-family="Helvetica,sans-Serif" font-size="10.00">/home/runner/work/rt</text>
<text text-anchor="start" x="314" y="-141.5" font-family="Helvetica,sans-Serif" font-size="10.00">&#45;vamp&#45;plugin&#45;sdk/rt&#45;vamp</text>
<text text-anchor="start" x="314" y="-130.5" font-family="Helvetica,sans-Serif" font-size="10.00">&#45;plugin&#45;sdk/hostsdk/include</text>
<text text-anchor="middle" x="397" y="-119.5" font-family="Helvetica,sans-Serif" font-size="10.00">/rtvamp/hostsdk/PluginLibrary.hpp</text>
</a>
</g>
</g>
<!-- Node2 -->
<g id="node2" class="node">
<title>Node2</title>
<g id="a_node2"><a xlink:title=" ">
<polygon fill="none" stroke="#bfbfbf" points="0,-0.5 0,-19.5 68,-19.5 68,-0.5 0,-0.5"/>
<text text-anchor="middle" x="34" y="-7.5" font-family="Helvetica,sans-Serif" font-size="10.00">filesystem</text>
</a>
</g>
</g>
<!-- Node1&#45;&gt;Node2 -->
<g id="edge1" class="edge">
<title>Node1&#45;&gt;Node2</title>
<path fill="none" stroke="midnightblue" d="M305.75,-113.92C267.75,-103.38 223.39,-90.16 184,-76 140.09,-60.22 90.71,-37.9 61,-23.95"/>
<polygon fill="midnightblue" stroke="midnightblue" points="62.25,-20.67 51.71,-19.56 59.26,-26.99 62.25,-20.67"/>
</g>
<!-- Node3 -->
<g id="node3" class="node">
<title>Node3</title>
<g id="a_node3"><a xlink:title=" ">
<polygon fill="none" stroke="#bfbfbf" points="631,-56.5 631,-75.5 689,-75.5 689,-56.5 631,-56.5"/>
<text text-anchor="middle" x="660" y="-63.5" font-family="Helvetica,sans-Serif" font-size="10.00">memory</text>
</a>
</g>
</g>
<!-- Node1&#45;&gt;Node3 -->
<g id="edge2" class="edge">
<title>Node1&#45;&gt;Node3</title>
<path fill="none" stroke="midnightblue" d="M488.25,-113.04C533.62,-100.88 586.06,-86.82 620.95,-77.47"/>
<polygon fill="midnightblue" stroke="midnightblue" points="621.99,-80.81 630.74,-74.84 620.17,-74.05 621.99,-80.81"/>
</g>
<!-- Node4 -->
<g id="node4" class="node">
<title>Node4</title>
<g id="a_node4"><a xlink:title=" ">
<polygon fill="none" stroke="#bfbfbf" points="591,-0.5 591,-19.5 635,-19.5 635,-0.5 591,-0.5"/>
<text text-anchor="middle" x="613" y="-7.5" font-family="Helvetica,sans-Serif" font-size="10.00">string</text>
</a>
</g>
</g>
<!-- Node1&#45;&gt;Node4 -->
<g id="edge3" class="edge">
<title>Node1&#45;&gt;Node4</title>
<path fill="none" stroke="midnightblue" d="M488.11,-123.52C521.47,-114.58 557.49,-99.93 584,-76 597.45,-63.86 605,-44.3 609.01,-29.81"/>
<polygon fill="midnightblue" stroke="midnightblue" points="612.45,-30.46 611.41,-19.92 605.65,-28.81 612.45,-30.46"/>
</g>
<!-- Node5 -->
<g id="node5" class="node">
<title>Node5</title>
<g id="a_node5"><a xlink:title=" ">
<polygon fill="none" stroke="#bfbfbf" points="86.5,-0.5 86.5,-19.5 133.5,-19.5 133.5,-0.5 86.5,-0.5"/>
<text text-anchor="middle" x="110" y="-7.5" font-family="Helvetica,sans-Serif" font-size="10.00">vector</text>
</a>
</g>
</g>
<!-- Node1&#45;&gt;Node5 -->
<g id="edge4" class="edge">
<title>Node1&#45;&gt;Node5</title>
<path fill="none" stroke="midnightblue" d="M319.37,-112.35C290.01,-102.08 256.57,-89.46 227,-76 192.98,-60.52 155.53,-38.83 132.38,-24.85"/>
<polygon fill="midnightblue" stroke="midnightblue" points="134.03,-21.76 123.67,-19.54 130.39,-27.74 134.03,-21.76"/>
</g>
<!-- Node6 -->
<g id="node6" class="node">
<title>Node6</title>
<g id="a_node6"><a xlink:href="hostsdk_2include_2rtvamp_2hostsdk_2Plugin_8hpp.html" target="_top" xlink:title=" ">
<polygon fill="none" stroke="black" points="236.5,-56.5 236.5,-75.5 383.5,-75.5 383.5,-56.5 236.5,-56.5"/>
<text text-anchor="middle" x="310" y="-63.5" font-family="Helvetica,sans-Serif" font-size="10.00">rtvamp/hostsdk/Plugin.hpp</text>
</a>
</g>
</g>
<!-- Node1&#45;&gt;Node6 -->
<g id="edge5" class="edge">
<title>Node1&#45;&gt;Node6</title>
<path fill="none" stroke="midnightblue" d="M366.08,-112.45C353.6,-102.33 339.6,-90.98 328.71,-82.16"/>
<polygon fill="midnightblue" stroke="midnightblue" points="330.7,-79.27 320.73,-75.7 326.3,-84.71 330.7,-79.27"/>
</g>
<!-- Node13 -->
<g id="node13" class="node">
<title>Node13</title>
<g id="a_node13"><a xlink:href="PluginKey_8hpp.html" target="_top" xlink:title=" ">
<polygon fill="none" stroke="black" points="411,-56.5 411,-75.5 575,-75.5 575,-56.5 411,-56.5"/>
<text text-anchor="middle" x="493" y="-63.5" font-family="Helvetica,sans-Serif" font-size="10.00">rtvamp/hostsdk/PluginKey.hpp</text>
</a>
</g>
</g>
<!-- Node1&#45;&gt;Node13 -->
<g id="edge14" class="edge">
<title>Node1&#45;&gt;Node13</title>
<path fill="none" stroke="midnightblue" d="M431.12,-112.45C445.17,-102.13 460.95,-90.53 473.07,-81.64"/>
<polygon fill="midnightblue" stroke="midnightblue" points="475.17,-84.44 481.16,-75.7 471.03,-78.79 475.17,-84.44"/>
</g>
<!-- Node6&#45;&gt;Node2 -->
<g id="edge8" class="edge">
<title>Node6&#45;&gt;Node2</title>
<path fill="none" stroke="midnightblue" d="M264.86,-56.5C220,-48 148.97,-34.41 78.23,-20.23"/>
<polygon fill="midnightblue" stroke="midnightblue" points="78.75,-16.76 68.26,-18.22 77.37,-23.62 78.75,-16.76"/>
</g>
<!-- Node6&#45;&gt;Node5 -->
<g id="edge13" class="edge">
<title>Node6&#45;&gt;Node5</title>
<path fill="none" stroke="midnightblue" d="M278.29,-56.49C246.66,-47.99 196.42,-34.47 143.67,-20.17"/>
<polygon fill="midnightblue" stroke="midnightblue" points="144.36,-16.74 133.79,-17.5 142.53,-23.49 144.36,-16.74"/>
</g>
<!-- Node7 -->
<g id="node7" class="node">
<title>Node7</title>
<g id="a_node7"><a xlink:title=" ">
<polygon fill="none" stroke="#bfbfbf" points="353.5,-0.5 353.5,-19.5 412.5,-19.5 412.5,-0.5 353.5,-0.5"/>
<text text-anchor="middle" x="383" y="-7.5" font-family="Helvetica,sans-Serif" font-size="10.00">complex</text>
</a>
</g>
</g>
<!-- Node6&#45;&gt;Node7 -->
<g id="edge6" class="edge">
<title>Node6&#45;&gt;Node7</title>
<path fill="none" stroke="midnightblue" d="M321.73,-56.32C332.84,-48.11 349.74,-35.6 362.98,-25.81"/>
<polygon fill="midnightblue" stroke="midnightblue" points="365.1,-28.59 371.06,-19.83 360.94,-22.97 365.1,-28.59"/>
</g>
<!-- Node8 -->
<g id="node8" class="node">
<title>Node8</title>
<g id="a_node8"><a xlink:title=" ">
<polygon fill="none" stroke="#bfbfbf" points="431,-0.5 431,-19.5 481,-19.5 481,-0.5 431,-0.5"/>
<text text-anchor="middle" x="456" y="-7.5" font-family="Helvetica,sans-Serif" font-size="10.00">cstdint</text>
</a>
</g>
</g>
<!-- Node6&#45;&gt;Node8 -->
<g id="edge7" class="edge">
<title>Node6&#45;&gt;Node8</title>
<path fill="none" stroke="midnightblue" d="M333.13,-56.44C357.48,-47.44 396.01,-33.19 423.42,-23.05"/>
<polygon fill="midnightblue" stroke="midnightblue" points="424.81,-26.27 432.97,-19.52 422.38,-19.7 424.81,-26.27"/>
</g>
<!-- Node9 -->
<g id="node9" class="node">
<title>Node9</title>
<g id="a_node9"><a xlink:title=" ">
<polygon fill="none" stroke="#bfbfbf" points="152,-0.5 152,-19.5 208,-19.5 208,-0.5 152,-0.5"/>
<text text-anchor="middle" x="180" y="-7.5" font-family="Helvetica,sans-Serif" font-size="10.00">optional</text>
</a>
</g>
</g>
<!-- Node6&#45;&gt;Node9 -->
<g id="edge9" class="edge">
<title>Node6&#45;&gt;Node9</title>
<path fill="none" stroke="midnightblue" d="M289.4,-56.44C268.01,-47.56 234.32,-33.56 209.98,-23.45"/>
<polygon fill="midnightblue" stroke="midnightblue" points="211.08,-20.12 200.5,-19.52 208.39,-26.58 211.08,-20.12"/>
</g>
<!-- Node10 -->
<g id="node10" class="node">
<title>Node10</title>
<g id="a_node10"><a xlink:title=" ">
<polygon fill="none" stroke="#bfbfbf" points="226,-0.5 226,-19.5 266,-19.5 266,-0.5 226,-0.5"/>
<text text-anchor="middle" x="246" y="-7.5" font-family="Helvetica,sans-Serif" font-size="10.00">span</text>
</a>
</g>
</g>
<!-- Node6&#45;&gt;Node10 -->
<g id="edge10" class="edge">
<title>Node6&#45;&gt;Node10</title>
<path fill="none" stroke="midnightblue" d="M299.72,-56.32C290.16,-48.26 275.72,-36.08 264.22,-26.37"/>
<polygon fill="midnightblue" stroke="midnightblue" points="266.37,-23.61 256.47,-19.83 261.86,-28.96 266.37,-23.61"/>
</g>
<!-- Node11 -->
<g id="node11" class="node">
<title>Node11</title>
<g id="a_node11"><a xlink:title=" ">
<polygon fill="none" stroke="#bfbfbf" points="499.5,-0.5 499.5,-19.5 572.5,-19.5 572.5,-0.5 499.5,-0.5"/>
<text text-anchor="middle" x="536" y="-7.5" font-family="Helvetica,sans-Serif" font-size="10.00">string_view</text>
</a>
</g>
</g>
<!-- Node6&#45;&gt;Node11 -->
<g id="edge11" class="edge">
<title>Node6&#45;&gt;Node11</title>
<path fill="none" stroke="midnightblue" d="M345.81,-56.44C384.99,-47.08 447.88,-32.06 490.52,-21.87"/>
<polygon fill="midnightblue" stroke="midnightblue" points="491.44,-25.24 500.36,-19.52 489.82,-18.44 491.44,-25.24"/>
</g>
<!-- Node12 -->
<g id="node12" class="node">
<title>Node12</title>
<g id="a_node12"><a xlink:title=" ">
<polygon fill="none" stroke="#bfbfbf" points="284.5,-0.5 284.5,-19.5 335.5,-19.5 335.5,-0.5 284.5,-0.5"/>
<text text-anchor="middle" x="310" y="-7.5" font-family="Helvetica,sans-Serif" font-size="10.00">variant</text>
</a>
</g>
</g>
<!-- Node6&#45;&gt;Node12 -->
<g id="edge12" class="edge">
<title>Node6&#45;&gt;Node12</title>
<path fill="none" stroke="midnightblue" d="M310,-56.08C310,-49.01 310,-38.86 310,-29.99"/>
<polygon fill="midnightblue" stroke="midnightblue" points="313.5,-29.75 310,-19.75 306.5,-29.75 313.5,-29.75"/>
</g>
<!-- Node13&#45;&gt;Node4 -->
<g id="edge15" class="edge">
<title>Node13&#45;&gt;Node4</title>
<path fill="none" stroke="midnightblue" d="M512.01,-56.44C531.59,-47.64 562.31,-33.81 584.73,-23.72"/>
<polygon fill="midnightblue" stroke="midnightblue" points="586.39,-26.81 594.07,-19.52 583.52,-20.43 586.39,-26.81"/>
</g>
<!-- Node13&#45;&gt;Node11 -->
<g id="edge16" class="edge">
<title>Node13&#45;&gt;Node11</title>
<path fill="none" stroke="midnightblue" d="M500.1,-56.08C506.24,-48.38 515.27,-37.03 522.74,-27.65"/>
<polygon fill="midnightblue" stroke="midnightblue" points="525.54,-29.75 529.03,-19.75 520.06,-25.39 525.54,-29.75"/>
</g>
</g>
</svg>
