<?xml version="1.0" encoding="UTF-8" standalone="no"?>
<!DOCTYPE svg PUBLIC "-//W3C//DTD SVG 1.1//EN"
 "http://www.w3.org/Graphics/SVG/1.1/DTD/svg11.dtd">
<!-- Generated by graphviz version 2.43.0 (0)
 -->
<!-- Title: /home/runner/work/rt&#45;vamp&#45;plugin&#45;sdk/rt&#45;vamp&#45;plugin&#45;sdk/pluginsdk/include/rtvamp/pluginsdk.hpp Pages: 1 -->
<svg width="826pt" height="240pt"
 viewBox="0.00 0.00 826.00 240.00" xmlns="http://www.w3.org/2000/svg" xmlns:xlink="http://www.w3.org/1999/xlink">
<g id="graph0" class="graph" transform="scale(1 1) rotate(0) translate(4 236)">
<title>/home/runner/work/rt&#45;vamp&#45;plugin&#45;sdk/rt&#45;vamp&#45;plugin&#45;sdk/pluginsdk/include/rtvamp/pluginsdk.hpp</title>
<!-- Node1 -->
<g id="node1" class="node">
<title>Node1</title>
<g id="a_node1"><a xlink:title=" ">
<polygon fill="#bfbfbf" stroke="black" points="290,-179.5 290,-231.5 450,-231.5 450,-179.5 290,-179.5"/>
<text text-anchor="start" x="298" y="-219.5" font-family="Helvetica,sans-Serif" font-size="10.00">/home/runner/work/rt</text>
<text text-anchor="start" x="298" y="-208.5" font-family="Helvetica,sans-Serif" font-size="10.00">&#45;vamp&#45;plugin&#45;sdk/rt&#45;vamp</text>
<text text-anchor="start" x="298" y="-197.5" font-family="Helvetica,sans-Serif" font-size="10.00">&#45;plugin&#45;sdk/pluginsdk/include</text>
<text text-anchor="middle" x="370" y="-186.5" font-family="Helvetica,sans-Serif" font-size="10.00">/rtvamp/pluginsdk.hpp</text>
</a>
</g>
</g>
<!-- Node2 -->
<g id="node2" class="node">
<title>Node2</title>
<g id="a_node2"><a xlink:href="EntryPoint_8hpp.html" target="_top" xlink:title=" ">
<polygon fill="none" stroke="black" points="124,-123.5 124,-142.5 300,-142.5 300,-123.5 124,-123.5"/>
<text text-anchor="middle" x="212" y="-130.5" font-family="Helvetica,sans-Serif" font-size="10.00">rtvamp/pluginsdk/EntryPoint.hpp</text>
</a>
</g>
</g>
<!-- Node1&#45;&gt;Node2 -->
<g id="edge1" class="edge">
<title>Node1&#45;&gt;Node2</title>
<path fill="none" stroke="midnightblue" d="M313.85,-179.45C289,-168.36 260.85,-155.8 240.45,-146.7"/>
<polygon fill="midnightblue" stroke="midnightblue" points="241.67,-143.41 231.11,-142.53 238.82,-149.8 241.67,-143.41"/>
</g>
<!-- Node4 -->
<g id="node4" class="node">
<title>Node4</title>
<g id="a_node4"><a xlink:href="pluginsdk_2include_2rtvamp_2pluginsdk_2Plugin_8hpp.html" target="_top" xlink:title=" ">
<polygon fill="none" stroke="black" points="292,-62 292,-81 448,-81 448,-62 292,-62"/>
<text text-anchor="middle" x="370" y="-69" font-family="Helvetica,sans-Serif" font-size="10.00">rtvamp/pluginsdk/Plugin.hpp</text>
</a>
</g>
</g>
<!-- Node1&#45;&gt;Node4 -->
<g id="edge14" class="edge">
<title>Node1&#45;&gt;Node4</title>
<path fill="none" stroke="midnightblue" d="M370,-179.36C370,-153.64 370,-114.26 370,-91.17"/>
<polygon fill="midnightblue" stroke="midnightblue" points="373.5,-91.01 370,-81.01 366.5,-91.01 373.5,-91.01"/>
</g>
<!-- Node15 -->
<g id="node15" class="node">
<title>Node15</title>
<g id="a_node15"><a xlink:href="PluginExt_8hpp.html" target="_top" xlink:title=" ">
<polygon fill="none" stroke="black" points="500,-123.5 500,-142.5 672,-142.5 672,-123.5 500,-123.5"/>
<text text-anchor="middle" x="586" y="-130.5" font-family="Helvetica,sans-Serif" font-size="10.00">rtvamp/pluginsdk/PluginExt.hpp</text>
</a>
</g>
</g>
<!-- Node1&#45;&gt;Node15 -->
<g id="edge15" class="edge">
<title>Node1&#45;&gt;Node15</title>
<path fill="none" stroke="midnightblue" d="M446.76,-179.45C481.97,-167.95 522.02,-154.88 550.1,-145.72"/>
<polygon fill="midnightblue" stroke="midnightblue" points="551.45,-148.96 559.87,-142.53 549.28,-142.3 551.45,-148.96"/>
</g>
<!-- Node3 -->
<g id="node3" class="node">
<title>Node3</title>
<g id="a_node3"><a xlink:title=" ">
<polygon fill="none" stroke="#bfbfbf" points="0,-62 0,-81 84,-81 84,-62 0,-62"/>
<text text-anchor="middle" x="42" y="-69" font-family="Helvetica,sans-Serif" font-size="10.00">vamp/vamp.h</text>
</a>
</g>
</g>
<!-- Node2&#45;&gt;Node3 -->
<g id="edge2" class="edge">
<title>Node2&#45;&gt;Node3</title>
<path fill="none" stroke="midnightblue" d="M187.64,-123.48C158.36,-113.22 109.03,-95.96 76,-84.4"/>
<polygon fill="midnightblue" stroke="midnightblue" points="76.91,-81.01 66.31,-81.01 74.59,-87.62 76.91,-81.01"/>
</g>
<!-- Node2&#45;&gt;Node4 -->
<g id="edge3" class="edge">
<title>Node2&#45;&gt;Node4</title>
<path fill="none" stroke="midnightblue" d="M234.64,-123.48C261.74,-113.27 307.31,-96.11 338,-84.55"/>
<polygon fill="midnightblue" stroke="midnightblue" points="339.28,-87.81 347.4,-81.01 336.81,-81.26 339.28,-87.81"/>
</g>
<!-- Node14 -->
<g id="node14" class="node">
<title>Node14</title>
<g id="a_node14"><a xlink:title=" ">
<polygon fill="none" stroke="#bfbfbf" points="102.5,-56.5 102.5,-86.5 235.5,-86.5 235.5,-56.5 102.5,-56.5"/>
<text text-anchor="start" x="110.5" y="-74.5" font-family="Helvetica,sans-Serif" font-size="10.00">rtvamp/pluginsdk/detail</text>
<text text-anchor="middle" x="169" y="-63.5" font-family="Helvetica,sans-Serif" font-size="10.00">/PluginAdapter.hpp</text>
</a>
</g>
</g>
<!-- Node2&#45;&gt;Node14 -->
<g id="edge13" class="edge">
<title>Node2&#45;&gt;Node14</title>
<path fill="none" stroke="midnightblue" d="M205.84,-123.48C200.45,-116.02 192.38,-104.85 185.17,-94.87"/>
<polygon fill="midnightblue" stroke="midnightblue" points="187.83,-92.58 179.13,-86.52 182.15,-96.68 187.83,-92.58"/>
</g>
<!-- Node5 -->
<g id="node5" class="node">
<title>Node5</title>
<g id="a_node5"><a xlink:title=" ">
<polygon fill="none" stroke="#bfbfbf" points="167,-0.5 167,-19.5 209,-19.5 209,-0.5 167,-0.5"/>
<text text-anchor="middle" x="188" y="-7.5" font-family="Helvetica,sans-Serif" font-size="10.00">array</text>
</a>
</g>
</g>
<!-- Node4&#45;&gt;Node5 -->
<g id="edge4" class="edge">
<title>Node4&#45;&gt;Node5</title>
<path fill="none" stroke="midnightblue" d="M343.92,-61.98C310.91,-51.18 254.12,-32.62 218.95,-21.12"/>
<polygon fill="midnightblue" stroke="midnightblue" points="219.8,-17.71 209.21,-17.93 217.62,-24.37 219.8,-17.71"/>
</g>
<!-- Node6 -->
<g id="node6" class="node">
<title>Node6</title>
<g id="a_node6"><a xlink:title=" ">
<polygon fill="none" stroke="#bfbfbf" points="227.5,-0.5 227.5,-19.5 286.5,-19.5 286.5,-0.5 227.5,-0.5"/>
<text text-anchor="middle" x="257" y="-7.5" font-family="Helvetica,sans-Serif" font-size="10.00">complex</text>
</a>
</g>
</g>
<!-- Node4&#45;&gt;Node6 -->
<g id="edge5" class="edge">
<title>Node4&#45;&gt;Node6</title>
<path fill="none" stroke="midnightblue" d="M353.81,-61.98C335.1,-52.12 304.08,-35.79 282.2,-24.27"/>
<polygon fill="midnightblue" stroke="midnightblue" points="283.64,-21.07 273.16,-19.51 280.38,-27.27 283.64,-21.07"/>
</g>
<!-- Node7 -->
<g id="node7" class="node">
<title>Node7</title>
<g id="a_node7"><a xlink:title=" ">
<polygon fill="none" stroke="#bfbfbf" points="495,-0.5 495,-19.5 545,-19.5 545,-0.5 495,-0.5"/>
<text text-anchor="middle" x="520" y="-7.5" font-family="Helvetica,sans-Serif" font-size="10.00">cstdint</text>
</a>
</g>
</g>
<!-- Node4&#45;&gt;Node7 -->
<g id="edge6" class="edge">
<title>Node4&#45;&gt;Node7</title>
<path fill="none" stroke="midnightblue" d="M391.49,-61.98C417.11,-51.81 460.11,-34.76 489.24,-23.2"/>
<polygon fill="midnightblue" stroke="midnightblue" points="490.54,-26.45 498.55,-19.51 487.96,-19.94 490.54,-26.45"/>
</g>
<!-- Node8 -->
<g id="node8" class="node">
<title>Node8</title>
<g id="a_node8"><a xlink:title=" ">
<polygon fill="none" stroke="#bfbfbf" points="563,-0.5 563,-19.5 619,-19.5 619,-0.5 563,-0.5"/>
<text text-anchor="middle" x="591" y="-7.5" font-family="Helvetica,sans-Serif" font-size="10.00">optional</text>
</a>
</g>
</g>
<!-- Node4&#45;&gt;Node8 -->
<g id="edge7" class="edge">
<title>Node4&#45;&gt;Node8</title>
<path fill="none" stroke="midnightblue" d="M401.66,-61.98C441.66,-51.21 510.42,-32.7 553.15,-21.19"/>
<polygon fill="midnightblue" stroke="midnightblue" points="554.15,-24.55 562.89,-18.57 552.33,-17.79 554.15,-24.55"/>
</g>
<!-- Node9 -->
<g id="node9" class="node">
<title>Node9</title>
<g id="a_node9"><a xlink:title=" ">
<polygon fill="none" stroke="#bfbfbf" points="305,-0.5 305,-19.5 345,-19.5 345,-0.5 305,-0.5"/>
<text text-anchor="middle" x="325" y="-7.5" font-family="Helvetica,sans-Serif" font-size="10.00">span</text>
</a>
</g>
</g>
<!-- Node4&#45;&gt;Node9 -->
<g id="edge8" class="edge">
<title>Node4&#45;&gt;Node9</title>
<path fill="none" stroke="midnightblue" d="M363.55,-61.98C356.8,-53.05 346.03,-38.81 337.59,-27.64"/>
<polygon fill="midnightblue" stroke="midnightblue" points="340.26,-25.37 331.44,-19.51 334.68,-29.6 340.26,-25.37"/>
</g>
<!-- Node10 -->
<g id="node10" class="node">
<title>Node10</title>
<g id="a_node10"><a xlink:title=" ">
<polygon fill="none" stroke="#bfbfbf" points="363,-0.5 363,-19.5 407,-19.5 407,-0.5 363,-0.5"/>
<text text-anchor="middle" x="385" y="-7.5" font-family="Helvetica,sans-Serif" font-size="10.00">string</text>
</a>
</g>
</g>
<!-- Node4&#45;&gt;Node10 -->
<g id="edge9" class="edge">
<title>Node4&#45;&gt;Node10</title>
<path fill="none" stroke="midnightblue" d="M372.15,-61.98C374.29,-53.49 377.64,-40.2 380.38,-29.32"/>
<polygon fill="midnightblue" stroke="midnightblue" points="383.8,-30.06 382.85,-19.51 377.02,-28.35 383.8,-30.06"/>
</g>
<!-- Node11 -->
<g id="node11" class="node">
<title>Node11</title>
<g id="a_node11"><a xlink:title=" ">
<polygon fill="none" stroke="#bfbfbf" points="637.5,-0.5 637.5,-19.5 710.5,-19.5 710.5,-0.5 637.5,-0.5"/>
<text text-anchor="middle" x="674" y="-7.5" font-family="Helvetica,sans-Serif" font-size="10.00">string_view</text>
</a>
</g>
</g>
<!-- Node4&#45;&gt;Node11 -->
<g id="edge10" class="edge">
<title>Node4&#45;&gt;Node11</title>
<path fill="none" stroke="midnightblue" d="M413.56,-61.98C470.24,-50.88 568.91,-31.57 627.17,-20.17"/>
<polygon fill="midnightblue" stroke="midnightblue" points="628.06,-23.56 637.2,-18.2 626.72,-16.69 628.06,-23.56"/>
</g>
<!-- Node12 -->
<g id="node12" class="node">
<title>Node12</title>
<g id="a_node12"><a xlink:title=" ">
<polygon fill="none" stroke="#bfbfbf" points="425.5,-0.5 425.5,-19.5 476.5,-19.5 476.5,-0.5 425.5,-0.5"/>
<text text-anchor="middle" x="451" y="-7.5" font-family="Helvetica,sans-Serif" font-size="10.00">variant</text>
</a>
</g>
</g>
<!-- Node4&#45;&gt;Node12 -->
<g id="edge11" class="edge">
<title>Node4&#45;&gt;Node12</title>
<path fill="none" stroke="midnightblue" d="M381.61,-61.98C394.48,-52.52 415.47,-37.1 431.01,-25.69"/>
<polygon fill="midnightblue" stroke="midnightblue" points="433.43,-28.25 439.42,-19.51 429.28,-22.61 433.43,-28.25"/>
</g>
<!-- Node13 -->
<g id="node13" class="node">
<title>Node13</title>
<g id="a_node13"><a xlink:title=" ">
<polygon fill="none" stroke="#bfbfbf" points="728.5,-0.5 728.5,-19.5 775.5,-19.5 775.5,-0.5 728.5,-0.5"/>
<text text-anchor="middle" x="752" y="-7.5" font-family="Helvetica,sans-Serif" font-size="10.00">vector</text>
</a>
</g>
</g>
<!-- Node4&#45;&gt;Node13 -->
<g id="edge12" class="edge">
<title>Node4&#45;&gt;Node13</title>
<path fill="none" stroke="midnightblue" d="M419.65,-61.97C431.85,-59.95 444.89,-57.84 457,-56 570.03,-38.82 602.1,-43.25 718.29,-19.9"/>
<polygon fill="midnightblue" stroke="midnightblue" points="719.19,-23.28 728.3,-17.86 717.8,-16.43 719.19,-23.28"/>
</g>
<!-- Node15&#45;&gt;Node4 -->
<g id="edge24" class="edge">
<title>Node15&#45;&gt;Node4</title>
<path fill="none" stroke="midnightblue" d="M555.05,-123.48C517.12,-113.03 452.72,-95.29 410.78,-83.73"/>
<polygon fill="midnightblue" stroke="midnightblue" points="411.46,-80.29 400.89,-81.01 409.6,-87.04 411.46,-80.29"/>
</g>
<!-- Node15&#45;&gt;Node5 -->
<g id="edge17" class="edge">
<title>Node15&#45;&gt;Node5</title>
<path fill="none" stroke="midnightblue" d="M499.78,-131.09C437.28,-127.65 351.98,-117.07 283,-87 282.45,-86.76 234.52,-48.33 206.96,-26.22"/>
<polygon fill="midnightblue" stroke="midnightblue" points="208.81,-23.21 198.82,-19.68 204.42,-28.67 208.81,-23.21"/>
</g>
<!-- Node15&#45;&gt;Node7 -->
<g id="edge20" class="edge">
<title>Node15&#45;&gt;Node7</title>
<path fill="none" stroke="midnightblue" d="M589.6,-123.37C595.17,-108.55 604.06,-77.76 592,-56 583.85,-41.3 568.68,-30.77 554.35,-23.61"/>
<polygon fill="midnightblue" stroke="midnightblue" points="555.69,-20.37 545.15,-19.38 552.77,-26.73 555.69,-20.37"/>
</g>
<!-- Node15&#45;&gt;Node8 -->
<g id="edge21" class="edge">
<title>Node15&#45;&gt;Node8</title>
<path fill="none" stroke="midnightblue" d="M597.27,-123.43C606.97,-115.27 620.28,-102.05 626,-87 630.9,-74.12 630.47,-69.03 626,-56 622.28,-45.16 614.77,-34.92 607.65,-26.96"/>
<polygon fill="midnightblue" stroke="midnightblue" points="610,-24.35 600.56,-19.55 604.95,-29.19 610,-24.35"/>
</g>
<!-- Node15&#45;&gt;Node11 -->
<g id="edge22" class="edge">
<title>Node15&#45;&gt;Node11</title>
<path fill="none" stroke="midnightblue" d="M600.57,-123.25C612.98,-115.16 630.58,-102.14 642,-87 655.17,-69.54 664.01,-45.86 669.01,-29.6"/>
<polygon fill="midnightblue" stroke="midnightblue" points="672.46,-30.27 671.86,-19.69 665.73,-28.33 672.46,-30.27"/>
</g>
<!-- Node15&#45;&gt;Node13 -->
<g id="edge23" class="edge">
<title>Node15&#45;&gt;Node13</title>
<path fill="none" stroke="midnightblue" d="M603.24,-123.46C619.66,-115.03 644.8,-101.36 665,-87 691.41,-68.23 719.14,-42.88 736,-26.73"/>
<polygon fill="midnightblue" stroke="midnightblue" points="738.6,-29.09 743.35,-19.61 733.73,-24.06 738.6,-29.09"/>
</g>
<!-- Node16 -->
<g id="node16" class="node">
<title>Node16</title>
<g id="a_node16"><a xlink:title=" ">
<polygon fill="none" stroke="#bfbfbf" points="754,-62 754,-81 818,-81 818,-62 754,-62"/>
<text text-anchor="middle" x="786" y="-69" font-family="Helvetica,sans-Serif" font-size="10.00">algorithm</text>
</a>
</g>
</g>
<!-- Node15&#45;&gt;Node16 -->
<g id="edge16" class="edge">
<title>Node15&#45;&gt;Node16</title>
<path fill="none" stroke="midnightblue" d="M615.87,-123.47C646.93,-114.56 696.96,-100.07 740,-87 743.12,-86.05 746.37,-85.05 749.61,-84.05"/>
<polygon fill="midnightblue" stroke="midnightblue" points="750.77,-87.35 759.27,-81.03 748.68,-80.67 750.77,-87.35"/>
</g>
<!-- Node17 -->
<g id="node17" class="node">
<title>Node17</title>
<g id="a_node17"><a xlink:title=" ">
<polygon fill="none" stroke="#bfbfbf" points="466,-62 466,-81 518,-81 518,-62 466,-62"/>
<text text-anchor="middle" x="492" y="-69" font-family="Helvetica,sans-Serif" font-size="10.00">cassert</text>
</a>
</g>
</g>
<!-- Node15&#45;&gt;Node17 -->
<g id="edge18" class="edge">
<title>Node15&#45;&gt;Node17</title>
<path fill="none" stroke="midnightblue" d="M572.53,-123.48C557.32,-113.84 532.31,-98.02 514.2,-86.55"/>
<polygon fill="midnightblue" stroke="midnightblue" points="515.76,-83.4 505.44,-81.01 512.02,-89.31 515.76,-83.4"/>
</g>
<!-- Node18 -->
<g id="node18" class="node">
<title>Node18</title>
<g id="a_node18"><a xlink:title=" ">
<polygon fill="none" stroke="#bfbfbf" points="536.5,-62 536.5,-81 583.5,-81 583.5,-62 536.5,-62"/>
<text text-anchor="middle" x="560" y="-69" font-family="Helvetica,sans-Serif" font-size="10.00">cmath</text>
</a>
</g>
</g>
<!-- Node15&#45;&gt;Node18 -->
<g id="edge19" class="edge">
<title>Node15&#45;&gt;Node18</title>
<path fill="none" stroke="midnightblue" d="M582.27,-123.48C578.53,-114.9 572.64,-101.43 567.86,-90.48"/>
<polygon fill="midnightblue" stroke="midnightblue" points="570.93,-88.77 563.72,-81.01 564.52,-91.57 570.93,-88.77"/>
</g>
</g>
</svg>
