<?xml version="1.0" encoding="UTF-8" standalone="no"?>
<!DOCTYPE svg PUBLIC "-//W3C//DTD SVG 1.1//EN"
 "http://www.w3.org/Graphics/SVG/1.1/DTD/svg11.dtd">
<!-- Generated by graphviz version 2.43.0 (0)
 -->
<!-- Title: /home/runner/work/rt&#45;vamp&#45;plugin&#45;sdk/rt&#45;vamp&#45;plugin&#45;sdk/pluginsdk/include/rtvamp/pluginsdk/PluginExt.hpp Pages: 1 -->
<svg width="619pt" height="173pt"
 viewBox="0.00 0.00 618.50 173.00" xmlns="http://www.w3.org/2000/svg" xmlns:xlink="http://www.w3.org/1999/xlink">
<g id="graph0" class="graph" transform="scale(1 1) rotate(0) translate(4 169)">
<title>/home/runner/work/rt&#45;vamp&#45;plugin&#45;sdk/rt&#45;vamp&#45;plugin&#45;sdk/pluginsdk/include/rtvamp/pluginsdk/PluginExt.hpp</title>
<!-- Node1 -->
<g id="node1" class="node">
<title>Node1</title>
<g id="a_node1"><a xlink:title=" ">
<polygon fill="#bfbfbf" stroke="black" points="118.5,-112.5 118.5,-164.5 293.5,-164.5 293.5,-112.5 118.5,-112.5"/>
<text text-anchor="start" x="126.5" y="-152.5" font-family="Helvetica,sans-Serif" font-size="10.00">/home/runner/work/rt</text>
<text text-anchor="start" x="126.5" y="-141.5" font-family="Helvetica,sans-Serif" font-size="10.00">&#45;vamp&#45;plugin&#45;sdk/rt&#45;vamp</text>
<text text-anchor="start" x="126.5" y="-130.5" font-family="Helvetica,sans-Serif" font-size="10.00">&#45;plugin&#45;sdk/pluginsdk/include</text>
<text text-anchor="middle" x="206" y="-119.5" font-family="Helvetica,sans-Serif" font-size="10.00">/rtvamp/pluginsdk/PluginExt.hpp</text>
</a>
</g>
</g>
<!-- Node2 -->
<g id="node2" class="node">
<title>Node2</title>
<g id="a_node2"><a xlink:title=" ">
<polygon fill="none" stroke="#bfbfbf" points="0,-56.5 0,-75.5 64,-75.5 64,-56.5 0,-56.5"/>
<text text-anchor="middle" x="32" y="-63.5" font-family="Helvetica,sans-Serif" font-size="10.00">algorithm</text>
</a>
</g>
</g>
<!-- Node1&#45;&gt;Node2 -->
<g id="edge1" class="edge">
<title>Node1&#45;&gt;Node2</title>
<path fill="none" stroke="midnightblue" d="M144.16,-112.45C116.43,-101.21 84.95,-88.45 62.42,-79.33"/>
<polygon fill="midnightblue" stroke="midnightblue" points="63.63,-76.04 53.05,-75.53 61,-82.53 63.63,-76.04"/>
</g>
<!-- Node3 -->
<g id="node3" class="node">
<title>Node3</title>
<g id="a_node3"><a xlink:title=" ">
<polygon fill="none" stroke="#bfbfbf" points="3,-0.5 3,-19.5 45,-19.5 45,-0.5 3,-0.5"/>
<text text-anchor="middle" x="24" y="-7.5" font-family="Helvetica,sans-Serif" font-size="10.00">array</text>
</a>
</g>
</g>
<!-- Node1&#45;&gt;Node3 -->
<g id="edge2" class="edge">
<title>Node1&#45;&gt;Node3</title>
<path fill="none" stroke="midnightblue" d="M169.61,-112.2C132.19,-86.2 75.23,-46.61 44.83,-25.48"/>
<polygon fill="midnightblue" stroke="midnightblue" points="46.51,-22.38 36.3,-19.55 42.51,-28.13 46.51,-22.38"/>
</g>
<!-- Node4 -->
<g id="node4" class="node">
<title>Node4</title>
<g id="a_node4"><a xlink:title=" ">
<polygon fill="none" stroke="#bfbfbf" points="446,-56.5 446,-75.5 498,-75.5 498,-56.5 446,-56.5"/>
<text text-anchor="middle" x="472" y="-63.5" font-family="Helvetica,sans-Serif" font-size="10.00">cassert</text>
</a>
</g>
</g>
<!-- Node1&#45;&gt;Node4 -->
<g id="edge3" class="edge">
<title>Node1&#45;&gt;Node4</title>
<path fill="none" stroke="midnightblue" d="M293.84,-114.22C342.18,-101.41 399.56,-86.2 435.87,-76.57"/>
<polygon fill="midnightblue" stroke="midnightblue" points="437.22,-79.84 445.98,-73.89 435.42,-73.07 437.22,-79.84"/>
</g>
<!-- Node5 -->
<g id="node5" class="node">
<title>Node5</title>
<g id="a_node5"><a xlink:title=" ">
<polygon fill="none" stroke="#bfbfbf" points="516.5,-56.5 516.5,-75.5 563.5,-75.5 563.5,-56.5 516.5,-56.5"/>
<text text-anchor="middle" x="540" y="-63.5" font-family="Helvetica,sans-Serif" font-size="10.00">cmath</text>
</a>
</g>
</g>
<!-- Node1&#45;&gt;Node5 -->
<g id="edge4" class="edge">
<title>Node1&#45;&gt;Node5</title>
<path fill="none" stroke="midnightblue" d="M293.59,-121.16C351.35,-110.01 428.86,-94.37 506.32,-76.04"/>
<polygon fill="midnightblue" stroke="midnightblue" points="507.34,-79.4 516.25,-73.67 505.72,-72.59 507.34,-79.4"/>
</g>
<!-- Node6 -->
<g id="node6" class="node">
<title>Node6</title>
<g id="a_node6"><a xlink:title=" ">
<polygon fill="none" stroke="#bfbfbf" points="63,-0.5 63,-19.5 113,-19.5 113,-0.5 63,-0.5"/>
<text text-anchor="middle" x="88" y="-7.5" font-family="Helvetica,sans-Serif" font-size="10.00">cstdint</text>
</a>
</g>
</g>
<!-- Node1&#45;&gt;Node6 -->
<g id="edge5" class="edge">
<title>Node1&#45;&gt;Node6</title>
<path fill="none" stroke="midnightblue" d="M182.4,-112.2C158.67,-86.76 122.8,-48.31 102.8,-26.87"/>
<polygon fill="midnightblue" stroke="midnightblue" points="105.36,-24.47 95.98,-19.55 100.24,-29.25 105.36,-24.47"/>
</g>
<!-- Node7 -->
<g id="node7" class="node">
<title>Node7</title>
<g id="a_node7"><a xlink:title=" ">
<polygon fill="none" stroke="#bfbfbf" points="131,-0.5 131,-19.5 187,-19.5 187,-0.5 131,-0.5"/>
<text text-anchor="middle" x="159" y="-7.5" font-family="Helvetica,sans-Serif" font-size="10.00">optional</text>
</a>
</g>
</g>
<!-- Node1&#45;&gt;Node7 -->
<g id="edge6" class="edge">
<title>Node1&#45;&gt;Node7</title>
<path fill="none" stroke="midnightblue" d="M196.6,-112.2C187.48,-87.66 173.86,-51 165.76,-29.2"/>
<polygon fill="midnightblue" stroke="midnightblue" points="168.94,-27.7 162.18,-19.55 162.38,-30.14 168.94,-27.7"/>
</g>
<!-- Node8 -->
<g id="node8" class="node">
<title>Node8</title>
<g id="a_node8"><a xlink:title=" ">
<polygon fill="none" stroke="#bfbfbf" points="205.5,-0.5 205.5,-19.5 278.5,-19.5 278.5,-0.5 205.5,-0.5"/>
<text text-anchor="middle" x="242" y="-7.5" font-family="Helvetica,sans-Serif" font-size="10.00">string_view</text>
</a>
</g>
</g>
<!-- Node1&#45;&gt;Node8 -->
<g id="edge7" class="edge">
<title>Node1&#45;&gt;Node8</title>
<path fill="none" stroke="midnightblue" d="M210.97,-112.3C214.4,-96.08 219.34,-74.63 225,-56 227.77,-46.9 231.44,-36.99 234.66,-28.79"/>
<polygon fill="midnightblue" stroke="midnightblue" points="237.91,-30.09 238.4,-19.51 231.41,-27.48 237.91,-30.09"/>
</g>
<!-- Node9 -->
<g id="node9" class="node">
<title>Node9</title>
<g id="a_node9"><a xlink:title=" ">
<polygon fill="none" stroke="#bfbfbf" points="563.5,-0.5 563.5,-19.5 610.5,-19.5 610.5,-0.5 563.5,-0.5"/>
<text text-anchor="middle" x="587" y="-7.5" font-family="Helvetica,sans-Serif" font-size="10.00">vector</text>
</a>
</g>
</g>
<!-- Node1&#45;&gt;Node9 -->
<g id="edge8" class="edge">
<title>Node1&#45;&gt;Node9</title>
<path fill="none" stroke="midnightblue" d="M293.64,-113.14C327.09,-102.92 365.26,-90.12 399,-76 416.6,-68.63 419.33,-63.22 437,-56 458.11,-47.37 515.95,-30.73 553.33,-20.28"/>
<polygon fill="midnightblue" stroke="midnightblue" points="554.58,-23.57 563.28,-17.51 552.71,-16.82 554.58,-23.57"/>
</g>
<!-- Node10 -->
<g id="node10" class="node">
<title>Node10</title>
<g id="a_node10"><a xlink:href="pluginsdk_2include_2rtvamp_2pluginsdk_2Plugin_8hpp.html" target="_top" xlink:title=" ">
<polygon fill="none" stroke="black" points="234,-56.5 234,-75.5 390,-75.5 390,-56.5 234,-56.5"/>
<text text-anchor="middle" x="312" y="-63.5" font-family="Helvetica,sans-Serif" font-size="10.00">rtvamp/pluginsdk/Plugin.hpp</text>
</a>
</g>
</g>
<!-- Node1&#45;&gt;Node10 -->
<g id="edge9" class="edge">
<title>Node1&#45;&gt;Node10</title>
<path fill="none" stroke="midnightblue" d="M243.67,-112.45C259.43,-101.96 277.17,-90.16 290.63,-81.22"/>
<polygon fill="midnightblue" stroke="midnightblue" points="292.79,-83.98 299.18,-75.53 288.91,-78.15 292.79,-83.98"/>
</g>
<!-- Node10&#45;&gt;Node3 -->
<g id="edge10" class="edge">
<title>Node10&#45;&gt;Node3</title>
<path fill="none" stroke="midnightblue" d="M251.12,-56.47C200.83,-48.95 127.45,-36.88 54.98,-20.01"/>
<polygon fill="midnightblue" stroke="midnightblue" points="55.76,-16.6 45.22,-17.71 54.15,-23.41 55.76,-16.6"/>
</g>
<!-- Node10&#45;&gt;Node6 -->
<g id="edge12" class="edge">
<title>Node10&#45;&gt;Node6</title>
<path fill="none" stroke="midnightblue" d="M274.79,-56.49C238.46,-48.12 181.36,-34.77 122.99,-20.2"/>
<polygon fill="midnightblue" stroke="midnightblue" points="123.78,-16.79 113.23,-17.76 122.08,-23.58 123.78,-16.79"/>
</g>
<!-- Node10&#45;&gt;Node7 -->
<g id="edge13" class="edge">
<title>Node10&#45;&gt;Node7</title>
<path fill="none" stroke="midnightblue" d="M287.76,-56.44C262.13,-47.4 221.51,-33.06 192.76,-22.92"/>
<polygon fill="midnightblue" stroke="midnightblue" points="193.72,-19.54 183.13,-19.52 191.39,-26.15 193.72,-19.54"/>
</g>
<!-- Node10&#45;&gt;Node8 -->
<g id="edge16" class="edge">
<title>Node10&#45;&gt;Node8</title>
<path fill="none" stroke="midnightblue" d="M300.75,-56.32C290.2,-48.18 274.2,-35.84 261.56,-26.09"/>
<polygon fill="midnightblue" stroke="midnightblue" points="263.51,-23.17 253.45,-19.83 259.23,-28.71 263.51,-23.17"/>
</g>
<!-- Node10&#45;&gt;Node9 -->
<g id="edge18" class="edge">
<title>Node10&#45;&gt;Node9</title>
<path fill="none" stroke="midnightblue" d="M364.66,-56.5C411.64,-48.62 482.51,-36.02 553.28,-20.01"/>
<polygon fill="midnightblue" stroke="midnightblue" points="554.3,-23.36 563.27,-17.72 552.74,-16.54 554.3,-23.36"/>
</g>
<!-- Node11 -->
<g id="node11" class="node">
<title>Node11</title>
<g id="a_node11"><a xlink:title=" ">
<polygon fill="none" stroke="#bfbfbf" points="365.5,-0.5 365.5,-19.5 424.5,-19.5 424.5,-0.5 365.5,-0.5"/>
<text text-anchor="middle" x="395" y="-7.5" font-family="Helvetica,sans-Serif" font-size="10.00">complex</text>
</a>
</g>
</g>
<!-- Node10&#45;&gt;Node11 -->
<g id="edge11" class="edge">
<title>Node10&#45;&gt;Node11</title>
<path fill="none" stroke="midnightblue" d="M325.34,-56.32C338.16,-47.98 357.78,-35.21 372.94,-25.35"/>
<polygon fill="midnightblue" stroke="midnightblue" points="375.22,-28.04 381.7,-19.65 371.41,-22.17 375.22,-28.04"/>
</g>
<!-- Node12 -->
<g id="node12" class="node">
<title>Node12</title>
<g id="a_node12"><a xlink:title=" ">
<polygon fill="none" stroke="#bfbfbf" points="443,-0.5 443,-19.5 483,-19.5 483,-0.5 443,-0.5"/>
<text text-anchor="middle" x="463" y="-7.5" font-family="Helvetica,sans-Serif" font-size="10.00">span</text>
</a>
</g>
</g>
<!-- Node10&#45;&gt;Node12 -->
<g id="edge14" class="edge">
<title>Node10&#45;&gt;Node12</title>
<path fill="none" stroke="midnightblue" d="M335.93,-56.44C362.26,-47.03 404.63,-31.87 433.12,-21.68"/>
<polygon fill="midnightblue" stroke="midnightblue" points="434.34,-24.97 442.58,-18.3 431.98,-18.38 434.34,-24.97"/>
</g>
<!-- Node13 -->
<g id="node13" class="node">
<title>Node13</title>
<g id="a_node13"><a xlink:title=" ">
<polygon fill="none" stroke="#bfbfbf" points="501,-0.5 501,-19.5 545,-19.5 545,-0.5 501,-0.5"/>
<text text-anchor="middle" x="523" y="-7.5" font-family="Helvetica,sans-Serif" font-size="10.00">string</text>
</a>
</g>
</g>
<!-- Node10&#45;&gt;Node13 -->
<g id="edge15" class="edge">
<title>Node10&#45;&gt;Node13</title>
<path fill="none" stroke="midnightblue" d="M347.96,-56.43C382.31,-48.15 435.76,-35.03 490.76,-20.27"/>
<polygon fill="midnightblue" stroke="midnightblue" points="491.93,-23.57 500.68,-17.59 490.11,-16.82 491.93,-23.57"/>
</g>
<!-- Node14 -->
<g id="node14" class="node">
<title>Node14</title>
<g id="a_node14"><a xlink:title=" ">
<polygon fill="none" stroke="#bfbfbf" points="296.5,-0.5 296.5,-19.5 347.5,-19.5 347.5,-0.5 296.5,-0.5"/>
<text text-anchor="middle" x="322" y="-7.5" font-family="Helvetica,sans-Serif" font-size="10.00">variant</text>
</a>
</g>
</g>
<!-- Node10&#45;&gt;Node14 -->
<g id="edge17" class="edge">
<title>Node10&#45;&gt;Node14</title>
<path fill="none" stroke="midnightblue" d="M313.65,-56.08C314.98,-48.93 316.88,-38.64 318.54,-29.69"/>
<polygon fill="midnightblue" stroke="midnightblue" points="322,-30.22 320.38,-19.75 315.12,-28.95 322,-30.22"/>
</g>
</g>
</svg>
