<?xml version="1.0" encoding="UTF-8" standalone="no"?>
<!DOCTYPE svg PUBLIC "-//W3C//DTD SVG 1.1//EN"
 "http://www.w3.org/Graphics/SVG/1.1/DTD/svg11.dtd">
<!-- Generated by graphviz version 2.43.0 (0)
 -->
<!-- Title: /home/runner/work/rt&#45;vamp&#45;plugin&#45;sdk/rt&#45;vamp&#45;plugin&#45;sdk/pluginsdk/include/rtvamp/pluginsdk.hpp Pages: 1 -->
<svg width="826pt" height="236pt"
 viewBox="0.00 0.00 825.50 236.00" xmlns="http://www.w3.org/2000/svg" xmlns:xlink="http://www.w3.org/1999/xlink">
<g id="graph0" class="graph" transform="scale(1 1) rotate(0) translate(4 232)">
<title>/home/runner/work/rt&#45;vamp&#45;plugin&#45;sdk/rt&#45;vamp&#45;plugin&#45;sdk/pluginsdk/include/rtvamp/pluginsdk.hpp</title>
<!-- Node1 -->
<g id="Node000001" class="node">
<title>Node1</title>
<g id="a_Node000001"><a xlink:title=" ">
<polygon fill="#999999" stroke="#666666" points="488,-228 328,-228 328,-176 488,-176 488,-228"/>
<text text-anchor="start" x="336" y="-216" font-family="Helvetica,sans-Serif" font-size="10.00">/home/runner/work/rt</text>
<text text-anchor="start" x="336" y="-205" font-family="Helvetica,sans-Serif" font-size="10.00">&#45;vamp&#45;plugin&#45;sdk/rt&#45;vamp</text>
<text text-anchor="start" x="336" y="-194" font-family="Helvetica,sans-Serif" font-size="10.00">&#45;plugin&#45;sdk/pluginsdk/include</text>
<text text-anchor="middle" x="408" y="-183" font-family="Helvetica,sans-Serif" font-size="10.00">/rtvamp/pluginsdk.hpp</text>
</a>
</g>
</g>
<!-- Node2 -->
<g id="Node000002" class="node">
<title>Node2</title>
<g id="a_Node000002"><a xlink:href="EntryPoint_8hpp.html" target="_top" xlink:title=" ">
<polygon fill="white" stroke="#666666" points="319,-140 143,-140 143,-121 319,-121 319,-140"/>
<text text-anchor="middle" x="231" y="-128" font-family="Helvetica,sans-Serif" font-size="10.00">rtvamp/pluginsdk/EntryPoint.hpp</text>
</a>
</g>
</g>
<!-- Node1&#45;&gt;Node2 -->
<g id="edge1_Node000001_Node000002" class="edge">
<title>Node1&#45;&gt;Node2</title>
<g id="a_edge1_Node000001_Node000002"><a xlink:title=" ">
<path fill="none" stroke="#63b8ff" d="M344.1,-175.91C316.32,-165 285.04,-152.72 262.42,-143.84"/>
<polygon fill="#63b8ff" stroke="#63b8ff" points="263.58,-140.53 252.99,-140.14 261.02,-147.05 263.58,-140.53"/>
</a>
</g>
</g>
<!-- Node4 -->
<g id="Node000004" class="node">
<title>Node4</title>
<g id="a_Node000004"><a xlink:href="pluginsdk_2include_2rtvamp_2pluginsdk_2Plugin_8hpp.html" target="_top" xlink:title=" ">
<polygon fill="white" stroke="#666666" points="486,-79.5 330,-79.5 330,-60.5 486,-60.5 486,-79.5"/>
<text text-anchor="middle" x="408" y="-67.5" font-family="Helvetica,sans-Serif" font-size="10.00">rtvamp/pluginsdk/Plugin.hpp</text>
</a>
</g>
</g>
<!-- Node1&#45;&gt;Node4 -->
<g id="edge15_Node000001_Node000004" class="edge">
<title>Node1&#45;&gt;Node4</title>
<g id="a_edge15_Node000001_Node000004"><a xlink:title=" ">
<path fill="none" stroke="#63b8ff" d="M408,-175.93C408,-150.69 408,-112.32 408,-89.64"/>
<polygon fill="#63b8ff" stroke="#63b8ff" points="411.5,-89.63 408,-79.63 404.5,-89.63 411.5,-89.63"/>
</a>
</g>
</g>
<!-- Node16 -->
<g id="Node000016" class="node">
<title>Node16</title>
<g id="a_Node000016"><a xlink:href="PluginExt_8hpp.html" target="_top" xlink:title=" ">
<polygon fill="white" stroke="#666666" points="623,-140 451,-140 451,-121 623,-121 623,-140"/>
<text text-anchor="middle" x="537" y="-128" font-family="Helvetica,sans-Serif" font-size="10.00">rtvamp/pluginsdk/PluginExt.hpp</text>
</a>
</g>
</g>
<!-- Node1&#45;&gt;Node16 -->
<g id="edge16_Node000001_Node000016" class="edge">
<title>Node1&#45;&gt;Node16</title>
<g id="a_edge16_Node000001_Node000016"><a xlink:title=" ">
<path fill="none" stroke="#63b8ff" d="M454.57,-175.91C474,-165.44 495.78,-153.71 512.07,-144.93"/>
<polygon fill="#63b8ff" stroke="#63b8ff" points="513.83,-147.96 520.97,-140.14 510.51,-141.8 513.83,-147.96"/>
</a>
</g>
</g>
<!-- Node3 -->
<g id="Node000003" class="node">
<title>Node3</title>
<g id="a_Node000003"><a xlink:title=" ">
<polygon fill="#e0e0e0" stroke="#999999" points="84,-79.5 0,-79.5 0,-60.5 84,-60.5 84,-79.5"/>
<text text-anchor="middle" x="42" y="-67.5" font-family="Helvetica,sans-Serif" font-size="10.00">vamp/vamp.h</text>
</a>
</g>
</g>
<!-- Node2&#45;&gt;Node3 -->
<g id="edge2_Node000002_Node000003" class="edge">
<title>Node2&#45;&gt;Node3</title>
<g id="a_edge2_Node000002_Node000003"><a xlink:title=" ">
<path fill="none" stroke="#63b8ff" d="M203.52,-120.99C170.76,-110.86 115.88,-93.87 79.31,-82.55"/>
<polygon fill="#63b8ff" stroke="#63b8ff" points="80.1,-79.13 69.52,-79.52 78.03,-85.82 80.1,-79.13"/>
</a>
</g>
</g>
<!-- Node2&#45;&gt;Node4 -->
<g id="edge3_Node000002_Node000004" class="edge">
<title>Node2&#45;&gt;Node4</title>
<g id="a_edge3_Node000002_Node000004"><a xlink:title=" ">
<path fill="none" stroke="#63b8ff" d="M256.74,-120.99C287.28,-110.9 338.37,-94.01 372.62,-82.69"/>
<polygon fill="#63b8ff" stroke="#63b8ff" points="373.84,-85.98 382.23,-79.52 371.64,-79.33 373.84,-85.98"/>
</a>
</g>
</g>
<!-- Node15 -->
<g id="Node000015" class="node">
<title>Node15</title>
<g id="a_Node000015"><a xlink:title=" ">
<polygon fill="#e0e0e0" stroke="#999999" points="235.5,-85 102.5,-85 102.5,-55 235.5,-55 235.5,-85"/>
<text text-anchor="start" x="110.5" y="-73" font-family="Helvetica,sans-Serif" font-size="10.00">rtvamp/pluginsdk/detail</text>
<text text-anchor="middle" x="169" y="-62" font-family="Helvetica,sans-Serif" font-size="10.00">/PluginAdapter.hpp</text>
</a>
</g>
</g>
<!-- Node2&#45;&gt;Node15 -->
<g id="edge14_Node000002_Node000015" class="edge">
<title>Node2&#45;&gt;Node15</title>
<g id="a_edge14_Node000002_Node000015"><a xlink:title=" ">
<path fill="none" stroke="#63b8ff" d="M221.85,-120.87C213.83,-113.3 201.83,-101.98 191.3,-92.04"/>
<polygon fill="#63b8ff" stroke="#63b8ff" points="193.63,-89.43 183.96,-85.11 188.83,-94.52 193.63,-89.43"/>
</a>
</g>
</g>
<!-- Node5 -->
<g id="Node000005" class="node">
<title>Node5</title>
<g id="a_Node000005"><a xlink:title=" ">
<polygon fill="#e0e0e0" stroke="#999999" points="86,-19 44,-19 44,0 86,0 86,-19"/>
<text text-anchor="middle" x="65" y="-7" font-family="Helvetica,sans-Serif" font-size="10.00">array</text>
</a>
</g>
</g>
<!-- Node4&#45;&gt;Node5 -->
<g id="edge4_Node000004_Node000005" class="edge">
<title>Node4&#45;&gt;Node5</title>
<g id="a_edge4_Node000004_Node000005"><a xlink:title=" ">
<path fill="none" stroke="#63b8ff" d="M339.79,-60.46C278.39,-52.24 185.56,-38.48 96.25,-19.06"/>
<polygon fill="#63b8ff" stroke="#63b8ff" points="96.75,-15.58 86.23,-16.85 95.24,-22.42 96.75,-15.58"/>
</a>
</g>
</g>
<!-- Node6 -->
<g id="Node000006" class="node">
<title>Node6</title>
<g id="a_Node000006"><a xlink:title=" ">
<polygon fill="#e0e0e0" stroke="#999999" points="231.5,-19 172.5,-19 172.5,0 231.5,0 231.5,-19"/>
<text text-anchor="middle" x="202" y="-7" font-family="Helvetica,sans-Serif" font-size="10.00">complex</text>
</a>
</g>
</g>
<!-- Node4&#45;&gt;Node6 -->
<g id="edge5_Node000004_Node000006" class="edge">
<title>Node4&#45;&gt;Node6</title>
<g id="a_edge5_Node000004_Node000006"><a xlink:title=" ">
<path fill="none" stroke="#63b8ff" d="M378.05,-60.49C341.94,-50.24 281.16,-32.98 241.31,-21.66"/>
<polygon fill="#63b8ff" stroke="#63b8ff" points="242.23,-18.29 231.66,-18.92 240.32,-25.02 242.23,-18.29"/>
</a>
</g>
</g>
<!-- Node7 -->
<g id="Node000007" class="node">
<title>Node7</title>
<g id="a_Node000007"><a xlink:title=" ">
<polygon fill="#e0e0e0" stroke="#999999" points="310,-19 250,-19 250,0 310,0 310,-19"/>
<text text-anchor="middle" x="280" y="-7" font-family="Helvetica,sans-Serif" font-size="10.00">concepts</text>
</a>
</g>
</g>
<!-- Node4&#45;&gt;Node7 -->
<g id="edge6_Node000004_Node000007" class="edge">
<title>Node4&#45;&gt;Node7</title>
<g id="a_edge6_Node000004_Node000007"><a xlink:title=" ">
<path fill="none" stroke="#63b8ff" d="M389.39,-60.49C367.96,-50.7 332.56,-34.52 307.85,-23.23"/>
<polygon fill="#63b8ff" stroke="#63b8ff" points="309.18,-19.99 298.63,-19.02 306.28,-26.36 309.18,-19.99"/>
</a>
</g>
</g>
<!-- Node8 -->
<g id="Node000008" class="node">
<title>Node8</title>
<g id="a_Node000008"><a xlink:title=" ">
<polygon fill="#e0e0e0" stroke="#999999" points="154,-19 104,-19 104,0 154,0 154,-19"/>
<text text-anchor="middle" x="129" y="-7" font-family="Helvetica,sans-Serif" font-size="10.00">cstdint</text>
</a>
</g>
</g>
<!-- Node4&#45;&gt;Node8 -->
<g id="edge7_Node000004_Node000008" class="edge">
<title>Node4&#45;&gt;Node8</title>
<g id="a_edge7_Node000004_Node000008"><a xlink:title=" ">
<path fill="none" stroke="#63b8ff" d="M363.17,-60.46C316.06,-51.35 239.57,-36.18 164.34,-19.23"/>
<polygon fill="#63b8ff" stroke="#63b8ff" points="164.75,-15.73 154.22,-16.94 163.2,-22.56 164.75,-15.73"/>
</a>
</g>
</g>
<!-- Node9 -->
<g id="Node000009" class="node">
<title>Node9</title>
<g id="a_Node000009"><a xlink:title=" ">
<polygon fill="#e0e0e0" stroke="#999999" points="574,-19 518,-19 518,0 574,0 574,-19"/>
<text text-anchor="middle" x="546" y="-7" font-family="Helvetica,sans-Serif" font-size="10.00">optional</text>
</a>
</g>
</g>
<!-- Node4&#45;&gt;Node9 -->
<g id="edge8_Node000004_Node000009" class="edge">
<title>Node4&#45;&gt;Node9</title>
<g id="a_edge8_Node000004_Node000009"><a xlink:title=" ">
<path fill="none" stroke="#63b8ff" d="M428.07,-60.49C451.37,-50.62 490.01,-34.23 516.68,-22.93"/>
<polygon fill="#63b8ff" stroke="#63b8ff" points="518.07,-26.14 525.91,-19.02 515.34,-19.7 518.07,-26.14"/>
</a>
</g>
</g>
<!-- Node10 -->
<g id="Node000010" class="node">
<title>Node10</title>
<g id="a_Node000010"><a xlink:title=" ">
<polygon fill="#e0e0e0" stroke="#999999" points="368,-19 328,-19 328,0 368,0 368,-19"/>
<text text-anchor="middle" x="348" y="-7" font-family="Helvetica,sans-Serif" font-size="10.00">span</text>
</a>
</g>
</g>
<!-- Node4&#45;&gt;Node10 -->
<g id="edge9_Node000004_Node000010" class="edge">
<title>Node4&#45;&gt;Node10</title>
<g id="a_edge9_Node000004_Node000010"><a xlink:title=" ">
<path fill="none" stroke="#63b8ff" d="M399.15,-60.37C390.02,-51.47 375.58,-37.39 364.36,-26.45"/>
<polygon fill="#63b8ff" stroke="#63b8ff" points="366.49,-23.64 356.89,-19.17 361.61,-28.65 366.49,-23.64"/>
</a>
</g>
</g>
<!-- Node11 -->
<g id="Node000011" class="node">
<title>Node11</title>
<g id="a_Node000011"><a xlink:title=" ">
<polygon fill="#e0e0e0" stroke="#999999" points="430,-19 386,-19 386,0 430,0 430,-19"/>
<text text-anchor="middle" x="408" y="-7" font-family="Helvetica,sans-Serif" font-size="10.00">string</text>
</a>
</g>
</g>
<!-- Node4&#45;&gt;Node11 -->
<g id="edge10_Node000004_Node000011" class="edge">
<title>Node4&#45;&gt;Node11</title>
<g id="a_edge10_Node000004_Node000011"><a xlink:title=" ">
<path fill="none" stroke="#63b8ff" d="M408,-60.37C408,-52.25 408,-39.81 408,-29.39"/>
<polygon fill="#63b8ff" stroke="#63b8ff" points="411.5,-29.17 408,-19.17 404.5,-29.17 411.5,-29.17"/>
</a>
</g>
</g>
<!-- Node12 -->
<g id="Node000012" class="node">
<title>Node12</title>
<g id="a_Node000012"><a xlink:title=" ">
<polygon fill="#e0e0e0" stroke="#999999" points="665.5,-19 592.5,-19 592.5,0 665.5,0 665.5,-19"/>
<text text-anchor="middle" x="629" y="-7" font-family="Helvetica,sans-Serif" font-size="10.00">string_view</text>
</a>
</g>
</g>
<!-- Node4&#45;&gt;Node12 -->
<g id="edge11_Node000004_Node000012" class="edge">
<title>Node4&#45;&gt;Node12</title>
<g id="a_edge11_Node000004_Node000012"><a xlink:title=" ">
<path fill="none" stroke="#63b8ff" d="M440.14,-60.49C478.93,-50.23 544.26,-32.93 587.01,-21.62"/>
<polygon fill="#63b8ff" stroke="#63b8ff" points="588.05,-24.96 596.83,-19.02 586.26,-18.19 588.05,-24.96"/>
</a>
</g>
</g>
<!-- Node13 -->
<g id="Node000013" class="node">
<title>Node13</title>
<g id="a_Node000013"><a xlink:title=" ">
<polygon fill="#e0e0e0" stroke="#999999" points="499.5,-19 448.5,-19 448.5,0 499.5,0 499.5,-19"/>
<text text-anchor="middle" x="474" y="-7" font-family="Helvetica,sans-Serif" font-size="10.00">variant</text>
</a>
</g>
</g>
<!-- Node4&#45;&gt;Node13 -->
<g id="edge12_Node000004_Node000013" class="edge">
<title>Node4&#45;&gt;Node13</title>
<g id="a_edge12_Node000004_Node000013"><a xlink:title=" ">
<path fill="none" stroke="#63b8ff" d="M417.74,-60.37C427.97,-51.3 444.29,-36.84 456.72,-25.82"/>
<polygon fill="#63b8ff" stroke="#63b8ff" points="459.06,-28.42 464.22,-19.17 454.42,-23.18 459.06,-28.42"/>
</a>
</g>
</g>
<!-- Node14 -->
<g id="Node000014" class="node">
<title>Node14</title>
<g id="a_Node000014"><a xlink:title=" ">
<polygon fill="#e0e0e0" stroke="#999999" points="730.5,-19 683.5,-19 683.5,0 730.5,0 730.5,-19"/>
<text text-anchor="middle" x="707" y="-7" font-family="Helvetica,sans-Serif" font-size="10.00">vector</text>
</a>
</g>
</g>
<!-- Node4&#45;&gt;Node14 -->
<g id="edge13_Node000004_Node000014" class="edge">
<title>Node4&#45;&gt;Node14</title>
<g id="a_edge13_Node000004_Node000014"><a xlink:title=" ">
<path fill="none" stroke="#63b8ff" d="M458.7,-60.5C510.28,-51.62 592.71,-36.8 673.42,-19"/>
<polygon fill="#63b8ff" stroke="#63b8ff" points="674.25,-22.4 683.25,-16.82 672.73,-15.57 674.25,-22.4"/>
</a>
</g>
</g>
<!-- Node16&#45;&gt;Node4 -->
<g id="edge25_Node000016_Node000004" class="edge">
<title>Node16&#45;&gt;Node4</title>
<g id="a_edge25_Node000016_Node000004"><a xlink:title=" ">
<path fill="none" stroke="#63b8ff" d="M518.24,-120.99C496.65,-111.2 460.97,-95.02 436.07,-83.73"/>
<polygon fill="#63b8ff" stroke="#63b8ff" points="437.33,-80.46 426.78,-79.52 434.44,-86.83 437.33,-80.46"/>
</a>
</g>
</g>
<!-- Node16&#45;&gt;Node5 -->
<g id="edge18_Node000016_Node000005" class="edge">
<title>Node16&#45;&gt;Node5</title>
<g id="a_edge18_Node000016_Node000005"><a xlink:title=" ">
<path fill="none" stroke="#63b8ff" d="M450.91,-126.52C398.72,-121.9 332.01,-110.86 278,-85 259.82,-76.3 261.87,-64.31 244,-55 186.29,-24.95 163.01,-35.23 96.03,-19.1"/>
<polygon fill="#63b8ff" stroke="#63b8ff" points="96.83,-15.69 86.28,-16.64 95.12,-22.48 96.83,-15.69"/>
</a>
</g>
</g>
<!-- Node16&#45;&gt;Node8 -->
<g id="edge21_Node000016_Node000008" class="edge">
<title>Node16&#45;&gt;Node8</title>
<g id="a_edge21_Node000016_Node000008"><a xlink:title=" ">
<path fill="none" stroke="#63b8ff" d="M457.45,-120.97C415.61,-114.56 364.17,-103.57 321,-85 299.59,-75.79 298.99,-65.13 278,-55 257.89,-45.29 201.54,-29.55 164.19,-19.62"/>
<polygon fill="#63b8ff" stroke="#63b8ff" points="164.77,-16.15 154.21,-16.99 162.98,-22.92 164.77,-16.15"/>
</a>
</g>
</g>
<!-- Node16&#45;&gt;Node9 -->
<g id="edge22_Node000016_Node000009" class="edge">
<title>Node16&#45;&gt;Node9</title>
<g id="a_edge22_Node000016_Node000009"><a xlink:title=" ">
<path fill="none" stroke="#63b8ff" d="M536.65,-120.76C536.2,-106.81 535.73,-78.69 538,-55 538.82,-46.5 540.38,-37.19 541.91,-29.3"/>
<polygon fill="#63b8ff" stroke="#63b8ff" points="545.38,-29.81 543.97,-19.31 538.53,-28.39 545.38,-29.81"/>
</a>
</g>
</g>
<!-- Node16&#45;&gt;Node12 -->
<g id="edge23_Node000016_Node000012" class="edge">
<title>Node16&#45;&gt;Node12</title>
<g id="a_edge23_Node000016_Node000012"><a xlink:title=" ">
<path fill="none" stroke="#63b8ff" d="M540.34,-120.58C546.11,-105.9 558.98,-76.16 576,-55 585.06,-43.74 597.31,-33.23 607.75,-25.26"/>
<polygon fill="#63b8ff" stroke="#63b8ff" points="610.01,-27.94 615.99,-19.2 605.86,-22.31 610.01,-27.94"/>
</a>
</g>
</g>
<!-- Node16&#45;&gt;Node14 -->
<g id="edge24_Node000016_Node000014" class="edge">
<title>Node16&#45;&gt;Node14</title>
<g id="a_edge24_Node000016_Node000014"><a xlink:title=" ">
<path fill="none" stroke="#63b8ff" d="M544.64,-120.82C560.04,-103.43 594.6,-65.16 609,-55 628.85,-40.99 653.82,-29.74 673.59,-22.05"/>
<polygon fill="#63b8ff" stroke="#63b8ff" points="674.99,-25.26 683.11,-18.46 672.52,-18.71 674.99,-25.26"/>
</a>
</g>
</g>
<!-- Node17 -->
<g id="Node000017" class="node">
<title>Node17</title>
<g id="a_Node000017"><a xlink:title=" ">
<polygon fill="#e0e0e0" stroke="#999999" points="682,-79.5 618,-79.5 618,-60.5 682,-60.5 682,-79.5"/>
<text text-anchor="middle" x="650" y="-67.5" font-family="Helvetica,sans-Serif" font-size="10.00">algorithm</text>
</a>
</g>
</g>
<!-- Node16&#45;&gt;Node17 -->
<g id="edge17_Node000016_Node000017" class="edge">
<title>Node16&#45;&gt;Node17</title>
<g id="a_edge17_Node000016_Node000017"><a xlink:title=" ">
<path fill="none" stroke="#63b8ff" d="M553.67,-120.87C572.28,-111.23 602.62,-95.53 624.28,-84.31"/>
<polygon fill="#63b8ff" stroke="#63b8ff" points="625.99,-87.37 633.26,-79.67 622.77,-81.16 625.99,-87.37"/>
</a>
</g>
</g>
<!-- Node18 -->
<g id="Node000018" class="node">
<title>Node18</title>
<g id="a_Node000018"><a xlink:title=" ">
<polygon fill="#e0e0e0" stroke="#999999" points="752,-79.5 700,-79.5 700,-60.5 752,-60.5 752,-79.5"/>
<text text-anchor="middle" x="726" y="-67.5" font-family="Helvetica,sans-Serif" font-size="10.00">cassert</text>
</a>
</g>
</g>
<!-- Node16&#45;&gt;Node18 -->
<g id="edge19_Node000016_Node000018" class="edge">
<title>Node16&#45;&gt;Node18</title>
<g id="a_edge19_Node000016_Node000018"><a xlink:title=" ">
<path fill="none" stroke="#63b8ff" d="M570.04,-120.97C601.43,-112.63 649.81,-99.15 691,-85 692.62,-84.44 694.27,-83.86 695.93,-83.25"/>
<polygon fill="#63b8ff" stroke="#63b8ff" points="697.31,-86.47 705.4,-79.63 694.81,-79.93 697.31,-86.47"/>
</a>
</g>
</g>
<!-- Node19 -->
<g id="Node000019" class="node">
<title>Node19</title>
<g id="a_Node000019"><a xlink:title=" ">
<polygon fill="#e0e0e0" stroke="#999999" points="817.5,-79.5 770.5,-79.5 770.5,-60.5 817.5,-60.5 817.5,-79.5"/>
<text text-anchor="middle" x="794" y="-67.5" font-family="Helvetica,sans-Serif" font-size="10.00">cmath</text>
</a>
</g>
</g>
<!-- Node16&#45;&gt;Node19 -->
<g id="edge20_Node000016_Node000019" class="edge">
<title>Node16&#45;&gt;Node19</title>
<g id="a_edge20_Node000016_Node000019"><a xlink:title=" ">
<path fill="none" stroke="#63b8ff" d="M597.25,-120.97C642.82,-113.7 706.62,-101.74 761,-85 762.68,-84.48 764.38,-83.91 766.1,-83.3"/>
<polygon fill="#63b8ff" stroke="#63b8ff" points="767.71,-86.43 775.75,-79.53 765.16,-79.91 767.71,-86.43"/>
</a>
</g>
</g>
</g>
</svg>
