<?xml version="1.0" encoding="UTF-8" standalone="no"?>
<!DOCTYPE svg PUBLIC "-//W3C//DTD SVG 1.1//EN"
 "http://www.w3.org/Graphics/SVG/1.1/DTD/svg11.dtd">
<!-- Generated by graphviz version 2.43.0 (0)
 -->
<!-- Title: /home/runner/work/rt&#45;vamp&#45;plugin&#45;sdk/rt&#45;vamp&#45;plugin&#45;sdk/pluginsdk/include/rtvamp/pluginsdk/Plugin.hpp Pages: 1 -->
<svg width="398pt" height="236pt"
 viewBox="0.00 0.00 397.95 236.00" xmlns="http://www.w3.org/2000/svg" xmlns:xlink="http://www.w3.org/1999/xlink">
<g id="graph0" class="graph" transform="scale(1 1) rotate(0) translate(4 232)">
<title>/home/runner/work/rt&#45;vamp&#45;plugin&#45;sdk/rt&#45;vamp&#45;plugin&#45;sdk/pluginsdk/include/rtvamp/pluginsdk/Plugin.hpp</title>
<!-- Node1 -->
<g id="Node000001" class="node">
<title>Node1</title>
<g id="a_Node000001"><a xlink:title=" ">
<polygon fill="#999999" stroke="#666666" points="187.45,-228 27.45,-228 27.45,-176 187.45,-176 187.45,-228"/>
<text text-anchor="start" x="35.45" y="-216" font-family="Helvetica,sans-Serif" font-size="10.00">/home/runner/work/rt</text>
<text text-anchor="start" x="35.45" y="-205" font-family="Helvetica,sans-Serif" font-size="10.00">&#45;vamp&#45;plugin&#45;sdk/rt&#45;vamp</text>
<text text-anchor="start" x="35.45" y="-194" font-family="Helvetica,sans-Serif" font-size="10.00">&#45;plugin&#45;sdk/pluginsdk/include</text>
<text text-anchor="middle" x="107.45" y="-183" font-family="Helvetica,sans-Serif" font-size="10.00">/rtvamp/pluginsdk/Plugin.hpp</text>
</a>
</g>
</g>
<!-- Node2 -->
<g id="Node000002" class="node">
<title>Node2</title>
<g id="a_Node000002"><a xlink:href="pluginsdk_8hpp.html" target="_top" xlink:title=" ">
<polygon fill="white" stroke="#666666" points="187.45,-52 27.45,-52 27.45,0 187.45,0 187.45,-52"/>
<text text-anchor="start" x="35.45" y="-40" font-family="Helvetica,sans-Serif" font-size="10.00">/home/runner/work/rt</text>
<text text-anchor="start" x="35.45" y="-29" font-family="Helvetica,sans-Serif" font-size="10.00">&#45;vamp&#45;plugin&#45;sdk/rt&#45;vamp</text>
<text text-anchor="start" x="35.45" y="-18" font-family="Helvetica,sans-Serif" font-size="10.00">&#45;plugin&#45;sdk/pluginsdk/include</text>
<text text-anchor="middle" x="107.45" y="-7" font-family="Helvetica,sans-Serif" font-size="10.00">/rtvamp/pluginsdk.hpp</text>
</a>
</g>
</g>
<!-- Node1&#45;&gt;Node2 -->
<g id="edge1_Node000001_Node000002" class="edge">
<title>Node1&#45;&gt;Node2</title>
<g id="a_edge1_Node000001_Node000002"><a xlink:title=" ">
<path fill="none" stroke="#63b8ff" d="M36.92,-170.3C25.51,-162.14 15.22,-152.13 8.45,-140 -2.82,-119.82 -2.82,-108.18 8.45,-88 16.87,-72.93 30.7,-61.12 45.4,-52.08"/>
<polygon fill="#63b8ff" stroke="#63b8ff" points="35.13,-173.32 45.4,-175.92 39,-167.48 35.13,-173.32"/>
</a>
</g>
</g>
<!-- Node3 -->
<g id="Node000003" class="node">
<title>Node3</title>
<g id="a_Node000003"><a xlink:href="EntryPoint_8hpp.html" target="_top" xlink:title=" ">
<polygon fill="white" stroke="#666666" points="196.95,-140 17.95,-140 17.95,-88 196.95,-88 196.95,-140"/>
<text text-anchor="start" x="25.95" y="-128" font-family="Helvetica,sans-Serif" font-size="10.00">/home/runner/work/rt</text>
<text text-anchor="start" x="25.95" y="-117" font-family="Helvetica,sans-Serif" font-size="10.00">&#45;vamp&#45;plugin&#45;sdk/rt&#45;vamp</text>
<text text-anchor="start" x="25.95" y="-106" font-family="Helvetica,sans-Serif" font-size="10.00">&#45;plugin&#45;sdk/pluginsdk/include</text>
<text text-anchor="middle" x="107.45" y="-95" font-family="Helvetica,sans-Serif" font-size="10.00">/rtvamp/pluginsdk/EntryPoint.hpp</text>
</a>
</g>
</g>
<!-- Node1&#45;&gt;Node3 -->
<g id="edge2_Node000001_Node000003" class="edge">
<title>Node1&#45;&gt;Node3</title>
<g id="a_edge2_Node000001_Node000003"><a xlink:title=" ">
<path fill="none" stroke="#63b8ff" d="M107.45,-165.56C107.45,-157.04 107.45,-148.1 107.45,-140.16"/>
<polygon fill="#63b8ff" stroke="#63b8ff" points="103.95,-165.66 107.45,-175.66 110.95,-165.66 103.95,-165.66"/>
</a>
</g>
</g>
<!-- Node4 -->
<g id="Node000004" class="node">
<title>Node4</title>
<g id="a_Node000004"><a xlink:href="PluginExt_8hpp.html" target="_top" xlink:title=" ">
<polygon fill="white" stroke="#666666" points="389.95,-140 214.95,-140 214.95,-88 389.95,-88 389.95,-140"/>
<text text-anchor="start" x="222.95" y="-128" font-family="Helvetica,sans-Serif" font-size="10.00">/home/runner/work/rt</text>
<text text-anchor="start" x="222.95" y="-117" font-family="Helvetica,sans-Serif" font-size="10.00">&#45;vamp&#45;plugin&#45;sdk/rt&#45;vamp</text>
<text text-anchor="start" x="222.95" y="-106" font-family="Helvetica,sans-Serif" font-size="10.00">&#45;plugin&#45;sdk/pluginsdk/include</text>
<text text-anchor="middle" x="302.45" y="-95" font-family="Helvetica,sans-Serif" font-size="10.00">/rtvamp/pluginsdk/PluginExt.hpp</text>
</a>
</g>
</g>
<!-- Node1&#45;&gt;Node4 -->
<g id="edge4_Node000001_Node000004" class="edge">
<title>Node1&#45;&gt;Node4</title>
<g id="a_edge4_Node000001_Node000004"><a xlink:title=" ">
<path fill="none" stroke="#63b8ff" d="M173.83,-171.73C197.1,-161.46 223.02,-150.03 245.45,-140.14"/>
<polygon fill="#63b8ff" stroke="#63b8ff" points="172.11,-168.66 164.38,-175.89 174.94,-175.06 172.11,-168.66"/>
</a>
</g>
</g>
<!-- Node3&#45;&gt;Node2 -->
<g id="edge3_Node000003_Node000002" class="edge">
<title>Node3&#45;&gt;Node2</title>
<g id="a_edge3_Node000003_Node000002"><a xlink:title=" ">
<path fill="none" stroke="#63b8ff" d="M107.45,-77.56C107.45,-69.04 107.45,-60.1 107.45,-52.16"/>
<polygon fill="#63b8ff" stroke="#63b8ff" points="103.95,-77.66 107.45,-87.66 110.95,-77.66 103.95,-77.66"/>
</a>
</g>
</g>
<!-- Node4&#45;&gt;Node2 -->
<g id="edge5_Node000004_Node000002" class="edge">
<title>Node4&#45;&gt;Node2</title>
<g id="a_edge5_Node000004_Node000002"><a xlink:title=" ">
<path fill="none" stroke="#63b8ff" d="M236.07,-83.73C212.8,-73.46 186.88,-62.03 164.45,-52.14"/>
<polygon fill="#63b8ff" stroke="#63b8ff" points="234.96,-87.06 245.52,-87.89 237.79,-80.66 234.96,-87.06"/>
</a>
</g>
</g>
</g>
</svg>
