<?xml version="1.0" encoding="UTF-8" standalone="no"?>
<!DOCTYPE svg PUBLIC "-//W3C//DTD SVG 1.1//EN"
 "http://www.w3.org/Graphics/SVG/1.1/DTD/svg11.dtd">
<!-- Generated by graphviz version 2.43.0 (0)
 -->
<!-- Title: /home/runner/work/rt&#45;vamp&#45;plugin&#45;sdk/rt&#45;vamp&#45;plugin&#45;sdk/pluginsdk/include/rtvamp/pluginsdk.hpp Pages: 1 -->
<svg width="826pt" height="236pt"
 viewBox="0.00 0.00 826.00 236.00" xmlns="http://www.w3.org/2000/svg" xmlns:xlink="http://www.w3.org/1999/xlink">
<g id="graph0" class="graph" transform="scale(1 1) rotate(0) translate(4 232)">
<title>/home/runner/work/rt&#45;vamp&#45;plugin&#45;sdk/rt&#45;vamp&#45;plugin&#45;sdk/pluginsdk/include/rtvamp/pluginsdk.hpp</title>
<!-- Node1 -->
<g id="Node000001" class="node">
<title>Node1</title>
<g id="a_Node000001"><a xlink:title=" ">
<polygon fill="#999999" stroke="#666666" points="450,-228 290,-228 290,-176 450,-176 450,-228"/>
<text text-anchor="start" x="298" y="-216" font-family="Helvetica,sans-Serif" font-size="10.00">/home/runner/work/rt</text>
<text text-anchor="start" x="298" y="-205" font-family="Helvetica,sans-Serif" font-size="10.00">&#45;vamp&#45;plugin&#45;sdk/rt&#45;vamp</text>
<text text-anchor="start" x="298" y="-194" font-family="Helvetica,sans-Serif" font-size="10.00">&#45;plugin&#45;sdk/pluginsdk/include</text>
<text text-anchor="middle" x="370" y="-183" font-family="Helvetica,sans-Serif" font-size="10.00">/rtvamp/pluginsdk.hpp</text>
</a>
</g>
</g>
<!-- Node2 -->
<g id="Node000002" class="node">
<title>Node2</title>
<g id="a_Node000002"><a xlink:href="EntryPoint_8hpp.html" target="_top" xlink:title=" ">
<polygon fill="white" stroke="#666666" points="300,-140 124,-140 124,-121 300,-121 300,-140"/>
<text text-anchor="middle" x="212" y="-128" font-family="Helvetica,sans-Serif" font-size="10.00">rtvamp/pluginsdk/EntryPoint.hpp</text>
</a>
</g>
</g>
<!-- Node1&#45;&gt;Node2 -->
<g id="edge1_Node000001_Node000002" class="edge">
<title>Node1&#45;&gt;Node2</title>
<g id="a_edge1_Node000001_Node000002"><a xlink:title=" ">
<path fill="none" stroke="#63b8ff" d="M312.96,-175.91C288.5,-165.15 260.99,-153.05 240.87,-144.2"/>
<polygon fill="#63b8ff" stroke="#63b8ff" points="242.19,-140.96 231.63,-140.14 239.38,-147.37 242.19,-140.96"/>
</a>
</g>
</g>
<!-- Node4 -->
<g id="Node000004" class="node">
<title>Node4</title>
<g id="a_Node000004"><a xlink:href="pluginsdk_2include_2rtvamp_2pluginsdk_2Plugin_8hpp.html" target="_top" xlink:title=" ">
<polygon fill="white" stroke="#666666" points="448,-79.5 292,-79.5 292,-60.5 448,-60.5 448,-79.5"/>
<text text-anchor="middle" x="370" y="-67.5" font-family="Helvetica,sans-Serif" font-size="10.00">rtvamp/pluginsdk/Plugin.hpp</text>
</a>
</g>
</g>
<!-- Node1&#45;&gt;Node4 -->
<g id="edge14_Node000001_Node000004" class="edge">
<title>Node1&#45;&gt;Node4</title>
<g id="a_edge14_Node000001_Node000004"><a xlink:title=" ">
<path fill="none" stroke="#63b8ff" d="M370,-175.93C370,-150.69 370,-112.32 370,-89.64"/>
<polygon fill="#63b8ff" stroke="#63b8ff" points="373.5,-89.63 370,-79.63 366.5,-89.63 373.5,-89.63"/>
</a>
</g>
</g>
<!-- Node15 -->
<g id="Node000015" class="node">
<title>Node15</title>
<g id="a_Node000015"><a xlink:href="PluginExt_8hpp.html" target="_top" xlink:title=" ">
<polygon fill="white" stroke="#666666" points="672,-140 500,-140 500,-121 672,-121 672,-140"/>
<text text-anchor="middle" x="586" y="-128" font-family="Helvetica,sans-Serif" font-size="10.00">rtvamp/pluginsdk/PluginExt.hpp</text>
</a>
</g>
</g>
<!-- Node1&#45;&gt;Node15 -->
<g id="edge15_Node000001_Node000015" class="edge">
<title>Node1&#45;&gt;Node15</title>
<g id="a_edge15_Node000001_Node000015"><a xlink:title=" ">
<path fill="none" stroke="#63b8ff" d="M447.98,-175.91C482.74,-164.72 522.01,-152.09 549.75,-143.16"/>
<polygon fill="#63b8ff" stroke="#63b8ff" points="550.97,-146.45 559.42,-140.05 548.83,-139.78 550.97,-146.45"/>
</a>
</g>
</g>
<!-- Node3 -->
<g id="Node000003" class="node">
<title>Node3</title>
<g id="a_Node000003"><a xlink:title=" ">
<polygon fill="#e0e0e0" stroke="#999999" points="84,-79.5 0,-79.5 0,-60.5 84,-60.5 84,-79.5"/>
<text text-anchor="middle" x="42" y="-67.5" font-family="Helvetica,sans-Serif" font-size="10.00">vamp/vamp.h</text>
</a>
</g>
</g>
<!-- Node2&#45;&gt;Node3 -->
<g id="edge2_Node000002_Node000003" class="edge">
<title>Node2&#45;&gt;Node3</title>
<g id="a_edge2_Node000002_Node000003"><a xlink:title=" ">
<path fill="none" stroke="#63b8ff" d="M187.28,-120.99C158.07,-110.94 109.3,-94.16 76.41,-82.84"/>
<polygon fill="#63b8ff" stroke="#63b8ff" points="77.34,-79.46 66.75,-79.52 75.07,-86.08 77.34,-79.46"/>
</a>
</g>
</g>
<!-- Node2&#45;&gt;Node4 -->
<g id="edge3_Node000002_Node000004" class="edge">
<title>Node2&#45;&gt;Node4</title>
<g id="a_edge3_Node000002_Node000004"><a xlink:title=" ">
<path fill="none" stroke="#63b8ff" d="M234.97,-120.99C261.89,-111.03 306.67,-94.45 337.23,-83.13"/>
<polygon fill="#63b8ff" stroke="#63b8ff" points="338.84,-86.27 347,-79.52 336.4,-79.71 338.84,-86.27"/>
</a>
</g>
</g>
<!-- Node14 -->
<g id="Node000014" class="node">
<title>Node14</title>
<g id="a_Node000014"><a xlink:title=" ">
<polygon fill="#e0e0e0" stroke="#999999" points="235.5,-85 102.5,-85 102.5,-55 235.5,-55 235.5,-85"/>
<text text-anchor="start" x="110.5" y="-73" font-family="Helvetica,sans-Serif" font-size="10.00">rtvamp/pluginsdk/detail</text>
<text text-anchor="middle" x="169" y="-62" font-family="Helvetica,sans-Serif" font-size="10.00">/PluginAdapter.hpp</text>
</a>
</g>
</g>
<!-- Node2&#45;&gt;Node14 -->
<g id="edge13_Node000002_Node000014" class="edge">
<title>Node2&#45;&gt;Node14</title>
<g id="a_edge13_Node000002_Node000014"><a xlink:title=" ">
<path fill="none" stroke="#63b8ff" d="M205.66,-120.87C200.31,-113.59 192.41,-102.85 185.32,-93.2"/>
<polygon fill="#63b8ff" stroke="#63b8ff" points="188.12,-91.1 179.37,-85.11 182.48,-95.25 188.12,-91.1"/>
</a>
</g>
</g>
<!-- Node5 -->
<g id="Node000005" class="node">
<title>Node5</title>
<g id="a_Node000005"><a xlink:title=" ">
<polygon fill="#e0e0e0" stroke="#999999" points="209,-19 167,-19 167,0 209,0 209,-19"/>
<text text-anchor="middle" x="188" y="-7" font-family="Helvetica,sans-Serif" font-size="10.00">array</text>
</a>
</g>
</g>
<!-- Node4&#45;&gt;Node5 -->
<g id="edge4_Node000004_Node000005" class="edge">
<title>Node4&#45;&gt;Node5</title>
<g id="a_edge4_Node000004_Node000005"><a xlink:title=" ">
<path fill="none" stroke="#63b8ff" d="M343.54,-60.49C310.42,-49.85 253.83,-31.66 218.81,-20.4"/>
<polygon fill="#63b8ff" stroke="#63b8ff" points="219.7,-17.01 209.11,-17.28 217.56,-23.68 219.7,-17.01"/>
</a>
</g>
</g>
<!-- Node6 -->
<g id="Node000006" class="node">
<title>Node6</title>
<g id="a_Node000006"><a xlink:title=" ">
<polygon fill="#e0e0e0" stroke="#999999" points="286.5,-19 227.5,-19 227.5,0 286.5,0 286.5,-19"/>
<text text-anchor="middle" x="257" y="-7" font-family="Helvetica,sans-Serif" font-size="10.00">complex</text>
</a>
</g>
</g>
<!-- Node4&#45;&gt;Node6 -->
<g id="edge5_Node000004_Node000006" class="edge">
<title>Node4&#45;&gt;Node6</title>
<g id="a_edge5_Node000004_Node000006"><a xlink:title=" ">
<path fill="none" stroke="#63b8ff" d="M353.33,-60.37C334.72,-50.73 304.38,-35.03 282.72,-23.81"/>
<polygon fill="#63b8ff" stroke="#63b8ff" points="284.23,-20.66 273.74,-19.17 281.01,-26.87 284.23,-20.66"/>
</a>
</g>
</g>
<!-- Node7 -->
<g id="Node000007" class="node">
<title>Node7</title>
<g id="a_Node000007"><a xlink:title=" ">
<polygon fill="#e0e0e0" stroke="#999999" points="545,-19 495,-19 495,0 545,0 545,-19"/>
<text text-anchor="middle" x="520" y="-7" font-family="Helvetica,sans-Serif" font-size="10.00">cstdint</text>
</a>
</g>
</g>
<!-- Node4&#45;&gt;Node7 -->
<g id="edge6_Node000004_Node000007" class="edge">
<title>Node4&#45;&gt;Node7</title>
<g id="a_edge6_Node000004_Node000007"><a xlink:title=" ">
<path fill="none" stroke="#63b8ff" d="M391.81,-60.49C417.25,-50.57 459.51,-34.09 488.51,-22.78"/>
<polygon fill="#63b8ff" stroke="#63b8ff" points="490.12,-25.91 498.16,-19.02 487.57,-19.39 490.12,-25.91"/>
</a>
</g>
</g>
<!-- Node8 -->
<g id="Node000008" class="node">
<title>Node8</title>
<g id="a_Node000008"><a xlink:title=" ">
<polygon fill="#e0e0e0" stroke="#999999" points="619,-19 563,-19 563,0 619,0 619,-19"/>
<text text-anchor="middle" x="591" y="-7" font-family="Helvetica,sans-Serif" font-size="10.00">optional</text>
</a>
</g>
</g>
<!-- Node4&#45;&gt;Node8 -->
<g id="edge7_Node000004_Node000008" class="edge">
<title>Node4&#45;&gt;Node8</title>
<g id="a_edge7_Node000004_Node000008"><a xlink:title=" ">
<path fill="none" stroke="#63b8ff" d="M402.14,-60.49C442.14,-49.9 510.39,-31.84 552.97,-20.57"/>
<polygon fill="#63b8ff" stroke="#63b8ff" points="553.91,-23.94 562.68,-18 552.12,-17.17 553.91,-23.94"/>
</a>
</g>
</g>
<!-- Node9 -->
<g id="Node000009" class="node">
<title>Node9</title>
<g id="a_Node000009"><a xlink:title=" ">
<polygon fill="#e0e0e0" stroke="#999999" points="345,-19 305,-19 305,0 345,0 345,-19"/>
<text text-anchor="middle" x="325" y="-7" font-family="Helvetica,sans-Serif" font-size="10.00">span</text>
</a>
</g>
</g>
<!-- Node4&#45;&gt;Node9 -->
<g id="edge8_Node000004_Node000009" class="edge">
<title>Node4&#45;&gt;Node9</title>
<g id="a_edge8_Node000004_Node000009"><a xlink:title=" ">
<path fill="none" stroke="#63b8ff" d="M363.36,-60.37C356.71,-51.73 346.31,-38.2 338.01,-27.42"/>
<polygon fill="#63b8ff" stroke="#63b8ff" points="340.54,-24.96 331.67,-19.17 334.99,-29.23 340.54,-24.96"/>
</a>
</g>
</g>
<!-- Node10 -->
<g id="Node000010" class="node">
<title>Node10</title>
<g id="a_Node000010"><a xlink:title=" ">
<polygon fill="#e0e0e0" stroke="#999999" points="407,-19 363,-19 363,0 407,0 407,-19"/>
<text text-anchor="middle" x="385" y="-7" font-family="Helvetica,sans-Serif" font-size="10.00">string</text>
</a>
</g>
</g>
<!-- Node4&#45;&gt;Node10 -->
<g id="edge9_Node000004_Node000010" class="edge">
<title>Node4&#45;&gt;Node10</title>
<g id="a_edge9_Node000004_Node000010"><a xlink:title=" ">
<path fill="none" stroke="#63b8ff" d="M372.21,-60.37C374.32,-52.16 377.55,-39.54 380.24,-29.05"/>
<polygon fill="#63b8ff" stroke="#63b8ff" points="383.68,-29.72 382.78,-19.17 376.9,-27.98 383.68,-29.72"/>
</a>
</g>
</g>
<!-- Node11 -->
<g id="Node000011" class="node">
<title>Node11</title>
<g id="a_Node000011"><a xlink:title=" ">
<polygon fill="#e0e0e0" stroke="#999999" points="710.5,-19 637.5,-19 637.5,0 710.5,0 710.5,-19"/>
<text text-anchor="middle" x="674" y="-7" font-family="Helvetica,sans-Serif" font-size="10.00">string_view</text>
</a>
</g>
</g>
<!-- Node4&#45;&gt;Node11 -->
<g id="edge10_Node000004_Node000011" class="edge">
<title>Node4&#45;&gt;Node11</title>
<g id="a_edge10_Node000004_Node000011"><a xlink:title=" ">
<path fill="none" stroke="#63b8ff" d="M414.2,-60.49C471.06,-49.55 569.38,-30.63 627.38,-19.47"/>
<polygon fill="#63b8ff" stroke="#63b8ff" points="628.22,-22.87 637.38,-17.55 626.89,-16 628.22,-22.87"/>
</a>
</g>
</g>
<!-- Node12 -->
<g id="Node000012" class="node">
<title>Node12</title>
<g id="a_Node000012"><a xlink:title=" ">
<polygon fill="#e0e0e0" stroke="#999999" points="476.5,-19 425.5,-19 425.5,0 476.5,0 476.5,-19"/>
<text text-anchor="middle" x="451" y="-7" font-family="Helvetica,sans-Serif" font-size="10.00">variant</text>
</a>
</g>
</g>
<!-- Node4&#45;&gt;Node12 -->
<g id="edge11_Node000004_Node000012" class="edge">
<title>Node4&#45;&gt;Node12</title>
<g id="a_edge11_Node000004_Node000012"><a xlink:title=" ">
<path fill="none" stroke="#63b8ff" d="M381.95,-60.37C394.75,-51.12 415.3,-36.28 430.65,-25.19"/>
<polygon fill="#63b8ff" stroke="#63b8ff" points="432.94,-27.86 439,-19.17 428.84,-22.18 432.94,-27.86"/>
</a>
</g>
</g>
<!-- Node13 -->
<g id="Node000013" class="node">
<title>Node13</title>
<g id="a_Node000013"><a xlink:title=" ">
<polygon fill="#e0e0e0" stroke="#999999" points="775.5,-19 728.5,-19 728.5,0 775.5,0 775.5,-19"/>
<text text-anchor="middle" x="752" y="-7" font-family="Helvetica,sans-Serif" font-size="10.00">vector</text>
</a>
</g>
</g>
<!-- Node4&#45;&gt;Node13 -->
<g id="edge12_Node000004_Node000013" class="edge">
<title>Node4&#45;&gt;Node13</title>
<g id="a_edge12_Node000004_Node000013"><a xlink:title=" ">
<path fill="none" stroke="#63b8ff" d="M421.95,-60.44C433.49,-58.59 445.65,-56.69 457,-55 570.07,-38.14 601.95,-41.49 718.27,-18.92"/>
<polygon fill="#63b8ff" stroke="#63b8ff" points="719.14,-22.32 728.28,-16.96 717.79,-15.45 719.14,-22.32"/>
</a>
</g>
</g>
<!-- Node15&#45;&gt;Node4 -->
<g id="edge24_Node000015_Node000004" class="edge">
<title>Node15&#45;&gt;Node4</title>
<g id="a_edge24_Node000015_Node000004"><a xlink:title=" ">
<path fill="none" stroke="#63b8ff" d="M554.59,-120.99C516.76,-110.75 453.09,-93.5 411.31,-82.19"/>
<polygon fill="#63b8ff" stroke="#63b8ff" points="412.01,-78.75 401.45,-79.52 410.18,-85.51 412.01,-78.75"/>
</a>
</g>
</g>
<!-- Node15&#45;&gt;Node5 -->
<g id="edge17_Node000015_Node000005" class="edge">
<title>Node15&#45;&gt;Node5</title>
<g id="a_edge17_Node000015_Node000005"><a xlink:title=" ">
<path fill="none" stroke="#63b8ff" d="M499.87,-128.56C437.41,-125.14 352.13,-114.67 283,-85 280.82,-84.06 234.04,-47.06 206.96,-25.56"/>
<polygon fill="#63b8ff" stroke="#63b8ff" points="208.94,-22.67 198.94,-19.19 204.59,-28.15 208.94,-22.67"/>
</a>
</g>
</g>
<!-- Node15&#45;&gt;Node7 -->
<g id="edge20_Node000015_Node000007" class="edge">
<title>Node15&#45;&gt;Node7</title>
<g id="a_edge20_Node000015_Node000007"><a xlink:title=" ">
<path fill="none" stroke="#63b8ff" d="M589.74,-120.56C595.26,-105.86 603.75,-76.08 592,-55 583.84,-40.37 568.67,-29.94 554.34,-22.88"/>
<polygon fill="#63b8ff" stroke="#63b8ff" points="555.69,-19.64 545.14,-18.71 552.81,-26.02 555.69,-19.64"/>
</a>
</g>
</g>
<!-- Node15&#45;&gt;Node8 -->
<g id="edge21_Node000015_Node000008" class="edge">
<title>Node15&#45;&gt;Node8</title>
<g id="a_edge21_Node000015_Node000008"><a xlink:title=" ">
<path fill="none" stroke="#63b8ff" d="M597.64,-120.73C607.31,-112.67 620.35,-99.74 626,-85 630.77,-72.55 630.36,-67.6 626,-55 622.33,-44.38 614.96,-34.38 607.92,-26.55"/>
<polygon fill="#63b8ff" stroke="#63b8ff" points="610.34,-24.02 600.88,-19.25 605.3,-28.88 610.34,-24.02"/>
</a>
</g>
</g>
<!-- Node15&#45;&gt;Node11 -->
<g id="edge22_Node000015_Node000011" class="edge">
<title>Node15&#45;&gt;Node11</title>
<g id="a_edge22_Node000015_Node000011"><a xlink:title=" ">
<path fill="none" stroke="#63b8ff" d="M600.54,-120.86C612.95,-112.87 630.54,-100 642,-85 655.06,-67.92 663.92,-44.69 668.95,-28.74"/>
<polygon fill="#63b8ff" stroke="#63b8ff" points="672.35,-29.61 671.83,-19.03 665.64,-27.62 672.35,-29.61"/>
</a>
</g>
</g>
<!-- Node15&#45;&gt;Node13 -->
<g id="edge23_Node000015_Node000013" class="edge">
<title>Node15&#45;&gt;Node13</title>
<g id="a_edge23_Node000015_Node000013"><a xlink:title=" ">
<path fill="none" stroke="#63b8ff" d="M603.54,-120.88C619.95,-112.52 644.88,-99.08 665,-85 691.04,-66.78 718.48,-42.27 735.42,-26.42"/>
<polygon fill="#63b8ff" stroke="#63b8ff" points="737.98,-28.82 742.84,-19.41 733.17,-23.73 737.98,-28.82"/>
</a>
</g>
</g>
<!-- Node16 -->
<g id="Node000016" class="node">
<title>Node16</title>
<g id="a_Node000016"><a xlink:title=" ">
<polygon fill="#e0e0e0" stroke="#999999" points="818,-79.5 754,-79.5 754,-60.5 818,-60.5 818,-79.5"/>
<text text-anchor="middle" x="786" y="-67.5" font-family="Helvetica,sans-Serif" font-size="10.00">algorithm</text>
</a>
</g>
</g>
<!-- Node15&#45;&gt;Node16 -->
<g id="edge16_Node000015_Node000016" class="edge">
<title>Node15&#45;&gt;Node16</title>
<g id="a_edge16_Node000015_Node000016"><a xlink:title=" ">
<path fill="none" stroke="#63b8ff" d="M616.14,-120.93C647.21,-112.06 697.04,-97.74 740,-85 742.78,-84.18 745.64,-83.32 748.53,-82.45"/>
<polygon fill="#63b8ff" stroke="#63b8ff" points="749.73,-85.75 758.29,-79.5 747.7,-79.05 749.73,-85.75"/>
</a>
</g>
</g>
<!-- Node17 -->
<g id="Node000017" class="node">
<title>Node17</title>
<g id="a_Node000017"><a xlink:title=" ">
<polygon fill="#e0e0e0" stroke="#999999" points="518,-79.5 466,-79.5 466,-60.5 518,-60.5 518,-79.5"/>
<text text-anchor="middle" x="492" y="-67.5" font-family="Helvetica,sans-Serif" font-size="10.00">cassert</text>
</a>
</g>
</g>
<!-- Node15&#45;&gt;Node17 -->
<g id="edge18_Node000015_Node000017" class="edge">
<title>Node15&#45;&gt;Node17</title>
<g id="a_edge18_Node000015_Node000017"><a xlink:title=" ">
<path fill="none" stroke="#63b8ff" d="M572.13,-120.87C557,-111.45 532.54,-96.23 514.62,-85.08"/>
<polygon fill="#63b8ff" stroke="#63b8ff" points="516.27,-81.98 505.93,-79.67 512.57,-87.92 516.27,-81.98"/>
</a>
</g>
</g>
<!-- Node18 -->
<g id="Node000018" class="node">
<title>Node18</title>
<g id="a_Node000018"><a xlink:title=" ">
<polygon fill="#e0e0e0" stroke="#999999" points="583.5,-79.5 536.5,-79.5 536.5,-60.5 583.5,-60.5 583.5,-79.5"/>
<text text-anchor="middle" x="560" y="-67.5" font-family="Helvetica,sans-Serif" font-size="10.00">cmath</text>
</a>
</g>
</g>
<!-- Node15&#45;&gt;Node18 -->
<g id="edge19_Node000015_Node000018" class="edge">
<title>Node15&#45;&gt;Node18</title>
<g id="a_edge19_Node000015_Node000018"><a xlink:title=" ">
<path fill="none" stroke="#63b8ff" d="M582.16,-120.87C578.44,-112.49 572.67,-99.51 567.95,-88.89"/>
<polygon fill="#63b8ff" stroke="#63b8ff" points="571.11,-87.38 563.85,-79.67 564.72,-90.23 571.11,-87.38"/>
</a>
</g>
</g>
</g>
</svg>
